<svg width="20" height="26" viewBox="0 0 35 41" fill="none" xmlns="http://www.w3.org/2000/svg">
<g clip-path="url(#clip0_1_57)">
<g clip-path="url(#clip1_1_57)">
<g clip-path="url(#clip2_1_57)">
<path d="M34.293 24.8554V29.9403C34.293 31.534 33.0028 32.7483 31.4849 32.7483H3.101C1.50725 32.7483 0.292969 31.4581 0.292969 29.9403V24.8554C0.292969 23.3376 1.58315 22.0474 3.101 22.0474H4.2394V7.47598C4.31529 6.2617 5.226 5.35098 6.3644 5.42688C7.50279 5.42688 8.33761 6.33759 8.4135 7.47598V20.5296C8.4135 20.8331 8.18583 21.0608 7.88225 21.0608C7.57868 21.0608 7.35101 20.8331 7.35101 20.5296V7.47598C7.35101 6.94473 6.89565 6.56527 6.3644 6.56527C5.83315 6.56527 5.45368 7.02063 5.45368 7.47598V22.0474H22.6814C22.9849 22.0474 23.2126 22.2751 23.2126 22.5787C23.2126 22.8822 22.9849 23.1099 22.6814 23.1099H3.101C2.19029 23.1099 1.43136 23.8688 1.43136 24.7796V29.8644C1.43136 30.7751 2.19029 31.534 3.101 31.534H31.409C32.3198 31.534 33.0787 30.7751 33.0787 29.8644V24.7796C33.0787 23.8688 32.3198 23.1099 31.409 23.1099H26.7037C26.4001 23.1099 26.1724 22.8822 26.1724 22.5787V7.40009C26.1724 6.2617 27.159 5.35098 28.2974 5.35098C29.4358 5.35098 30.2706 6.2617 30.3465 7.40009V20.5296C30.3465 20.8331 30.1189 21.0608 29.8153 21.0608C29.5117 21.0608 29.284 20.8331 29.284 20.5296V7.47598C29.284 6.94473 28.8287 6.56527 28.2974 6.56527C27.7662 6.56527 27.3867 7.02063 27.3867 7.47598V22.0474H31.409C33.0028 22.0474 34.293 23.3376 34.293 24.8554ZM5.52958 26.8287C5.226 26.8287 4.99833 27.0563 4.99833 27.3599C4.99833 27.6635 5.226 27.8912 5.52958 27.8912H7.04743C7.351 27.8912 7.57868 27.6635 7.57868 27.3599C7.57868 27.0563 7.351 26.8287 7.04743 26.8287H5.52958ZM9.5519 26.8287C9.24833 26.8287 9.02065 27.0563 9.02065 27.3599C9.02065 27.6635 9.24833 27.8912 9.5519 27.8912H13.5742C13.8778 27.8912 14.1055 27.6635 14.1055 27.3599C14.1055 27.0563 13.8778 26.8287 13.5742 26.8287H9.5519ZM8.64118 34.5697H4.69475C4.39118 34.5697 4.1635 34.7974 4.1635 35.101C4.08761 35.4804 4.39118 35.7081 4.69475 35.7081H8.64118C8.94475 35.7081 9.17243 35.4804 9.17243 35.1769C9.17243 34.7974 8.94475 34.5697 8.64118 34.5697ZM29.8912 34.5697H25.9448C25.6412 34.5697 25.4135 34.7974 25.4135 35.101C25.4135 35.4046 25.6412 35.6322 25.9448 35.6322H29.8912C30.1948 35.6322 30.4224 35.4046 30.4224 35.101C30.4224 34.7974 30.1948 34.5697 29.8912 34.5697ZM18.0519 15.976C18.4314 16.3554 18.4314 17.0385 18.0519 17.4938C17.6724 17.8733 16.9894 17.8733 16.534 17.4938C16.1546 17.1144 16.1546 16.4313 16.534 15.976C16.7617 15.7483 16.9894 15.6724 17.293 15.6724C17.5965 15.6724 17.8242 15.7483 18.0519 15.976ZM19.8733 14.9135C20.101 14.6858 20.101 14.3063 19.8733 14.0787C18.4314 12.6367 16.0787 12.6367 14.6367 14.0787C14.409 14.3063 14.409 14.6858 14.6367 14.9135C14.8644 15.1412 15.2439 15.1412 15.4715 14.9135C16.4581 13.9269 18.0519 13.9269 19.0385 14.9135C19.3421 15.1412 19.6456 15.1412 19.8733 14.9135ZM13.4224 12.7885C15.5474 10.6635 19.0385 10.6635 21.2394 12.7885C21.4671 13.0162 21.8465 13.0162 22.0742 12.7885C22.3019 12.5608 22.3019 12.1813 22.0742 11.9537C19.4939 9.3733 15.2439 9.3733 12.6635 11.9537C12.4358 12.1813 12.4358 12.5608 12.6635 12.7885C12.8153 13.0162 13.1948 13.0162 13.4224 12.7885Z" fill="url(#paint0_linear_1_57)"/>
</g>
</g>
</g>
<defs>
<linearGradient id="paint0_linear_1_57" x1="17.293" y1="5.35098" x2="17.293" y2="35.7081" gradientUnits="userSpaceOnUse">
<stop stop-color="#0336E9"/>
<stop offset="1" stop-color="#1837A5"/>
</linearGradient>
<clipPath id="clip0_1_57">
<rect width="34" height="40" fill="white" transform="translate(0.292969 0.529541)"/>
</clipPath>
<clipPath id="clip1_1_57">
<rect width="34" height="40" fill="white" transform="translate(0.292969 0.529541)"/>
</clipPath>
<clipPath id="clip2_1_57">
<rect width="34" height="30.3571" fill="white" transform="translate(0.292969 5.35098)"/>
</clipPath>
</defs>
</svg>
