<svg width="20" height="26" viewBox="0 0 35 41" fill="none" xmlns="http://www.w3.org/2000/svg">
<g clip-path="url(#clip0_1_145)">
<g clip-path="url(#clip1_1_145)">
<g clip-path="url(#clip2_1_145)">
<path d="M0.900391 29.5512H34.9004V8.33852H0.900391V29.5512ZM2.63326 10.0714H33.1675V27.7586H2.63326V10.0714Z" fill="url(#paint0_linear_1_145)"/>
<path d="M6.93593 21.8429C7.2347 21.8429 7.47371 21.9624 7.65298 22.1417C7.77248 22.3209 7.83224 22.5002 7.83224 22.6795H9.26633C9.26633 22.0819 8.96756 21.4844 8.48953 21.0661C8.07125 20.7673 7.47371 20.5881 6.87617 20.6478C6.15913 20.5881 5.50183 20.8868 5.0238 21.4246C4.54577 22.0222 4.30675 22.799 4.36651 23.5758C4.30675 24.2928 4.54577 25.0099 4.96405 25.6074C5.44208 26.1452 6.15913 26.444 6.87617 26.3842C7.65298 26.444 8.37002 26.0854 8.84805 25.4281C9.08707 25.0696 9.26633 24.6513 9.32609 24.2331H7.89199C7.89199 24.4721 7.77248 24.7111 7.65298 24.9501C7.47371 25.1294 7.2347 25.2489 6.93593 25.1891C6.51765 25.1891 6.09937 24.9501 5.97986 24.5318C5.86036 24.2331 5.8006 23.8745 5.86036 23.5758C5.86036 23.2172 5.92011 22.9185 5.97986 22.5599C6.03962 22.0819 6.4579 21.7831 6.93593 21.8429Z" fill="url(#paint1_linear_1_145)"/>
<path d="M15.1808 25.7867C15.121 25.6672 15.121 25.5477 15.121 25.4281C15.121 25.1891 15.121 24.9501 15.121 24.8306V22.3807C15.1808 21.8429 14.882 21.3051 14.404 21.0661C13.926 20.8271 13.3882 20.7076 12.8504 20.7076C12.1334 20.6478 11.4163 20.8868 10.9383 21.4246C10.6395 21.6636 10.4602 22.0819 10.4602 22.5002H11.8346C11.8346 22.3209 11.9541 22.1417 12.0138 22.0222C12.1931 21.8429 12.4919 21.7234 12.7309 21.7832C12.9699 21.7832 13.2089 21.8429 13.3882 21.9027C13.5674 22.0222 13.6272 22.2014 13.6272 22.3807C13.6272 22.56 13.5077 22.7392 13.3284 22.799C13.1492 22.8587 12.9699 22.9185 12.7906 22.9185L12.3126 22.9782C11.8943 23.038 11.4761 23.1575 11.0578 23.3368C10.52 23.6355 10.2212 24.1733 10.281 24.7709C10.281 25.1891 10.4602 25.6672 10.759 25.9659C11.1175 26.2647 11.5358 26.3842 11.9541 26.3842C12.3126 26.3842 12.6711 26.3245 12.9699 26.1452C13.2089 26.0257 13.4479 25.8464 13.6272 25.6074C13.6272 25.7269 13.6272 25.8464 13.687 25.9062C13.687 26.0257 13.7467 26.0854 13.7467 26.2049H15.3003V26.0257C15.3003 25.9062 15.2406 25.8464 15.1808 25.7867ZM13.687 24.0538C13.7467 24.4123 13.5674 24.7709 13.2687 25.0099C13.0297 25.1891 12.7309 25.2489 12.4321 25.2489C12.2529 25.2489 12.0736 25.1891 11.9541 25.0696C11.8346 24.9501 11.7151 24.7709 11.7748 24.5318C11.7748 24.2928 11.8943 24.0538 12.1333 23.9343C12.3126 23.8148 12.5516 23.755 12.7906 23.755L13.0894 23.6953C13.2089 23.6953 13.3284 23.6355 13.4479 23.5758C13.5674 23.516 13.6272 23.516 13.7467 23.4563L13.687 24.0538Z" fill="url(#paint2_linear_1_145)"/>
<path d="M19.4839 20.5881C19.1254 20.5881 18.8266 20.6478 18.5278 20.8271C18.2888 21.0064 18.1095 21.1856 17.9303 21.4246V18.8552H16.4962V26.1452H17.8705V25.4879C17.99 25.7269 18.1693 25.9062 18.4083 26.0257C19.3644 26.5635 20.4997 26.3245 21.157 25.4879C21.5753 24.8904 21.7545 24.1733 21.7545 23.3965C21.8143 22.6795 21.5753 21.9624 21.157 21.4246C20.7985 20.8868 20.1412 20.5881 19.4839 20.5881ZM20.0217 24.6513C19.8424 24.9501 19.4839 25.1294 19.1851 25.0696C18.8266 25.0696 18.4681 24.9501 18.229 24.5916C17.99 24.2331 17.9303 23.8745 17.9303 23.4563C17.9303 23.1575 17.99 22.799 18.1095 22.5002C18.2888 22.0819 18.7071 21.7832 19.1851 21.7832C19.6631 21.7832 20.0814 22.0222 20.2607 22.5002C20.3802 22.799 20.4399 23.0977 20.4399 23.4563C20.3204 23.9343 20.2009 24.2928 20.0217 24.6513Z" fill="url(#paint3_linear_1_145)"/>
<path d="M24.3833 18.7955H22.9492V26.0855H24.3833V18.7955Z" fill="url(#paint4_linear_1_145)"/>
<path d="M30.599 21.6637C30.36 21.3051 30.0612 21.0661 29.643 20.8869C29.2247 20.7076 28.8064 20.6478 28.3881 20.6478C27.6711 20.6478 26.954 20.8869 26.476 21.4246C25.9382 22.0222 25.6992 22.799 25.759 23.5758C25.6992 24.4123 25.998 25.1891 26.5955 25.7269C27.1333 26.1452 27.7906 26.3842 28.5076 26.3842C29.2844 26.444 30.0015 26.1452 30.5393 25.6074C30.838 25.3684 31.0173 25.0099 31.0771 24.6514H29.5832C29.404 25.0696 28.9857 25.3087 28.5076 25.2489C28.2089 25.2489 27.9699 25.1891 27.7308 25.0696C27.3723 24.8306 27.1333 24.3526 27.1931 23.9343H31.1368C31.1368 23.5758 31.1368 23.2173 31.0771 22.8587C30.9576 22.3807 30.8381 22.0222 30.599 21.6637ZM27.1931 22.9185C27.2528 22.6197 27.3723 22.321 27.5516 22.0819C27.7906 21.8429 28.0894 21.7832 28.3881 21.7832C28.6869 21.7832 28.9857 21.9027 29.2247 22.0819C29.4637 22.321 29.5832 22.6197 29.5832 22.9185H27.1931Z" fill="url(#paint5_linear_1_145)"/>
<path d="M26.0574 30.567H9.74462C9.26659 30.5072 8.90807 30.8657 8.84831 31.3438C8.78856 31.8218 9.14708 32.1803 9.62511 32.2401C9.68487 32.2401 9.68487 32.2401 9.74462 32.2401H26.0574C26.5355 32.2998 26.894 31.9413 26.9538 31.4633C27.0135 30.9852 26.655 30.6267 26.177 30.567C26.1172 30.567 26.1172 30.567 26.0574 30.567Z" fill="url(#paint6_linear_1_145)"/>
</g>
</g>
</g>
<defs>
<linearGradient id="paint0_linear_1_145" x1="17.9004" y1="8.33852" x2="17.9004" y2="29.5512" gradientUnits="userSpaceOnUse">
<stop stop-color="#0336E9"/>
<stop offset="1" stop-color="#1837A5"/>
</linearGradient>
<linearGradient id="paint1_linear_1_145" x1="6.84175" y1="20.6364" x2="6.84175" y2="26.3917" gradientUnits="userSpaceOnUse">
<stop stop-color="#0336E9"/>
<stop offset="1" stop-color="#1837A5"/>
</linearGradient>
<linearGradient id="paint2_linear_1_145" x1="12.7869" y1="20.6986" x2="12.7869" y2="26.3842" gradientUnits="userSpaceOnUse">
<stop stop-color="#0336E9"/>
<stop offset="1" stop-color="#1837A5"/>
</linearGradient>
<linearGradient id="paint3_linear_1_145" x1="19.1299" y1="18.8552" x2="19.1299" y2="26.3128" gradientUnits="userSpaceOnUse">
<stop stop-color="#0336E9"/>
<stop offset="1" stop-color="#1837A5"/>
</linearGradient>
<linearGradient id="paint4_linear_1_145" x1="23.6663" y1="18.7955" x2="23.6663" y2="26.0855" gradientUnits="userSpaceOnUse">
<stop stop-color="#0336E9"/>
<stop offset="1" stop-color="#1837A5"/>
</linearGradient>
<linearGradient id="paint5_linear_1_145" x1="28.4434" y1="20.6478" x2="28.4434" y2="26.3918" gradientUnits="userSpaceOnUse">
<stop stop-color="#0336E9"/>
<stop offset="1" stop-color="#1837A5"/>
</linearGradient>
<linearGradient id="paint6_linear_1_145" x1="17.901" y1="30.5604" x2="17.901" y2="32.2466" gradientUnits="userSpaceOnUse">
<stop stop-color="#0336E9"/>
<stop offset="1" stop-color="#1837A5"/>
</linearGradient>
<clipPath id="clip0_1_145">
<rect width="34" height="40" fill="white" transform="translate(0.900391 0.289307)"/>
</clipPath>
<clipPath id="clip1_1_145">
<rect width="34" height="40" fill="white" transform="translate(0.900391 0.289307)"/>
</clipPath>
<clipPath id="clip2_1_145">
<rect width="34" height="23.9016" fill="white" transform="translate(0.900391 8.33852)"/>
</clipPath>
</defs>
</svg>
