<svg width="20" height="26" viewBox="0 0 35 41" fill="none" xmlns="http://www.w3.org/2000/svg">
<g clip-path="url(#clip0_1_257)">
<g clip-path="url(#clip1_1_257)">
<g clip-path="url(#clip2_1_257)">
<path d="M7.68723 32.2417H8.72379C8.69062 32.6369 8.58005 32.9894 8.39209 33.2989C8.20413 33.6058 7.94015 33.8476 7.60016 34.0245C7.26016 34.2014 6.84692 34.2899 6.36043 34.2899C5.98727 34.2899 5.65142 34.2236 5.35289 34.0909C5.05436 33.9554 4.79868 33.7647 4.58584 33.5187C4.373 33.2699 4.20991 32.97 4.09658 32.619C3.98601 32.2679 3.93073 31.8754 3.93073 31.4414V30.9397C3.93073 30.5058 3.98739 30.1132 4.10073 29.7622C4.21682 29.4111 4.38267 29.1112 4.59827 28.8625C4.81388 28.6109 5.07233 28.4188 5.37362 28.2861C5.67768 28.1535 6.01905 28.0871 6.39774 28.0871C6.87871 28.0871 7.28504 28.1756 7.61674 28.3525C7.94844 28.5294 8.20551 28.774 8.38794 29.0864C8.57314 29.3987 8.68647 29.7567 8.72793 30.1602H7.69137C7.66373 29.9004 7.60292 29.6779 7.50894 29.4927C7.41772 29.3075 7.28228 29.1665 7.10261 29.0698C6.92294 28.9703 6.68798 28.9205 6.39774 28.9205C6.16003 28.9205 5.95271 28.9647 5.77581 29.0532C5.5989 29.1416 5.45102 29.2716 5.33216 29.4429C5.2133 29.6143 5.12347 29.8258 5.06265 30.0773C5.00461 30.3261 4.97558 30.6108 4.97558 30.9314V31.4414C4.97558 31.7455 5.00184 32.0219 5.05436 32.2707C5.10964 32.5167 5.19257 32.7281 5.30314 32.905C5.41647 33.082 5.5602 33.2188 5.73435 33.3155C5.90849 33.4123 6.11718 33.4606 6.36043 33.4606C6.65619 33.4606 6.89529 33.4137 7.07773 33.3197C7.26293 33.2257 7.40252 33.0889 7.4965 32.9092C7.59325 32.7268 7.65682 32.5042 7.68723 32.2417Z" fill="url(#paint0_linear_1_257)"/>
<path d="M34.267 15.5623L30.4687 5.68667C30.1231 4.79 29.4355 4.06734 28.5571 3.67767C27.6787 3.28799 26.6815 3.26322 25.7848 3.60879L25.6999 3.64106L6.72054 11.5101C5.8514 11.8668 5.15575 12.5486 4.78164 13.4104C4.40752 14.2722 4.38447 15.2459 4.71739 16.1244L5.23962 17.5179H4.04232C3.10415 17.5188 2.20466 17.8919 1.54128 18.5553C0.87789 19.2186 0.504806 20.1181 0.503906 21.0563L0.503906 33.7936C0.504806 34.7317 0.87789 35.6312 1.54128 36.2946C2.20466 36.958 3.10415 37.3311 4.04232 37.332H28.1013C29.0395 37.3311 29.939 36.958 30.6023 36.2946C31.2657 35.6312 31.6388 34.7317 31.6397 33.7936V21.0563C31.6386 20.8642 31.6215 20.6724 31.5888 20.4831L32.246 20.2173C33.1231 19.8578 33.8251 19.17 34.2026 18.3006C34.5801 17.4311 34.6032 16.4486 34.267 15.5623ZM4.04232 18.6507H28.1013C28.7135 18.6522 29.302 18.8875 29.7466 19.3084C30.1912 19.7293 30.4583 20.3041 30.4934 20.9153H1.65026C1.68532 20.3041 1.95242 19.7293 2.397 19.3084C2.84158 18.8875 3.4301 18.6522 4.04232 18.6507ZM9.73163 15.2405L13.5163 13.3494L14.2941 15.2948L10.5103 17.1867L9.73163 15.2405ZM30.507 33.7944C30.5058 34.432 30.252 35.0431 29.8011 35.4939C29.3501 35.9447 28.7389 36.1983 28.1013 36.1992H4.04232C3.40458 36.1983 2.79321 35.9446 2.34226 35.4936C1.89131 35.0427 1.63757 34.4313 1.63667 33.7936V26.5758H30.5078L30.507 33.7944ZM30.507 25.4447H1.63582V22.0481H30.507V25.4447ZM31.8206 19.172L31.2262 19.4115C30.9267 18.8415 30.4775 18.364 29.9269 18.0304C29.3763 17.6967 28.7451 17.5195 28.1013 17.5179H12.3759L15.263 16.0743C15.39 16.0108 15.4885 15.9019 15.539 15.7691C15.5895 15.6364 15.5883 15.4895 15.5356 15.3576L14.3383 12.3559C14.3107 12.2868 14.2698 12.2238 14.2178 12.1706C14.1659 12.1173 14.104 12.0748 14.0356 12.0454C13.9672 12.0161 13.8938 12.0005 13.8194 11.9996C13.745 11.9987 13.6711 12.0124 13.6021 12.04L13.5588 12.0595L8.75935 14.4609C8.63234 14.5245 8.53383 14.6334 8.48334 14.7661C8.43286 14.8989 8.43408 15.0457 8.48677 15.1776L9.42084 17.5179H6.44796L5.77798 15.727C5.55039 15.1238 5.56684 14.4555 5.82383 13.8642C6.08082 13.2728 6.55813 12.8049 7.15445 12.5597L26.1364 4.68806C26.4381 4.5629 26.7616 4.49841 27.0882 4.49827C27.4149 4.49813 27.7384 4.56235 28.0403 4.68725C28.3421 4.81216 28.6164 4.99531 28.8475 5.22623C29.0785 5.45716 29.2618 5.73134 29.3869 6.03312L29.4107 6.09256L33.2089 15.969C33.4411 16.5783 33.4259 17.2542 33.1667 17.8524C32.9075 18.4507 32.4247 18.9239 31.8214 19.1712L31.8206 19.172Z" fill="url(#paint1_linear_1_257)"/>
<path d="M20.8649 34.6069C21.3833 34.9081 21.9721 35.0668 22.5717 35.0668C23.1713 35.0668 23.7601 34.9081 24.2785 34.6069C24.7947 34.9063 25.3808 35.0645 25.9776 35.0654C26.5744 35.0663 27.1609 34.9099 27.6781 34.6121C28.1952 34.3142 28.6248 33.8853 28.9235 33.3686C29.2222 32.8519 29.3794 32.2656 29.3794 31.6688C29.3794 31.072 29.2222 30.4857 28.9235 29.969C28.6248 29.4523 28.1952 29.0234 27.6781 28.7255C27.1609 28.4276 26.5744 28.2713 25.9776 28.2722C25.3808 28.2731 24.7947 28.4313 24.2785 28.7307C23.4992 28.2781 22.5721 28.1535 21.701 28.3844C20.83 28.6153 20.0863 29.1828 19.6336 29.962C19.1809 30.7412 19.0564 31.6684 19.2873 32.5394C19.5182 33.4105 20.0857 34.1542 20.8649 34.6069ZM25.2253 29.5425C25.5677 29.417 25.9353 29.376 26.2969 29.423C26.6585 29.47 27.0034 29.6035 27.3024 29.8123C27.6013 30.0211 27.8454 30.299 28.014 30.6224C28.1825 30.9457 28.2706 31.305 28.2706 31.6696C28.2706 32.0343 28.1825 32.3935 28.014 32.7169C27.8454 33.0402 27.6013 33.3181 27.3024 33.5269C27.0034 33.7358 26.6585 33.8693 26.2969 33.9163C25.9353 33.9633 25.5677 33.9223 25.2253 33.7968C25.7122 33.1946 25.9778 32.4436 25.9778 31.6692C25.9778 30.8948 25.7122 30.1447 25.2253 29.5425ZM24.2785 30.187C24.6432 30.5947 24.8448 31.1226 24.8448 31.6696C24.8448 32.2167 24.6432 32.7445 24.2785 33.1523C23.9135 32.7445 23.7118 32.2164 23.7118 31.6692C23.7118 31.122 23.9135 30.5939 24.2785 30.1862V30.187ZM22.5802 29.4041C22.837 29.4068 23.0915 29.4536 23.3325 29.5425C22.8459 30.1446 22.5804 30.8954 22.5804 31.6696C22.5804 32.4438 22.8459 33.1946 23.3325 33.7968C23.0219 33.9073 22.6908 33.9485 22.3625 33.9175C22.0342 33.8866 21.7167 33.7842 21.4322 33.6176C21.1476 33.451 20.9029 33.2242 20.7153 32.9531C20.5277 32.6819 20.4016 32.3731 20.3459 32.0481C20.2902 31.7231 20.3063 31.3898 20.393 31.0717C20.4797 30.7535 20.6349 30.4582 20.8478 30.2064C21.0606 29.9546 21.326 29.7524 21.6253 29.6139C21.9245 29.4755 22.2504 29.4042 22.5802 29.405V29.4041Z" fill="url(#paint2_linear_1_257)"/>
<path d="M24.3797 15.0491L24.8398 16.0842L30.242 13.6828L29.7818 12.6477L24.3797 15.0491Z" fill="url(#paint3_linear_1_257)"/>
<path d="M28.5802 10.2521L20.7773 13.8527L21.2516 14.8805L29.0544 11.2799L28.5802 10.2521Z" fill="url(#paint4_linear_1_257)"/>
</g>
</g>
</g>
<defs>
<linearGradient id="paint0_linear_1_257" x1="6.50781" y1="26.207" x2="6.50781" y2="36.207" gradientUnits="userSpaceOnUse">
<stop stop-color="#0336E9"/>
<stop offset="1" stop-color="#1837A5"/>
</linearGradient>
<linearGradient id="paint1_linear_1_257" x1="17.5037" y1="3.36639" x2="17.5037" y2="37.332" gradientUnits="userSpaceOnUse">
<stop stop-color="#0336E9"/>
<stop offset="1" stop-color="#1837A5"/>
</linearGradient>
<linearGradient id="paint2_linear_1_257" x1="24.2766" y1="28.2709" x2="24.2766" y2="35.0668" gradientUnits="userSpaceOnUse">
<stop stop-color="#0336E9"/>
<stop offset="1" stop-color="#1837A5"/>
</linearGradient>
<linearGradient id="paint3_linear_1_257" x1="24.6098" y1="15.5666" x2="30.0119" y2="13.1653" gradientUnits="userSpaceOnUse">
<stop stop-color="#0336E9"/>
<stop offset="1" stop-color="#1837A5"/>
</linearGradient>
<linearGradient id="paint4_linear_1_257" x1="24.6788" y1="12.0524" x2="25.153" y2="13.0802" gradientUnits="userSpaceOnUse">
<stop stop-color="#0336E9"/>
<stop offset="1" stop-color="#1837A5"/>
</linearGradient>
<clipPath id="clip0_1_257">
<rect width="34" height="40" fill="white" transform="translate(0.503906 0.3479)"/>
</clipPath>
<clipPath id="clip1_1_257">
<rect width="34" height="40" fill="white" transform="translate(0.503906 0.3479)"/>
</clipPath>
<clipPath id="clip2_1_257">
<rect width="34" height="33.966" fill="white" transform="translate(0.503906 3.36487)"/>
</clipPath>
</defs>
</svg>
