<svg width="20" height="26" viewBox="0 0 35 41" fill="none" xmlns="http://www.w3.org/2000/svg">
<g clip-path="url(#clip0_1_324)">
<g clip-path="url(#clip1_1_324)">
<g clip-path="url(#clip2_1_324)">
<path d="M6.24224 10.138C9.13224 7.16297 12.9572 5.54797 17.1222 5.46297H17.2922C21.2872 5.46297 25.1122 6.99297 28.0022 9.71297H26.4722V11.243L30.6372 11.158L30.5522 6.99297H29.0222V8.60797C25.7922 5.54797 21.5422 3.84797 17.1222 3.93297C12.5322 4.01797 8.36724 5.80297 5.13724 9.03297C2.84224 11.328 1.31224 14.303 0.71724 17.448C0.12224 20.508 0.29224 23.738 1.31224 26.713L2.75724 26.203C0.717239 20.593 2.07724 14.388 6.24224 10.138ZM29.4472 32.833C31.7422 30.538 33.2722 27.563 33.8672 24.418C34.4622 21.358 34.2922 18.128 33.2722 15.153L31.8272 15.663C33.8672 21.273 32.5072 27.478 28.3422 31.728C22.3922 37.763 12.7022 37.933 6.58224 32.068H8.11224V30.538L3.94724 30.623L4.03224 34.788H5.56224V33.173C8.79224 36.403 13.0422 37.933 17.2922 37.933C21.7122 37.933 26.1322 36.233 29.4472 32.833Z" fill="url(#paint0_linear_1_324)"/>
<path d="M21.1176 17.278H18.3126C18.8226 17.703 19.1626 18.213 19.2476 19.063H21.1176V19.913H19.2476C19.0776 21.698 17.7176 22.803 15.5076 22.888C16.8676 24.248 18.3126 26.033 19.7576 27.818H18.1426C16.7826 26.203 15.5076 24.673 13.8926 22.973V21.783H14.8276C16.6976 21.783 17.7176 21.018 17.8026 19.828H13.8926V18.978H17.8026C17.5476 17.958 16.6126 17.448 15.1676 17.448H13.8926V16.343H21.1176V17.278Z" fill="url(#paint1_linear_1_324)"/>
</g>
</g>
</g>
<defs>
<linearGradient id="paint0_linear_1_324" x1="17.2922" y1="3.92993" x2="17.2922" y2="37.933" gradientUnits="userSpaceOnUse">
<stop stop-color="#0336E9"/>
<stop offset="1" stop-color="#1837A5"/>
</linearGradient>
<linearGradient id="paint1_linear_1_324" x1="17.5051" y1="16.343" x2="17.5051" y2="27.818" gradientUnits="userSpaceOnUse">
<stop stop-color="#0336E9"/>
<stop offset="1" stop-color="#1837A5"/>
</linearGradient>
<clipPath id="clip0_1_324">
<rect width="34" height="40" fill="white" transform="translate(0.292969 0.932861)"/>
</clipPath>
<clipPath id="clip1_1_324">
<rect width="34" height="40" fill="white" transform="translate(0.292969 0.932861)"/>
</clipPath>
<clipPath id="clip2_1_324">
<rect width="34" height="34" fill="white" transform="translate(0.292969 3.93286)"/>
</clipPath>
</defs>
</svg>
