<svg width="20" height="26" viewBox="0 0 35 41" fill="none" xmlns="http://www.w3.org/2000/svg">
<g clip-path="url(#clip0_1_80)">
<g clip-path="url(#clip1_1_80)">
<g clip-path="url(#clip2_1_80)">
<path d="M15.4596 38.1005H1.58208C1.18558 38.1005 0.789078 37.8031 0.789078 37.3075C0.789078 37.2083 0.789078 37.1092 0.888203 37.0101L7.03398 22.2404C7.23223 21.8439 7.62873 21.6457 8.02523 21.8439C8.42173 22.0422 8.61998 22.4387 8.42173 22.8352L2.77159 36.5145H14.4684L11.6929 28.1879C11.5937 27.7914 11.792 27.2958 12.1885 27.1967C12.585 27.0976 13.0806 27.2958 13.1797 27.6923L16.2526 37.0101C16.3518 37.4066 16.1535 37.9022 15.757 38.0014C15.6579 38.1005 15.5588 38.1005 15.4596 38.1005Z" fill="url(#paint0_linear_1_80)"/>
<path d="M15.4592 38.1004C15.3601 38.1004 15.2609 38.1004 15.1618 38.0013L3.56414 33.3424C3.16763 33.1441 2.96938 32.7476 3.16763 32.3511C3.26676 32.1529 3.46501 31.9546 3.66326 31.8555L12.981 28.7826C13.3775 28.6835 13.8732 28.8817 13.9723 29.2782C14.0714 29.6747 13.8732 30.1704 13.4767 30.2695L6.14139 32.7476L15.7566 36.6135C16.1531 36.8118 16.3513 37.2083 16.1531 37.6048C16.1531 37.9021 15.8557 38.1004 15.4592 38.1004Z" fill="url(#paint1_linear_1_80)"/>
<path d="M26.8682 31.8298C25.6787 31.8298 24.4892 31.6316 23.2997 31.3342C19.2356 30.0456 15.568 27.8648 12.5942 24.7919C9.52131 21.8182 7.24143 18.1505 5.9528 14.0864C4.96154 10.3196 5.45717 7.14762 7.43968 5.06598C9.42218 2.98435 12.6933 2.48872 16.4601 3.5791C20.5242 4.86773 24.1919 7.04849 27.1656 10.1214C30.2385 13.0951 32.5184 16.7628 33.807 20.8269C34.7983 24.5937 34.3027 27.7657 32.3201 29.8473C30.8333 31.2351 28.8508 31.929 26.8682 31.8298ZM12.8916 4.47123C11.3056 4.47123 9.71956 4.96686 8.43093 6.15636C6.84492 7.74237 6.3493 10.5179 7.24143 13.6899C8.43093 17.5558 10.6117 21.0252 13.4863 23.8007C16.2618 26.6753 19.7312 28.8561 23.5971 30.0456C26.8682 30.9377 29.5446 30.5412 31.2298 28.8561C32.8158 27.2701 33.3114 24.4946 32.4193 21.3225C31.2298 17.4567 29.049 13.9873 26.1744 11.2118C23.3989 8.33712 19.9295 6.15636 16.0636 4.96686C15.0723 4.66948 13.9819 4.57036 12.8916 4.47123Z" fill="url(#paint2_linear_1_80)"/>
<path d="M28.851 30.343C24.4895 30.5412 18.7402 27.7657 14.1804 23.2059C9.62068 18.6462 6.74604 12.8969 7.04342 8.43625C7.04342 8.03975 6.64692 7.64325 6.25042 7.64325C5.95304 7.64325 5.55654 7.8415 5.45741 8.13888C2.48365 18.2497 8.23292 28.8561 18.3437 31.8298C20.0288 32.3255 21.8131 32.6228 23.4982 32.6228C25.3816 32.6228 27.265 32.3255 29.0493 31.8298C29.4458 31.7307 29.644 31.3342 29.5449 30.9377C29.644 30.5412 29.2475 30.2438 28.851 30.343Z" fill="url(#paint3_linear_1_80)"/>
<path d="M14.8653 23.2763C14.4688 23.2763 14.0723 22.9789 14.0723 22.4833C14.0723 22.2851 14.1714 22.0868 14.2705 21.8886L30.5271 5.632C30.8245 5.33462 31.3201 5.33462 31.6175 5.632C31.9149 5.92937 31.9149 6.42501 31.6175 6.72238L15.3609 22.9789C15.2618 23.1772 15.0636 23.2763 14.8653 23.2763Z" fill="url(#paint4_linear_1_80)"/>
<path d="M26.8586 32.1976C25.6691 32.1976 24.4796 31.9993 23.2901 31.7019C19.2259 30.4133 15.4592 28.1334 12.5845 25.0606C9.51163 22.0868 7.23177 18.32 5.94314 14.2559C4.95188 10.39 5.44751 7.21799 7.43002 5.13636C9.41252 3.05472 12.6836 2.5591 16.4504 3.64948C20.5145 4.93811 24.2813 7.21797 27.156 10.2909C30.2288 13.2646 32.5087 17.0314 33.7973 21.0955C34.7886 24.9614 34.293 28.1334 32.3105 30.2151C30.8236 31.5037 28.8411 32.2967 26.8586 32.1976ZM12.8819 4.5416C11.2959 4.44247 9.61078 5.03723 8.42127 6.12761C6.83526 7.81274 6.33963 10.4891 7.23175 13.7602C8.42126 17.6261 10.602 21.0955 13.4766 23.9702C16.2522 26.8448 19.7216 29.0256 23.5874 30.2151C26.8586 31.1072 29.535 30.7107 31.2201 29.0256C32.8061 27.3404 33.3017 24.664 32.4096 21.3929C31.2201 17.527 29.0393 14.0576 26.1647 11.183C23.3892 8.30837 19.9198 6.1276 16.0539 4.93809C15.0627 4.73984 13.9723 4.5416 12.8819 4.5416Z" fill="url(#paint5_linear_1_80)"/>
<path d="M23.5867 32.6931C13.0794 32.594 4.65371 23.9701 4.75283 13.4628C4.75283 11.6785 5.0502 9.9934 5.54582 8.30827C5.64495 7.91177 6.14058 7.71352 6.53708 7.81264C6.83445 7.91177 7.13184 8.20916 7.13184 8.60567C6.93359 13.0663 9.70911 18.7164 14.2689 23.2762C18.9278 27.9351 24.5779 30.6115 28.9394 30.4132C29.3359 30.4132 29.7324 30.6115 29.7324 31.008C29.8316 31.4045 29.5342 31.801 29.2368 31.9001C27.3534 32.3958 25.47 32.6931 23.5867 32.6931ZM6.23971 13.4628C6.23971 23.1771 14.0706 31.1071 23.7849 31.1071C15.6566 28.1333 9.21348 21.6902 6.23971 13.4628Z" fill="url(#paint6_linear_1_80)"/>
<path d="M14.8653 23.2763C14.4688 23.2763 14.0723 22.9789 14.0723 22.4833C14.0723 22.2851 14.1714 22.0868 14.2705 21.8886L30.5271 5.632C30.8245 5.33462 31.3201 5.33462 31.6175 5.632C31.9149 5.92937 31.9149 6.42501 31.6175 6.72238L15.3609 22.9789C15.2618 23.1772 15.0636 23.2763 14.8653 23.2763Z" fill="url(#paint7_linear_1_80)"/>
<path d="M32.0123 7.71361C30.7237 7.71361 29.7324 6.72234 29.7324 5.43371C29.7324 4.14508 30.7237 3.15384 32.0123 3.15384C33.3009 3.15384 34.2922 4.14508 34.2922 5.43371C34.2922 6.72234 33.3009 7.71361 32.0123 7.71361ZM32.0123 4.64072C31.6158 4.64072 31.2193 4.93808 31.2193 5.43371C31.2193 5.83021 31.5167 6.22673 32.0123 6.22673C32.4088 6.22673 32.8053 5.92934 32.8053 5.43371C32.7062 4.93808 32.4088 4.64072 32.0123 4.64072Z" fill="url(#paint8_linear_1_80)"/>
<path d="M15.4591 38.046H1.48249C1.08599 38.046 0.689468 37.7486 0.689468 37.253C0.689468 37.1539 0.689474 37.0547 0.7886 36.9556L7.03349 22.1859C7.23174 21.7894 7.62824 21.5912 8.02474 21.7894C8.42124 21.9877 8.61952 22.3842 8.42127 22.7807L2.67198 36.46H14.3688L11.5933 28.1334C11.4941 27.7369 11.6924 27.2413 12.0889 27.1422C12.4854 27.0431 12.981 27.2413 13.0801 27.6378L16.153 36.9556C16.2522 37.3521 16.0539 37.8477 15.6574 37.9469C15.6574 38.046 15.5583 38.046 15.4591 38.046Z" fill="url(#paint9_linear_1_80)"/>
<path d="M15.4591 38.0459C15.36 38.0459 15.2609 38.046 15.1618 37.9468L3.5641 33.2879C3.1676 33.0897 2.96935 32.6932 3.1676 32.2967C3.26673 32.0984 3.46498 31.9002 3.66323 31.8011L12.981 28.7282C13.3775 28.629 13.8731 28.8273 13.9723 29.2238C14.0714 29.6203 13.8731 30.1159 13.4766 30.2151L6.14137 32.6932L15.7565 36.5591C16.153 36.7573 16.3513 37.1538 16.153 37.5503C16.153 37.8477 15.8556 38.0459 15.4591 38.0459Z" fill="url(#paint10_linear_1_80)"/>
</g>
</g>
</g>
<defs>
<linearGradient id="paint0_linear_1_80" x1="8.53349" y1="21.7661" x2="8.53349" y2="38.1005" gradientUnits="userSpaceOnUse">
<stop stop-color="#0336E9"/>
<stop offset="1" stop-color="#1837A5"/>
</linearGradient>
<linearGradient id="paint1_linear_1_80" x1="9.66035" y1="28.7574" x2="9.66035" y2="38.1004" gradientUnits="userSpaceOnUse">
<stop stop-color="#0336E9"/>
<stop offset="1" stop-color="#1837A5"/>
</linearGradient>
<linearGradient id="paint2_linear_1_80" x1="19.8799" y1="3.01688" x2="19.8799" y2="31.8391" gradientUnits="userSpaceOnUse">
<stop stop-color="#0336E9"/>
<stop offset="1" stop-color="#1837A5"/>
</linearGradient>
<linearGradient id="paint3_linear_1_80" x1="17.1221" y1="7.64325" x2="17.1221" y2="32.6228" gradientUnits="userSpaceOnUse">
<stop stop-color="#0336E9"/>
<stop offset="1" stop-color="#1837A5"/>
</linearGradient>
<linearGradient id="paint4_linear_1_80" x1="22.9564" y1="5.40897" x2="22.9564" y2="23.2763" gradientUnits="userSpaceOnUse">
<stop stop-color="#0336E9"/>
<stop offset="1" stop-color="#1837A5"/>
</linearGradient>
<linearGradient id="paint5_linear_1_80" x1="19.8702" y1="3.08725" x2="19.8702" y2="32.2059" gradientUnits="userSpaceOnUse">
<stop stop-color="#0336E9"/>
<stop offset="1" stop-color="#1837A5"/>
</linearGradient>
<linearGradient id="paint6_linear_1_80" x1="17.2519" y1="7.78738" x2="17.2519" y2="32.6931" gradientUnits="userSpaceOnUse">
<stop stop-color="#0336E9"/>
<stop offset="1" stop-color="#1837A5"/>
</linearGradient>
<linearGradient id="paint7_linear_1_80" x1="22.9564" y1="5.40897" x2="22.9564" y2="23.2763" gradientUnits="userSpaceOnUse">
<stop stop-color="#0336E9"/>
<stop offset="1" stop-color="#1837A5"/>
</linearGradient>
<linearGradient id="paint8_linear_1_80" x1="32.0123" y1="3.15384" x2="32.0123" y2="7.71361" gradientUnits="userSpaceOnUse">
<stop stop-color="#0336E9"/>
<stop offset="1" stop-color="#1837A5"/>
</linearGradient>
<linearGradient id="paint9_linear_1_80" x1="8.43388" y1="21.7116" x2="8.43388" y2="38.046" gradientUnits="userSpaceOnUse">
<stop stop-color="#0336E9"/>
<stop offset="1" stop-color="#1837A5"/>
</linearGradient>
<linearGradient id="paint10_linear_1_80" x1="9.66032" y1="28.7029" x2="9.66032" y2="38.0459" gradientUnits="userSpaceOnUse">
<stop stop-color="#0336E9"/>
<stop offset="1" stop-color="#1837A5"/>
</linearGradient>
<clipPath id="clip0_1_80">
<rect width="34" height="40" fill="white" transform="translate(0.292969 0.529541)"/>
</clipPath>
<clipPath id="clip1_1_80">
<rect width="34" height="40" fill="white" transform="translate(0.292969 0.529541)"/>
</clipPath>
<clipPath id="clip2_1_80">
<rect width="34" height="39.6501" fill="white" transform="translate(0.292969 0.704468)"/>
</clipPath>
</defs>
</svg>
