<svg width="20" height="26" viewBox="0 0 35 41" fill="none" xmlns="http://www.w3.org/2000/svg">
<g clip-path="url(#clip0_1_157)">
<g clip-path="url(#clip1_1_157)">
<g clip-path="url(#clip2_1_157)">
<path d="M33.6128 21.6493H26.0478V9.74928C26.0478 9.57928 25.9628 9.40928 25.8778 9.23928L20.0978 3.45928C19.9278 3.37428 19.7578 3.28928 19.5878 3.28928H0.972847C0.547847 3.28928 0.292847 3.54428 0.292847 3.96928V17.3143C0.292847 17.6543 0.547847 17.9943 0.972847 17.9943C1.31285 17.9943 1.65285 17.7393 1.65285 17.3143V4.64928H18.9078V9.83428C18.9078 10.1743 19.1628 10.5143 19.5878 10.5143H24.7728V21.7343H7.09285C6.75285 21.7343 6.41285 21.9893 6.41285 22.4143V36.0993H1.65285V23.2643C1.65285 22.9243 1.39785 22.5843 0.972847 22.5843C0.632847 22.5843 0.292847 22.8393 0.292847 23.2643V36.6093C0.292847 37.0343 0.547847 37.2893 0.972847 37.2893H33.6128C33.9528 37.2893 34.2928 37.0343 34.2928 36.6093V22.2443C34.2928 21.9043 34.0378 21.6493 33.6128 21.6493ZM20.2678 9.06928V5.58428L23.8378 9.15428H20.2678V9.06928ZM32.9328 35.9293H7.77285V22.9243H33.0178V35.9293H32.9328Z" fill="url(#paint0_linear_1_157)"/>
<path d="M0.972847 20.9693C1.31285 20.9693 1.65285 20.7143 1.65285 20.2893C1.65285 19.9493 1.39785 19.6093 0.972847 19.6093C0.547847 19.6943 0.292847 19.9493 0.292847 20.2893C0.292847 20.6293 0.547847 20.9693 0.972847 20.9693Z" fill="url(#paint1_linear_1_157)"/>
<path d="M10.5783 32.1892C11.5983 32.1892 12.4483 33.0392 12.4483 34.0592C12.4483 34.3992 12.7033 34.7392 13.1283 34.7392H28.5133C28.8533 34.7392 29.1933 34.4842 29.1933 34.0592C29.1933 33.0392 30.0433 32.1892 31.0633 32.1892C31.4033 32.1892 31.7433 31.9342 31.7433 31.5092V27.9392C31.7433 27.5992 31.4883 27.2592 31.0633 27.2592C30.0433 27.2592 29.1933 26.4092 29.1933 25.3892C29.1933 25.0492 28.9383 24.7092 28.5133 24.7092H13.1283C12.7883 24.7092 12.4483 24.9642 12.4483 25.3892C12.4483 26.4092 11.5983 27.2592 10.5783 27.2592C10.2383 27.2592 9.89832 27.5142 9.89832 27.9392V31.5942C9.98332 31.9342 10.2383 32.1892 10.5783 32.1892ZM11.2583 28.4492C12.5333 28.1942 13.4683 27.2592 13.7233 25.9842H28.0033C28.2583 27.2592 29.1933 28.1942 30.4683 28.4492V30.9142C29.1933 31.1692 28.2583 32.1042 28.0033 33.3792H13.7233C13.4683 32.1042 12.5333 31.1692 11.2583 30.9142V28.4492Z" fill="url(#paint2_linear_1_157)"/>
<path d="M20.3535 31.9344C21.7135 31.9344 22.8185 30.8294 22.8185 29.4694C22.8185 28.1094 21.7135 27.0044 20.3535 27.0044C18.9935 27.0044 17.8885 28.1094 17.8885 29.4694C17.9735 30.8294 18.9935 31.9344 20.3535 31.9344ZM20.3535 28.3644C20.9485 28.3644 21.5435 28.8744 21.5435 29.5544C21.5435 30.2344 21.0335 30.7444 20.3535 30.7444C19.7585 30.7444 19.1635 30.2344 19.1635 29.5544C19.2485 28.8744 19.7585 28.3644 20.3535 28.3644Z" fill="url(#paint3_linear_1_157)"/>
<path d="M4.54316 18.6742H8.02816C8.36816 18.6742 8.70816 18.4192 8.70816 17.9942C8.70816 17.6542 8.45316 17.3142 8.02816 17.3142H4.54316C4.20316 17.3142 3.86316 17.5692 3.86316 17.9942C3.86316 18.4192 4.20316 18.6742 4.54316 18.6742Z" fill="url(#paint4_linear_1_157)"/>
<path d="M11.5975 17.9942C11.5975 18.3342 11.8525 18.6742 12.2775 18.6742H21.2875C21.6275 18.6742 21.9675 18.4192 21.9675 17.9942C21.9675 17.6542 21.7125 17.3142 21.2875 17.3142H12.1925C11.8525 17.3992 11.5975 17.6542 11.5975 17.9942Z" fill="url(#paint5_linear_1_157)"/>
<path d="M4.54316 10.1742H6.92316C7.26316 10.1742 7.60316 9.91918 7.60316 9.49418C7.60316 9.15418 7.34816 8.81418 6.92316 8.81418H4.54316C4.20316 8.81418 3.86316 9.06918 3.86316 9.49418C3.86316 9.83418 4.11816 10.1742 4.54316 10.1742Z" fill="url(#paint6_linear_1_157)"/>
<path d="M14.4882 10.1742C14.8282 10.1742 15.1682 9.91918 15.1682 9.49418C15.1682 9.15418 14.9132 8.81418 14.4882 8.81418H10.9182C10.5782 8.81418 10.2382 9.06918 10.2382 9.49418C10.2382 9.83418 10.4932 10.1742 10.9182 10.1742H14.4882Z" fill="url(#paint7_linear_1_157)"/>
<path d="M4.54316 14.4242H14.1482C14.4882 14.4242 14.8282 14.1692 14.8282 13.7442C14.8282 13.4042 14.5732 13.0642 14.1482 13.0642H4.54316C4.20316 13.0642 3.86316 13.3192 3.86316 13.7442C3.86316 14.0842 4.20316 14.4242 4.54316 14.4242Z" fill="url(#paint8_linear_1_157)"/>
<path d="M21.3736 14.4242C21.7136 14.4242 22.0536 14.1692 22.0536 13.7442C22.0536 13.4042 21.7986 13.0642 21.3736 13.0642H18.3986C18.0586 13.0642 17.7186 13.3192 17.7186 13.7442C17.7186 14.0842 17.9736 14.4242 18.3986 14.4242H21.3736Z" fill="url(#paint9_linear_1_157)"/>
</g>
</g>
</g>
<defs>
<linearGradient id="paint0_linear_1_157" x1="17.2928" y1="3.28928" x2="17.2928" y2="37.2893" gradientUnits="userSpaceOnUse">
<stop stop-color="#0336E9"/>
<stop offset="1" stop-color="#1837A5"/>
</linearGradient>
<linearGradient id="paint1_linear_1_157" x1="0.972847" y1="19.6093" x2="0.972847" y2="20.9693" gradientUnits="userSpaceOnUse">
<stop stop-color="#0336E9"/>
<stop offset="1" stop-color="#1837A5"/>
</linearGradient>
<linearGradient id="paint2_linear_1_157" x1="20.8208" y1="24.7092" x2="20.8208" y2="34.7392" gradientUnits="userSpaceOnUse">
<stop stop-color="#0336E9"/>
<stop offset="1" stop-color="#1837A5"/>
</linearGradient>
<linearGradient id="paint3_linear_1_157" x1="20.3535" y1="27.0044" x2="20.3535" y2="31.9344" gradientUnits="userSpaceOnUse">
<stop stop-color="#0336E9"/>
<stop offset="1" stop-color="#1837A5"/>
</linearGradient>
<linearGradient id="paint4_linear_1_157" x1="6.28566" y1="17.3142" x2="6.28566" y2="18.6742" gradientUnits="userSpaceOnUse">
<stop stop-color="#0336E9"/>
<stop offset="1" stop-color="#1837A5"/>
</linearGradient>
<linearGradient id="paint5_linear_1_157" x1="16.7825" y1="17.3142" x2="16.7825" y2="18.6742" gradientUnits="userSpaceOnUse">
<stop stop-color="#0336E9"/>
<stop offset="1" stop-color="#1837A5"/>
</linearGradient>
<linearGradient id="paint6_linear_1_157" x1="5.73316" y1="8.81418" x2="5.73316" y2="10.1742" gradientUnits="userSpaceOnUse">
<stop stop-color="#0336E9"/>
<stop offset="1" stop-color="#1837A5"/>
</linearGradient>
<linearGradient id="paint7_linear_1_157" x1="12.7032" y1="8.81418" x2="12.7032" y2="10.1742" gradientUnits="userSpaceOnUse">
<stop stop-color="#0336E9"/>
<stop offset="1" stop-color="#1837A5"/>
</linearGradient>
<linearGradient id="paint8_linear_1_157" x1="9.34566" y1="13.0642" x2="9.34566" y2="14.4242" gradientUnits="userSpaceOnUse">
<stop stop-color="#0336E9"/>
<stop offset="1" stop-color="#1837A5"/>
</linearGradient>
<linearGradient id="paint9_linear_1_157" x1="19.8861" y1="13.0642" x2="19.8861" y2="14.4242" gradientUnits="userSpaceOnUse">
<stop stop-color="#0336E9"/>
<stop offset="1" stop-color="#1837A5"/>
</linearGradient>
<clipPath id="clip0_1_157">
<rect width="34" height="40" fill="white" transform="translate(0.292847 0.289276)"/>
</clipPath>
<clipPath id="clip1_1_157">
<rect width="34" height="40" fill="white" transform="translate(0.292847 0.289276)"/>
</clipPath>
<clipPath id="clip2_1_157">
<rect width="34" height="34" fill="white" transform="translate(0.292847 3.28928)"/>
</clipPath>
</defs>
</svg>
