<svg width="20" height="26" viewBox="0 0 35 41" fill="none" xmlns="http://www.w3.org/2000/svg">
<g clip-path="url(#clip0_1_272)">
<path d="M33.3109 20.8785L32.44 21.5929H31.9967L32.0906 21.4417H22.5998H17.2182H4.25442L4.82804 20.3153H17.7918H23.1734H32.0906L31.9967 20.1641H32.44L33.3109 20.8785ZM18.8869 21.7911L17.5833 24.3515H19.351L20.6547 21.7911H18.8869ZM4.07712 21.7911L2.77344 24.3515H4.4943L5.24 22.8809H7.47712L8.03509 21.7911H4.07712ZM10.0375 21.765C9.50043 21.765 9.01025 22.0674 8.76516 22.542L7.83172 24.3776H8.94767L9.91761 22.4742H11.5968L11.4716 22.7193H10.0897L9.72988 23.4285H11.1118L10.6268 24.3776H11.7428L13.0725 21.7598H10.0375V21.765ZM12.7179 23.6944L12.3477 24.4193H15.7842C16.4099 24.4193 16.9158 23.9134 16.9158 23.2877C16.9158 22.98 16.6655 22.7297 16.3578 22.7297H14.3606L14.5066 22.4429H17.1556L17.5207 21.7285H14.7308C14.178 21.7285 13.5523 22.0205 13.2133 22.7297C13.0569 23.0426 13.2811 23.4128 13.6305 23.4128H15.7372L15.5912 23.6996H12.7179V23.6944ZM23.8357 23.4128L24.1851 22.7297H22.532C21.9949 22.7297 21.5047 23.0322 21.2596 23.5119L21.1553 23.7153C20.9937 24.0334 21.2231 24.4088 21.5829 24.4088H24.79L25.8382 22.3542C25.979 22.0727 25.7756 21.7389 25.4627 21.7389H22.313L21.9375 22.4794H24.6283L24.498 22.7297L24.0234 23.6684H22.313L22.4329 23.418H23.8357V23.4128ZM30.2029 21.7076C30.5053 21.7076 30.7035 22.0257 30.5627 22.2969L29.1443 25.0868C28.9201 25.53 28.4612 25.8116 27.9606 25.8116H12.9526L13.1351 26.0306H12.7753L12.0661 25.4466L12.7753 24.8625H13.1351L12.9526 25.0815H27.9866L28.3725 24.3254H26.2606C25.9477 24.3254 25.7443 23.9917 25.8851 23.7153L26.5891 22.3386C26.7872 21.9527 27.1836 21.7076 27.6216 21.7076H30.2029ZM29.3581 22.3907H27.6946L27.0793 23.6006H28.7428L29.3581 22.3907Z" fill="black"/>
<path d="M17.7025 20.2266L17.1289 21.3529H22.5105L23.0841 20.2266H17.7025Z" fill="#38AC49"/>
<path d="M4.73768 20.2266L4.16406 21.3529H17.1279L17.7015 20.2266H4.73768Z" fill="#E98824"/>
<path d="M32.35 20.0754H31.9067L32.0006 20.2267H23.0834L22.5098 21.353H32.0006L31.9067 21.5095H32.35L33.226 20.7899L32.35 20.0754Z" fill="#E98824"/>
<path d="M19.6473 21.1705C20.0854 20.9462 20.2939 21.1548 20.3409 21.2174L20.1844 21.3217C20.0176 21.1705 19.736 21.2539 19.6577 21.2852L19.6473 21.1705ZM19.6108 20.8524L19.6265 20.9984C20.2835 20.6647 20.5442 21.0036 20.5808 21.0558L20.7737 20.9306C20.6068 20.5864 19.9237 20.6438 19.6108 20.8524ZM19.5743 20.5291L19.59 20.6699C20.4139 20.3048 20.8311 20.4821 21.0136 20.7689L21.2117 20.6386C20.8571 20.0702 20.0019 20.2579 19.5743 20.5291Z" fill="white"/>
<path d="M19.5216 20.0753C20.4863 19.5173 21.4719 19.6477 21.7795 20.2526L21.5188 20.4247C21.2372 19.9032 20.3351 19.8041 19.5424 20.2891L19.5216 20.0753ZM19.459 19.5069L19.4903 19.8041C20.5384 19.2409 21.67 19.3087 22.0872 20.0492L22.4627 19.7989C22.1394 18.9124 20.3507 18.8968 19.459 19.5069Z" fill="#E98824"/>
<path d="M7.38752 22.7975H5.1504L4.4047 24.268H2.68384L3.98752 21.7076H7.94549L7.38752 22.7975ZM9.95316 21.6763C9.41605 21.6763 8.92586 21.9788 8.68077 22.4533L7.74733 24.2889H8.86329L9.83322 22.3855H11.5124L11.3872 22.6306H10.0001L9.64028 23.3398H11.0222L10.5424 24.2889H11.6584L12.9881 21.6711H9.95316V21.6763ZM17.0713 22.349L17.4363 21.6346H14.6464C14.0937 21.6346 13.4679 21.9266 13.1237 22.6358C12.9673 22.9487 13.1915 23.319 13.5409 23.319H15.6476L15.5016 23.6058H12.6283L12.2581 24.3306H15.6946C16.3203 24.3306 16.8262 23.8248 16.8262 23.199C16.8262 22.8913 16.5759 22.6358 16.2682 22.6358H14.271L14.417 22.349H17.0713Z" fill="#E98824"/>
<path d="M19.2667 24.2628H17.4989L18.8025 21.7024H20.5703L19.2667 24.2628ZM25.3731 21.6502H22.2234L21.8479 22.3907H24.544L24.4136 22.641L23.939 23.5797H22.2286L22.3486 23.3294H23.7565L24.1059 22.6462H22.4529C21.9157 22.6462 21.4256 22.9487 21.1805 23.4285L21.0762 23.6318C20.9145 23.9499 21.144 24.3254 21.5038 24.3254H24.7108L25.759 22.2708C25.8946 21.984 25.686 21.6502 25.3731 21.6502ZM30.1185 21.6242C30.4209 21.6242 30.6191 21.9423 30.4783 22.2134L29.0599 25.0033C28.8357 25.4466 28.3768 25.7281 27.8814 25.7281H12.863L13.0507 25.9472H12.6857L11.9765 25.3631L12.6857 24.7843H13.0507L12.863 25.0033H27.897L28.2829 24.2472H26.1709C25.8581 24.2472 25.6547 23.9134 25.7955 23.637L26.4995 22.2604C26.6976 21.8745 27.094 21.6294 27.532 21.6294H30.1185M29.2685 22.3073H27.605L26.9897 23.5171H28.6532L29.2685 22.3073Z" fill="#38AC49"/>
<path d="M24.3617 20.8785H23.3292C23.2927 20.8785 23.2666 20.842 23.2875 20.8055L23.3135 20.7533C23.3292 20.722 23.3605 20.7064 23.3918 20.7064H24.4243C24.4608 20.7064 24.4869 20.7429 24.466 20.7794L24.4399 20.8315C24.4295 20.8576 24.3982 20.8785 24.3617 20.8785ZM26.6927 20.8785C26.7292 20.8785 26.7605 20.8576 26.7709 20.8263L26.797 20.7742C26.8126 20.7429 26.7918 20.7012 26.7553 20.7012H25.7227C25.6862 20.7012 25.6549 20.722 25.6393 20.7481L25.6132 20.8003C25.5976 20.8315 25.6184 20.8733 25.655 20.8733H26.6927M29.0237 20.8785C29.0602 20.8785 29.0915 20.8576 29.1071 20.8263L29.1332 20.7742C29.1488 20.7429 29.128 20.7012 29.0915 20.7012H28.0589C28.0224 20.7012 27.9911 20.722 27.9755 20.7481L27.9494 20.8003C27.9338 20.8315 27.9546 20.8733 27.9911 20.8733H29.0237M31.3546 20.8785C31.3911 20.8785 31.4224 20.8576 31.4381 20.8263L31.4642 20.7742C31.4798 20.7429 31.4589 20.7012 31.4224 20.7012H30.3899C30.3534 20.7012 30.3221 20.722 30.3117 20.7481L30.2856 20.8003C30.27 20.8315 30.2908 20.8733 30.3273 20.8733H31.3546M16.3362 25.4257C16.3623 25.4257 16.3832 25.4101 16.3936 25.3892L16.4092 25.3527C16.4197 25.3318 16.404 25.3006 16.378 25.3006H15.6479C15.6218 25.3006 15.601 25.3162 15.5905 25.3371L15.5697 25.3736C15.5592 25.3944 15.5749 25.4257 15.601 25.4257H16.3362ZM19.8718 25.4257C19.8979 25.4257 19.9188 25.4101 19.9292 25.3892L19.9448 25.3527C19.9553 25.3318 19.9396 25.3006 19.9135 25.3006H19.1835C19.1574 25.3006 19.1365 25.3162 19.1261 25.3371L19.1053 25.3736C19.0948 25.3944 19.1105 25.4257 19.1365 25.4257H19.8718ZM23.4126 25.4257C23.4387 25.4257 23.4595 25.4101 23.47 25.3892L23.4856 25.3527C23.4961 25.3318 23.4804 25.3006 23.4543 25.3006H22.7243C22.6982 25.3006 22.6773 25.3162 22.6669 25.3371L22.6461 25.3736C22.6356 25.3944 22.6513 25.4257 22.6773 25.4257H23.4126ZM26.9482 25.4257C26.9743 25.4257 26.9951 25.4101 27.0056 25.3892L27.0212 25.3527C27.0316 25.3318 27.016 25.3006 26.9899 25.3006H26.2599C26.2338 25.3006 26.2129 25.3162 26.2025 25.3371L26.1816 25.3736C26.1712 25.3944 26.1869 25.4257 26.2129 25.4257H26.9482Z" fill="#EDC91A"/>
<path d="M2.02155 25.6447L2.31878 25.0607H2.84547L2.8194 25.1076H2.36572L2.25621 25.3162H2.66296L2.63688 25.3631H2.23013L2.1102 25.5926H2.57431L2.54823 25.6395H2.02155V25.6447ZM3.04363 25.4048C2.90283 25.4205 2.81418 25.4622 2.77768 25.53C2.76725 25.5508 2.76204 25.5665 2.76725 25.5821C2.76725 25.5978 2.77768 25.6082 2.78811 25.6186C2.79854 25.6291 2.8194 25.6343 2.84026 25.6395C2.86112 25.6447 2.88197 25.6447 2.90805 25.6447C2.94977 25.6447 2.99148 25.6395 3.0332 25.6291C3.07492 25.6186 3.11664 25.5978 3.15836 25.5769C3.15314 25.5821 3.15314 25.5926 3.14793 25.5978C3.14793 25.603 3.14793 25.6082 3.14793 25.6186C3.14793 25.6238 3.15314 25.6291 3.15836 25.6343C3.16357 25.6395 3.16878 25.6395 3.17921 25.6395C3.18964 25.6395 3.20007 25.6395 3.20529 25.6395C3.21572 25.6395 3.22615 25.6395 3.23658 25.6343C3.24701 25.6343 3.25744 25.6291 3.26265 25.6291L3.28351 25.5926C3.25222 25.5978 3.23136 25.603 3.22615 25.5978C3.22093 25.5926 3.22093 25.5821 3.23136 25.5613L3.34609 25.3318C3.35651 25.3057 3.36173 25.2849 3.36173 25.2692C3.36173 25.2536 3.3513 25.238 3.33566 25.2275C3.32001 25.2171 3.30437 25.2119 3.27829 25.2067C3.25743 25.2015 3.23136 25.2015 3.20007 25.2015C3.16878 25.2015 3.1375 25.2015 3.10621 25.2067C3.07492 25.2119 3.04885 25.2223 3.02277 25.2327C2.9967 25.2432 2.97063 25.2588 2.94977 25.2745C2.92891 25.2901 2.90805 25.311 2.8924 25.337H2.9602C2.97063 25.3162 2.98627 25.3058 3.00191 25.2901C3.01756 25.2797 3.0332 25.2692 3.05406 25.2588C3.06971 25.2536 3.09056 25.2484 3.11142 25.2432C3.13228 25.238 3.15314 25.238 3.17921 25.238C3.23136 25.238 3.26265 25.2484 3.27829 25.264C3.29394 25.2797 3.29394 25.3005 3.27829 25.3266C3.27308 25.3318 3.26786 25.3423 3.26265 25.3527C3.25744 25.3631 3.24701 25.3683 3.23136 25.3735C3.22093 25.3788 3.20007 25.3788 3.18443 25.384C3.16357 25.384 3.14793 25.3892 3.1375 25.3892L3.04363 25.4048ZM3.20529 25.4883C3.19486 25.5091 3.17921 25.53 3.15836 25.5404C3.1375 25.5561 3.11664 25.5665 3.09056 25.5769C3.06449 25.5873 3.03842 25.5926 3.01234 25.5978C2.98627 25.603 2.9602 25.603 2.92891 25.603C2.91326 25.603 2.89762 25.603 2.88719 25.5978C2.87155 25.5926 2.86112 25.5926 2.8559 25.5821C2.84547 25.5769 2.84026 25.5665 2.84026 25.5561C2.84026 25.5456 2.84026 25.5352 2.84547 25.5248C2.86112 25.4987 2.88719 25.4726 2.91848 25.4622C2.95498 25.4465 2.9967 25.4413 3.04885 25.4361C3.08013 25.4361 3.10621 25.4309 3.1375 25.4309C3.16878 25.4309 3.20007 25.4205 3.23136 25.4153L3.20529 25.4883ZM3.55989 25.5091C3.54946 25.53 3.54946 25.5456 3.54946 25.5665C3.54946 25.5821 3.55989 25.5978 3.57032 25.6134C3.58075 25.6291 3.60161 25.6343 3.62247 25.6447C3.64332 25.6499 3.67461 25.6551 3.7059 25.6551C3.73719 25.6551 3.77369 25.6551 3.80498 25.6499C3.83627 25.6447 3.86234 25.6395 3.88842 25.6291C3.91449 25.6186 3.93535 25.6082 3.95621 25.5926C3.97707 25.5769 3.99271 25.5613 4.00314 25.5404C4.01878 25.5143 4.01878 25.4935 4.00836 25.4778C3.99793 25.4622 3.98228 25.4518 3.95621 25.4413C3.93535 25.4309 3.90928 25.4257 3.87799 25.4205C3.8467 25.4153 3.82063 25.41 3.79977 25.4048C3.77369 25.3996 3.75805 25.3892 3.7424 25.3788C3.73197 25.3683 3.72676 25.3527 3.73719 25.337C3.74762 25.3162 3.76848 25.3005 3.79977 25.2849C3.83105 25.2692 3.86234 25.264 3.90406 25.264C3.94578 25.264 3.97707 25.2692 3.99793 25.2849C4.01878 25.3005 4.024 25.3214 4.01357 25.3527H4.08136C4.09701 25.3058 4.09179 25.2692 4.06572 25.2484C4.03964 25.2275 3.99271 25.2171 3.93013 25.2171C3.86756 25.2171 3.8102 25.2275 3.76326 25.2484C3.71633 25.2692 3.68504 25.3005 3.66418 25.337C3.64854 25.3631 3.64854 25.384 3.65897 25.3996C3.6694 25.4153 3.68504 25.4257 3.71112 25.4361C3.73197 25.4465 3.75805 25.4518 3.78934 25.457C3.82063 25.4622 3.8467 25.4674 3.87277 25.4726C3.89885 25.4778 3.91449 25.4883 3.93013 25.4935C3.94056 25.5039 3.94578 25.5196 3.93535 25.5404C3.93013 25.5508 3.92492 25.5613 3.90928 25.5717C3.89885 25.5821 3.88842 25.5873 3.87277 25.5978C3.85713 25.603 3.84148 25.6134 3.82063 25.6134C3.79977 25.6186 3.77891 25.6186 3.75283 25.6186C3.70069 25.6186 3.6694 25.6134 3.64854 25.5978C3.62768 25.5821 3.62247 25.5561 3.6329 25.5196H3.55989V25.5091ZM4.13872 25.8011C4.14915 25.8011 4.15437 25.8064 4.1648 25.8064C4.17523 25.8064 4.18566 25.8064 4.19609 25.8064C4.21694 25.8064 4.2378 25.8011 4.25866 25.7959C4.27952 25.7855 4.30038 25.7751 4.32124 25.7594C4.3421 25.7438 4.36296 25.7281 4.38903 25.7073C4.40989 25.6864 4.43596 25.6604 4.46204 25.6343L4.88443 25.2223H4.81142L4.44639 25.5821V25.2223H4.37339L4.3786 25.6447C4.36817 25.6551 4.35774 25.6656 4.3421 25.676C4.33167 25.6916 4.31602 25.7021 4.30559 25.7125C4.28995 25.7229 4.27431 25.7334 4.25866 25.7438C4.24302 25.7542 4.22737 25.7594 4.20651 25.7594C4.19609 25.7594 4.18566 25.7594 4.18044 25.7594C4.17001 25.7594 4.1648 25.7594 4.15437 25.7542L4.13872 25.8011ZM5.61449 25.603C5.60406 25.603 5.59363 25.6082 5.5832 25.6082C5.57277 25.6082 5.56234 25.6082 5.55713 25.6082C5.54148 25.6082 5.53105 25.6082 5.52584 25.603C5.52063 25.603 5.51541 25.5978 5.51541 25.5926C5.51541 25.5873 5.51541 25.5821 5.52063 25.5717C5.52584 25.5665 5.52584 25.5561 5.53105 25.5456L5.67707 25.2588H5.78658L5.80743 25.2171H5.70314L5.7605 25.1024H5.69271L5.63535 25.2171H5.55713L5.53627 25.2588H5.61449L5.45805 25.5665C5.4424 25.5978 5.43719 25.6186 5.45283 25.6343C5.46326 25.6447 5.48412 25.6499 5.52063 25.6499C5.53627 25.6499 5.55191 25.6499 5.56756 25.6447C5.5832 25.6395 5.59363 25.6395 5.60406 25.6395L5.61449 25.603ZM6.16204 25.6551C6.20375 25.6551 6.24026 25.6499 6.27676 25.6395C6.31326 25.6291 6.34977 25.6134 6.38105 25.5926C6.41234 25.5717 6.44363 25.5508 6.46971 25.5248C6.49578 25.4987 6.51664 25.4674 6.53228 25.4361C6.54793 25.4048 6.55836 25.3788 6.55836 25.3475C6.56357 25.3214 6.55835 25.2953 6.54271 25.2797C6.53228 25.2588 6.51142 25.2432 6.48535 25.2327C6.45928 25.2223 6.42277 25.2171 6.37584 25.2171C6.32891 25.2171 6.2924 25.2223 6.25069 25.2327C6.21418 25.2432 6.17768 25.2588 6.14118 25.2797C6.10989 25.3005 6.0786 25.3214 6.05774 25.3475C6.03167 25.3735 6.01081 25.4048 5.99516 25.4361C5.97431 25.4726 5.96909 25.5039 5.96909 25.53C5.96909 25.5561 5.97431 25.5821 5.98995 25.5978C6.00559 25.6186 6.02645 25.6291 6.05253 25.6395C6.09424 25.6499 6.12553 25.6551 6.16204 25.6551ZM6.46971 25.4309C6.45928 25.4518 6.44363 25.4778 6.42277 25.4987C6.40191 25.5196 6.38105 25.5404 6.3602 25.5561C6.33412 25.5717 6.30805 25.5873 6.28197 25.5978C6.25069 25.6082 6.2194 25.6134 6.1829 25.6134C6.15161 25.6134 6.12553 25.6082 6.10467 25.603C6.08382 25.5926 6.07339 25.5821 6.06296 25.5665C6.05253 25.5508 6.05253 25.53 6.05253 25.5091C6.05774 25.4883 6.06296 25.4622 6.0786 25.4361C6.08903 25.4153 6.10467 25.3892 6.12553 25.3683C6.14118 25.3475 6.16725 25.3266 6.18811 25.311C6.21418 25.2953 6.24026 25.2797 6.26633 25.2692C6.29762 25.2588 6.32891 25.2536 6.3602 25.2536C6.3967 25.2536 6.42277 25.2588 6.44363 25.2692C6.46449 25.2797 6.47492 25.2901 6.48535 25.3057C6.49056 25.3214 6.49578 25.3423 6.49056 25.3631C6.49056 25.384 6.48013 25.41 6.46971 25.4309ZM8.02891 25.2275C8.03934 25.1962 8.03934 25.1702 8.03412 25.1493C8.02891 25.1284 8.01848 25.1076 7.99762 25.0919C7.97676 25.0763 7.9559 25.0659 7.92461 25.0554C7.89332 25.045 7.85682 25.045 7.8151 25.045C7.76296 25.045 7.71081 25.0502 7.65866 25.0607C7.60651 25.0711 7.55958 25.0919 7.51265 25.1128C7.46572 25.1389 7.424 25.1702 7.3875 25.2067C7.35099 25.2432 7.31449 25.2901 7.28842 25.3475C7.26756 25.3892 7.25191 25.4257 7.2467 25.4622C7.24148 25.4987 7.24148 25.53 7.25713 25.5613C7.27277 25.5873 7.29363 25.6134 7.33013 25.6291C7.36664 25.6447 7.41357 25.6551 7.47615 25.6551C7.52829 25.6551 7.58044 25.6499 7.62216 25.6395C7.66909 25.6291 7.71081 25.6134 7.74731 25.5926C7.78382 25.5717 7.82032 25.5508 7.84639 25.5248C7.87768 25.4987 7.90375 25.4726 7.92461 25.4465H7.84639C7.82553 25.4674 7.80467 25.4935 7.7786 25.5091C7.75253 25.53 7.72645 25.5456 7.70038 25.5613C7.67431 25.5769 7.64302 25.5873 7.61173 25.5926C7.58044 25.603 7.54394 25.603 7.51265 25.603C7.4605 25.603 7.41878 25.5978 7.3875 25.5821C7.36142 25.5665 7.34056 25.5456 7.33013 25.5248C7.31971 25.4987 7.31971 25.4726 7.32492 25.4413C7.33013 25.41 7.34578 25.3788 7.36142 25.3475C7.37707 25.311 7.40314 25.2797 7.42921 25.2484C7.45529 25.2171 7.48658 25.191 7.52308 25.165C7.55958 25.1389 7.59609 25.1232 7.6378 25.1076C7.67952 25.0919 7.72645 25.0867 7.77339 25.0867C7.84118 25.0867 7.88811 25.0972 7.9194 25.118C7.95069 25.1389 7.96112 25.1754 7.95069 25.2223H8.02891V25.2275ZM8.24793 25.4361C8.25836 25.4153 8.274 25.3892 8.28964 25.3683C8.30529 25.3475 8.32615 25.3266 8.34701 25.311C8.36786 25.2953 8.39394 25.2849 8.42523 25.2745C8.45651 25.264 8.4878 25.2588 8.52431 25.264L8.55038 25.2119C8.50345 25.2119 8.46173 25.2171 8.42523 25.2327C8.38872 25.2484 8.35222 25.2692 8.32093 25.3005L8.36265 25.2223H8.29486L8.12277 25.6395H8.14363L8.24793 25.4361ZM9.124 25.4518C9.11357 25.4726 9.09793 25.4987 9.07707 25.5143C9.06142 25.5352 9.04056 25.5508 9.01449 25.5665C8.99363 25.5821 8.96756 25.5926 8.94148 25.5978C8.91541 25.603 8.88934 25.6082 8.86326 25.6082C8.81112 25.6082 8.77983 25.5978 8.76418 25.5769C8.75375 25.5561 8.75375 25.53 8.77461 25.4935L8.91541 25.2171H8.84762L8.70682 25.4935C8.69639 25.5143 8.68596 25.5352 8.68596 25.5561C8.68596 25.5769 8.68596 25.5926 8.69639 25.603C8.70682 25.6186 8.72247 25.6291 8.74332 25.6343C8.76418 25.6447 8.79547 25.6447 8.83197 25.6447C8.85805 25.6447 8.87891 25.6447 8.89977 25.6395C8.92062 25.6343 8.94148 25.6291 8.95713 25.6238C8.97277 25.6186 8.99363 25.6082 9.00928 25.603C9.02492 25.5926 9.04056 25.5873 9.05099 25.5821L9.0197 25.6395H9.0875L9.3013 25.2223H9.23872L9.124 25.4518ZM9.79148 25.1337L9.82799 25.0607H9.75498L9.71848 25.1337H9.79148ZM9.52553 25.6447L9.73934 25.2275H9.67155L9.45774 25.6447H9.52553ZM9.84363 25.5091C9.8332 25.53 9.8332 25.5456 9.8332 25.5665C9.8332 25.5821 9.83842 25.5978 9.85406 25.6134C9.86449 25.6291 9.88535 25.6343 9.90621 25.6447C9.92707 25.6499 9.95836 25.6551 9.98964 25.6551C10.0261 25.6551 10.0574 25.6551 10.0887 25.6499C10.12 25.6447 10.1461 25.6395 10.1722 25.6291C10.1982 25.6186 10.2191 25.6082 10.24 25.5926C10.2608 25.5769 10.2765 25.5613 10.2869 25.5404C10.3025 25.5143 10.3025 25.4935 10.2921 25.4778C10.2817 25.4622 10.266 25.4518 10.2452 25.4413C10.2243 25.4309 10.1982 25.4257 10.1669 25.4205C10.1357 25.4153 10.1096 25.41 10.0887 25.4048C10.0626 25.3996 10.047 25.3892 10.0314 25.3788C10.0209 25.3683 10.0157 25.3527 10.0261 25.337C10.0366 25.3162 10.0574 25.3005 10.0887 25.2849C10.12 25.2692 10.1513 25.264 10.193 25.264C10.2347 25.264 10.266 25.2692 10.2869 25.2849C10.3077 25.3005 10.313 25.3214 10.3025 25.3527H10.3703C10.386 25.3058 10.3807 25.2692 10.3547 25.2484C10.3286 25.2275 10.2817 25.2171 10.2191 25.2171C10.1565 25.2171 10.0992 25.2275 10.0522 25.2484C10.0053 25.2692 9.974 25.3005 9.95314 25.337C9.9375 25.3631 9.9375 25.384 9.94793 25.3996C9.95836 25.4153 9.974 25.4257 10.0001 25.4361C10.0209 25.4465 10.047 25.4518 10.0783 25.457C10.1096 25.4622 10.1357 25.4674 10.1617 25.4726C10.1878 25.4778 10.2034 25.4883 10.2191 25.4935C10.2295 25.5039 10.2347 25.5196 10.2243 25.5404C10.2191 25.5508 10.2087 25.5613 10.1982 25.5717C10.1878 25.5821 10.1774 25.5873 10.1617 25.5978C10.1461 25.603 10.1304 25.6134 10.1096 25.6134C10.0887 25.6186 10.0679 25.6186 10.0418 25.6186C9.98964 25.6186 9.95836 25.6134 9.9375 25.5978C9.91664 25.5821 9.91142 25.5561 9.92185 25.5196H9.84363V25.5091ZM11.0952 25.4465C11.1369 25.3735 11.1421 25.3162 11.116 25.2745C11.0899 25.2327 11.0378 25.2171 10.9596 25.2171C10.9179 25.2171 10.8761 25.2223 10.8396 25.2327C10.8031 25.2432 10.7666 25.2588 10.7353 25.2797C10.7041 25.3005 10.6728 25.3214 10.6467 25.3527C10.6206 25.3788 10.5998 25.41 10.5841 25.4413C10.5685 25.4726 10.558 25.4987 10.5528 25.53C10.5476 25.5561 10.5528 25.5821 10.5633 25.5978C10.5737 25.6186 10.5946 25.6343 10.6206 25.6447C10.6467 25.6551 10.6832 25.6604 10.7301 25.6604C10.7666 25.6604 10.7979 25.6551 10.8292 25.6499C10.8605 25.6447 10.8866 25.6343 10.9127 25.6186C10.9387 25.6082 10.9648 25.5926 10.9857 25.5769C11.0065 25.5613 11.0274 25.5404 11.0482 25.5196H10.9752C10.9492 25.5508 10.9179 25.5717 10.8761 25.5926C10.8344 25.6082 10.7927 25.6186 10.751 25.6186C10.7197 25.6186 10.6936 25.6134 10.6728 25.603C10.6519 25.5926 10.6415 25.5821 10.6311 25.5665C10.6206 25.5508 10.6206 25.5352 10.6206 25.5143C10.6206 25.4935 10.6311 25.4726 10.6415 25.4518H11.0952V25.4465ZM10.6728 25.4048C10.6884 25.384 10.7041 25.3683 10.7197 25.3475C10.7406 25.3318 10.7614 25.3162 10.7823 25.3005C10.8031 25.2849 10.8292 25.2745 10.8553 25.2692C10.8814 25.2588 10.9074 25.2588 10.9387 25.2588C10.97 25.2588 10.9909 25.264 11.0117 25.2692C11.0326 25.2745 11.043 25.2901 11.0534 25.3005C11.0639 25.3162 11.0639 25.3318 11.0639 25.3475C11.0639 25.3631 11.0534 25.384 11.043 25.4048H10.6728Z" fill="black"/>
<path d="M28.3032 13.5779L29.1219 15.2049L27.4062 16.8214L28.3032 13.5779Z" fill="#008C44"/>
<path d="M27.7361 13.5779L28.5496 15.2049L26.834 16.8214L27.7361 13.5779Z" fill="#F47920"/>
<path d="M12.9363 16.8579L10.3342 14.7302L9.75014 16.8474H9.10352L10.0057 13.5882L12.6078 15.7106L13.1971 13.583H13.8437L12.9363 16.8579ZM26.3538 16.2008H23.1103L23.6578 14.2192H26.9014L26.9848 13.9115C27.0109 13.8177 27.0005 13.7394 26.9587 13.6769C26.9118 13.6143 26.844 13.583 26.7501 13.583H23.5066C23.4179 13.583 23.3293 13.6143 23.2511 13.6769C23.1728 13.7394 23.1207 13.8177 23.0946 13.9115L22.375 16.5137C22.3489 16.6075 22.3593 16.6806 22.4011 16.7431C22.448 16.8057 22.5158 16.837 22.6044 16.837H25.848C25.9366 16.837 26.0253 16.8057 26.1035 16.7431C26.1817 16.6806 26.2391 16.6023 26.26 16.5137L26.3538 16.2008ZM18.7403 13.583L18.563 14.214H20.2004L19.4756 16.8318H20.1222L20.8471 14.214H22.4428H22.448L22.6201 13.583H18.7403ZM17.8903 13.583H14.6468C14.6259 13.583 14.6103 13.583 14.5946 13.5882C14.5216 13.5987 14.459 13.6299 14.3912 13.6821C14.313 13.7447 14.2609 13.8229 14.2348 13.9167L13.5152 16.5189C13.4891 16.6128 13.4995 16.6858 13.5412 16.7483C13.5882 16.8109 13.656 16.8422 13.7446 16.8422H14.0679H16.6701H16.9882C17.0768 16.8422 17.1655 16.8109 17.2437 16.7483C17.3219 16.6858 17.3793 16.6075 17.4001 16.5189L17.4888 16.206H16.8474H14.2504L14.433 15.5385H17.0299L17.2072 14.9023H14.6103L14.798 14.2244H17.3949H18.0363L18.125 13.9167C18.1511 13.8229 18.1406 13.7447 18.0989 13.6821C18.052 13.6143 17.9842 13.583 17.8903 13.583Z" fill="#6D6E71"/>
<path d="M8.8418 17.807L9.00867 17.2178L9.29548 17.6402L9.40499 17.2543H9.48842L9.32155 17.8383L9.03474 17.4211L8.92523 17.807H8.8418ZM9.97861 17.807H10.0725L9.97339 17.2178L9.53014 17.807H9.61879L9.71787 17.6715H9.95253L9.97861 17.807ZM9.77523 17.5932L9.91603 17.4055L9.9421 17.5932H9.77523ZM10.6513 17.3325L10.6722 17.2543H10.3332L10.3123 17.3325H10.4375L10.3071 17.807H10.3906L10.5209 17.3325H10.6513ZM10.8755 17.2543L10.7191 17.807H10.8077L10.9642 17.2543H10.8755ZM11.1206 17.5254C11.0946 17.6141 11.105 17.6871 11.1571 17.7392C11.1989 17.7914 11.2562 17.8123 11.3292 17.8123C11.4127 17.8123 11.4857 17.7862 11.5587 17.7288C11.6317 17.6715 11.6786 17.6089 11.6995 17.5254C11.7203 17.4472 11.7151 17.3794 11.6734 17.3221C11.6317 17.2647 11.5743 17.2386 11.4961 17.2386C11.4179 17.2386 11.3396 17.2647 11.2666 17.3221C11.1884 17.3794 11.1415 17.4472 11.1206 17.5254ZM11.2041 17.5254C11.2197 17.4681 11.2562 17.4211 11.3031 17.3794C11.3553 17.3377 11.4074 17.3169 11.4648 17.3169C11.5222 17.3169 11.5639 17.3377 11.5952 17.3794C11.6212 17.4211 11.6317 17.4681 11.6108 17.5254C11.5952 17.5828 11.5587 17.635 11.5117 17.6715C11.4596 17.7132 11.4074 17.7288 11.3501 17.7288C11.2979 17.7288 11.2562 17.708 11.2249 17.6715C11.1936 17.6402 11.1884 17.588 11.2041 17.5254ZM11.9393 17.807L12.0489 17.4211L12.3357 17.8383L12.4973 17.2543H12.4139L12.3044 17.6402L12.0176 17.2178L11.8559 17.807H11.9393ZM12.9927 17.807H13.0866L12.9875 17.2178L12.5495 17.807H12.6381L12.7372 17.6715H12.9719L12.9927 17.807ZM12.7946 17.5932L12.9354 17.4055L12.9666 17.5932H12.7946ZM13.4412 17.2543L13.2847 17.807H13.5298L13.5507 17.7288H13.389L13.5194 17.2543H13.4412ZM14.5571 17.2543H14.2547L14.0982 17.807H14.4059L14.4268 17.7288H14.2077L14.2599 17.5463H14.4737L14.4946 17.4681H14.2808L14.3173 17.3377H14.5363L14.5571 17.2543ZM14.797 17.2543L14.6406 17.807H14.8857L14.9065 17.7288H14.7449L14.8804 17.2543H14.797ZM15.5584 17.2543H15.2559L15.0995 17.807H15.4019L15.4228 17.7288H15.2038L15.2559 17.5463H15.4697L15.4906 17.4681H15.2768L15.3133 17.3377H15.5323L15.5584 17.2543ZM16.1998 17.2803C16.1581 17.2543 16.1163 17.2386 16.0694 17.2386C15.9808 17.2386 15.8973 17.2699 15.8191 17.3377C15.7565 17.3951 15.7148 17.4577 15.6939 17.5254C15.6731 17.6037 15.6835 17.6715 15.72 17.7288C15.7617 17.7862 15.8191 17.8123 15.8973 17.8123C15.9495 17.8123 16.0016 17.7966 16.059 17.7705L16.0903 17.6715C16.0746 17.6819 16.059 17.6923 16.0433 17.7027C16.0277 17.7132 16.0173 17.7184 16.0016 17.7236C15.9755 17.734 15.9495 17.7392 15.9234 17.7392C15.866 17.7392 15.8243 17.7184 15.7982 17.6819C15.7722 17.6402 15.7669 17.5932 15.7826 17.5359C15.7982 17.4785 15.8295 17.4264 15.8817 17.3899C15.9338 17.3481 15.986 17.3273 16.0433 17.3273C16.0955 17.3273 16.1372 17.3481 16.1737 17.3899L16.1998 17.2803ZM16.7004 17.3325L16.7212 17.2543H16.3875L16.3666 17.3325H16.4918L16.3614 17.807H16.4449L16.5752 17.3325H16.7004ZM17.0289 17.5672C17.0654 17.5619 17.1019 17.5411 17.1332 17.515C17.1645 17.4889 17.1854 17.4524 17.1958 17.4159C17.2114 17.3638 17.201 17.3273 17.1749 17.296C17.1489 17.2699 17.1019 17.2543 17.0289 17.2543H16.9298L16.7734 17.807H16.8568L16.9194 17.5828H16.935L17.0289 17.807H17.1332L17.0289 17.5672ZM16.9924 17.3325H17.0237C17.1019 17.3325 17.1332 17.3586 17.1123 17.4159C17.0967 17.4785 17.0498 17.5046 16.9663 17.5046H16.9403L16.9924 17.3325ZM17.3835 17.5254C17.3574 17.6141 17.3679 17.6871 17.4148 17.7392C17.4565 17.7914 17.5139 17.8123 17.5869 17.8123C17.6651 17.8123 17.7433 17.7862 17.8163 17.7288C17.8893 17.6715 17.9363 17.6089 17.9571 17.5254C17.978 17.4472 17.9728 17.3794 17.9311 17.3221C17.8893 17.2647 17.832 17.2386 17.7538 17.2386C17.6755 17.2386 17.5973 17.2647 17.5243 17.3221C17.4565 17.3794 17.4096 17.4472 17.3835 17.5254ZM17.467 17.5254C17.4826 17.4681 17.5191 17.4211 17.566 17.3794C17.6182 17.3377 17.6703 17.3169 17.7277 17.3169C17.785 17.3169 17.8268 17.3377 17.8581 17.3794C17.8841 17.4211 17.8893 17.4681 17.8737 17.5254C17.8581 17.5828 17.8216 17.635 17.7746 17.6715C17.7225 17.7132 17.6703 17.7288 17.613 17.7288C17.5608 17.7288 17.5191 17.708 17.4878 17.6715C17.4565 17.6402 17.4513 17.588 17.467 17.5254ZM18.2022 17.807L18.3117 17.4211L18.5985 17.8383L18.7602 17.2543H18.6768L18.5673 17.6402L18.2804 17.2178L18.1136 17.807H18.2022ZM19.0262 17.2543L18.8697 17.807H18.9531L19.1096 17.2543H19.0262ZM19.7719 17.2803C19.7354 17.2543 19.6884 17.2386 19.6363 17.2386C19.5476 17.2386 19.4642 17.2699 19.386 17.3377C19.3234 17.3951 19.2817 17.4577 19.266 17.5254C19.2452 17.6037 19.2556 17.6715 19.2921 17.7288C19.3338 17.7862 19.3912 17.8123 19.4694 17.8123C19.5216 17.8123 19.5737 17.7966 19.6311 17.7705L19.6623 17.6715C19.6467 17.6819 19.6311 17.6923 19.6154 17.7027C19.5998 17.7132 19.5893 17.7184 19.5737 17.7236C19.5528 17.734 19.5268 17.7392 19.4955 17.7392C19.4381 17.7392 19.3964 17.7184 19.3703 17.6819C19.3443 17.6402 19.339 17.5932 19.3547 17.5359C19.3703 17.4785 19.4068 17.4264 19.4538 17.3899C19.5059 17.3481 19.5581 17.3273 19.6154 17.3273C19.6676 17.3273 19.7093 17.3481 19.7458 17.3899L19.7719 17.2803ZM20.6323 17.3325L20.6531 17.2543H20.3194L20.2985 17.3325H20.4237L20.2933 17.807H20.3768L20.5071 17.3325H20.6323ZM20.7366 17.5254C20.7105 17.6141 20.7209 17.6871 20.7679 17.7392C20.8096 17.7914 20.867 17.8123 20.94 17.8123C21.0182 17.8123 21.0964 17.7862 21.1694 17.7288C21.2424 17.6715 21.2893 17.6089 21.3102 17.5254C21.3311 17.4472 21.3206 17.3794 21.2841 17.3221C21.2424 17.2647 21.185 17.2386 21.1068 17.2386C21.0286 17.2386 20.9504 17.2647 20.8774 17.3221C20.8096 17.3794 20.7627 17.4472 20.7366 17.5254ZM20.82 17.5254C20.8357 17.4681 20.8722 17.4211 20.9191 17.3794C20.9712 17.3377 21.0234 17.3169 21.0808 17.3169C21.1381 17.3169 21.185 17.3377 21.2111 17.3794C21.2372 17.4211 21.2424 17.4681 21.2268 17.5254C21.2111 17.5828 21.1746 17.635 21.1277 17.6715C21.0755 17.7132 21.0234 17.7288 20.966 17.7288C20.9139 17.7288 20.8722 17.708 20.8409 17.6715C20.8096 17.6402 20.8044 17.588 20.82 17.5254ZM21.6283 17.2543L21.4719 17.807H21.717L21.7378 17.7288H21.5762L21.7065 17.2543H21.6283ZM22.082 17.2543L21.9308 17.807H22.1758L22.1967 17.7288H22.035L22.1654 17.2543H22.082ZM23.297 17.2803C23.2553 17.2543 23.2136 17.2386 23.1666 17.2386C23.078 17.2386 22.9946 17.2699 22.9163 17.3377C22.8538 17.3951 22.812 17.4577 22.7964 17.5254C22.7755 17.6037 22.786 17.6715 22.8225 17.7288C22.8642 17.7862 22.9216 17.8123 22.9998 17.8123C23.0519 17.8123 23.1041 17.7966 23.1614 17.7705L23.1875 17.6715C23.1719 17.6819 23.1562 17.6923 23.1406 17.7027C23.1249 17.7132 23.1145 17.7184 23.0989 17.7236C23.078 17.734 23.0519 17.7392 23.0206 17.7392C22.9633 17.7392 22.9216 17.7184 22.8955 17.6819C22.8694 17.6402 22.859 17.5932 22.8798 17.5359C22.8955 17.4785 22.932 17.4264 22.9789 17.3899C23.0311 17.3481 23.0832 17.3273 23.1406 17.3273C23.1927 17.3273 23.2344 17.3481 23.2709 17.3899L23.297 17.2803ZM23.4326 17.5254C23.4065 17.6141 23.417 17.6871 23.4639 17.7392C23.5056 17.7914 23.563 17.8123 23.636 17.8123C23.7194 17.8123 23.7924 17.7862 23.8654 17.7288C23.9384 17.6715 23.9854 17.6089 24.0062 17.5254C24.0271 17.4472 24.0219 17.3794 23.9801 17.3221C23.9384 17.2647 23.8811 17.2386 23.8028 17.2386C23.7246 17.2386 23.6464 17.2647 23.5734 17.3221C23.5056 17.3794 23.4587 17.4472 23.4326 17.5254ZM23.5212 17.5254C23.5369 17.4681 23.5734 17.4211 23.6203 17.3794C23.6725 17.3377 23.7246 17.3169 23.782 17.3169C23.8393 17.3169 23.8811 17.3377 23.9123 17.3794C23.9384 17.4211 23.9489 17.4681 23.928 17.5254C23.9123 17.5828 23.8758 17.635 23.8237 17.6715C23.7716 17.7132 23.7194 17.7288 23.662 17.7288C23.6099 17.7288 23.5682 17.708 23.5369 17.6715C23.5108 17.6402 23.5004 17.588 23.5212 17.5254ZM24.3243 17.2543L24.1679 17.807H24.413L24.4338 17.7288H24.2722L24.4025 17.2543H24.3243ZM24.7832 17.2543L24.6268 17.807H24.8719L24.8927 17.7288H24.7311L24.8614 17.2543H24.7832ZM25.5446 17.2543H25.2421L25.0857 17.807H25.3933L25.4142 17.7288H25.19L25.2421 17.5463H25.4559L25.4768 17.4681H25.263L25.2995 17.3377H25.5185L25.5446 17.2543ZM26.1808 17.2803C26.139 17.2543 26.0973 17.2386 26.0504 17.2386C25.9617 17.2386 25.8783 17.2699 25.8001 17.3377C25.7375 17.3951 25.6958 17.4577 25.6801 17.5254C25.6593 17.6037 25.6697 17.6715 25.7062 17.7288C25.7479 17.7862 25.8053 17.8123 25.8835 17.8123C25.9357 17.8123 25.9878 17.7966 26.0452 17.7705L26.0765 17.6715C26.0608 17.6819 26.0452 17.6923 26.0295 17.7027C26.0139 17.7132 26.0035 17.7184 25.9878 17.7236C25.9617 17.734 25.9357 17.7392 25.9096 17.7392C25.8522 17.7392 25.8105 17.7184 25.7844 17.6819C25.7584 17.6402 25.7479 17.5932 25.7688 17.5359C25.7844 17.4785 25.8209 17.4264 25.8679 17.3899C25.92 17.3481 25.9722 17.3273 26.0295 17.3273C26.0817 17.3273 26.1234 17.3481 26.1599 17.3899L26.1808 17.2803ZM26.6866 17.3325L26.7074 17.2543H26.3737L26.3528 17.3325H26.478L26.3476 17.807H26.4311L26.5614 17.3325H26.6866ZM26.9108 17.2543L26.7544 17.807H26.8378L26.9943 17.2543H26.9108ZM27.1559 17.5254C27.1298 17.6141 27.1403 17.6871 27.1872 17.7392C27.2289 17.7914 27.2863 17.8123 27.3593 17.8123C27.4375 17.8123 27.5157 17.7862 27.5887 17.7288C27.6617 17.6715 27.7087 17.6089 27.7295 17.5254C27.7504 17.4472 27.74 17.3794 27.7035 17.3221C27.6617 17.2647 27.6044 17.2386 27.5262 17.2386C27.4479 17.2386 27.3697 17.2647 27.2967 17.3221C27.2237 17.3794 27.1768 17.4472 27.1559 17.5254ZM27.2393 17.5254C27.255 17.4681 27.2863 17.4211 27.3384 17.3794C27.3906 17.3377 27.4427 17.3169 27.5001 17.3169C27.5574 17.3169 27.5992 17.3377 27.6304 17.3794C27.6565 17.4211 27.667 17.4681 27.6461 17.5254C27.6304 17.5828 27.5939 17.635 27.5418 17.6715C27.4897 17.7132 27.4375 17.7288 27.3801 17.7288C27.328 17.7288 27.2863 17.708 27.255 17.6715C27.2289 17.6402 27.2237 17.588 27.2393 17.5254ZM27.9746 17.807L28.0841 17.4211L28.3709 17.8383L28.5378 17.2543H28.4544L28.3449 17.6402L28.0581 17.2178L27.8912 17.807H27.9746Z" fill="#6D6E71"/>
</g>
<defs>
<clipPath id="clip0_1_272">
<rect width="34" height="40" fill="white" transform="translate(0.900391 0.0493164)"/>
</clipPath>
</defs>
</svg>
