<svg width="20" height="26" viewBox="0 0 35 41" fill="none" xmlns="http://www.w3.org/2000/svg">
<g clip-path="url(#clip0_1_105)">
<g clip-path="url(#clip1_1_105)">
<g clip-path="url(#clip2_1_105)">
<path d="M33.5532 27.5046H26.7532V24.1046H33.5532C33.6996 24.0989 33.8382 24.0367 33.9398 23.9311C34.0414 23.8255 34.0982 23.6846 34.0982 23.538C34.0982 23.3915 34.0414 23.2506 33.9398 23.145C33.8382 23.0394 33.6996 22.9772 33.5532 22.9715H26.7532V21.2715C26.7578 21.1959 26.7463 21.1203 26.7194 21.0495C26.6926 20.9787 26.6511 20.9143 26.5976 20.8608C26.5441 20.8072 26.4798 20.7656 26.4091 20.7386C26.3383 20.7117 26.2627 20.7001 26.1871 20.7046H21.0301V17.8996C22.6097 17.2566 23.9173 16.0854 24.7297 14.5858C25.5421 13.0863 25.809 11.3513 25.4848 9.67691C25.1606 8.00253 24.2655 6.49251 22.9521 5.40452C21.6388 4.31653 19.9886 3.71798 18.2831 3.711C16.5777 3.70402 14.9226 4.28905 13.6004 5.36626C12.2782 6.44348 11.3707 7.94612 11.0329 9.61779C10.695 11.2895 10.9477 13.0266 11.7478 14.5327C12.5479 16.0389 13.8458 17.2207 15.4201 17.8766V20.7046H10.3201C10.2445 20.7 10.1687 20.7115 10.0978 20.7384C10.027 20.7652 9.96263 20.8068 9.90904 20.8604C9.85544 20.914 9.81384 20.9784 9.78697 21.0492C9.7601 21.1201 9.74858 21.1959 9.75317 21.2715V22.9877C7.16686 23.1232 4.72978 24.2407 2.93952 26.1122C1.14926 27.9836 0.140832 30.4678 0.120124 33.0576V37.1376C0.115534 37.2133 0.127053 37.289 0.153922 37.3599C0.18079 37.4308 0.222395 37.4951 0.275985 37.5487C0.329575 37.6023 0.393931 37.6439 0.464797 37.6708C0.535663 37.6976 0.611425 37.7092 0.687074 37.7046C0.762723 37.7092 0.838485 37.6976 0.909351 37.6708C0.980217 37.6439 1.04457 37.6023 1.09816 37.5487C1.15175 37.4951 1.19336 37.4308 1.22023 37.3599C1.24709 37.289 1.25861 37.2133 1.25402 37.1376V33.0576C1.27231 30.766 2.16009 28.5669 3.73786 26.9049C5.31562 25.2428 7.46564 24.2419 9.75317 24.1046V27.3915C8.35804 27.5512 7.06943 28.2155 6.13007 29.2593C5.19071 30.303 4.66543 31.6543 4.65317 33.0585V37.1385C4.64871 37.214 4.66032 37.2897 4.68725 37.3605C4.71417 37.4312 4.75579 37.4955 4.80937 37.549C4.86295 37.6025 4.92726 37.644 4.99806 37.6708C5.06887 37.6976 5.14455 37.7091 5.22012 37.7046C5.29577 37.7092 5.37154 37.6976 5.4424 37.6708C5.51327 37.6439 5.57762 37.6023 5.63121 37.5487C5.6848 37.4951 5.72641 37.4308 5.75328 37.3599C5.78014 37.289 5.79166 37.2133 5.78707 37.1376V33.0576C5.7906 31.9545 6.19489 30.8903 6.92467 30.0631C7.65445 29.2359 8.65997 28.7021 9.75402 28.5611V30.3376C9.74945 30.4132 9.76094 30.4889 9.78776 30.5597C9.81458 30.6305 9.85611 30.6948 9.9096 30.7484C9.9631 30.8019 10.0274 30.8436 10.0981 30.8705C10.1689 30.8974 10.2445 30.909 10.3201 30.9046H26.1862C26.2619 30.9092 26.3376 30.8976 26.4085 30.8708C26.4794 30.8439 26.5437 30.8023 26.5973 30.7487C26.6509 30.6951 26.6925 30.6308 26.7194 30.5599C26.7462 30.489 26.7578 30.4133 26.7532 30.3376V28.6376H33.5532C33.6996 28.6319 33.8382 28.5698 33.9398 28.4642C34.0414 28.3585 34.0982 28.2177 34.0982 28.0711C34.0982 27.9245 34.0414 27.7837 33.9398 27.678C33.8382 27.5724 33.6996 27.5102 33.5532 27.5046ZM12.0465 11.6376H12.5871C12.7335 11.6319 12.8721 11.5698 12.9737 11.4642C13.0753 11.3585 13.1321 11.2177 13.1321 11.0711C13.1321 10.9245 13.0753 10.7837 12.9737 10.678C12.8721 10.5724 12.7335 10.5102 12.5871 10.5046H12.0465C12.1838 9.05504 12.8221 7.69873 13.8517 6.66918C14.8812 5.63962 16.2375 5.00125 17.6871 4.86397V5.40457C17.6841 5.48081 17.6966 5.55687 17.7237 5.62818C17.7509 5.69949 17.7921 5.76459 17.845 5.81958C17.8979 5.87456 17.9614 5.91831 18.0316 5.94819C18.1018 5.97807 18.1773 5.99347 18.2536 5.99347C18.3299 5.99347 18.4054 5.97807 18.4756 5.94819C18.5458 5.91831 18.6093 5.87456 18.6622 5.81958C18.7151 5.76459 18.7563 5.69949 18.7835 5.62818C18.8106 5.55687 18.8231 5.48081 18.8201 5.40457V4.86312C20.2731 4.99143 21.6346 5.62703 22.6659 6.65852C23.6972 7.69001 24.3326 9.05157 24.4607 10.5046H23.9201C23.8439 10.5016 23.7678 10.5141 23.6965 10.5412C23.6252 10.5684 23.5601 10.6096 23.5051 10.6625C23.4501 10.7154 23.4064 10.7789 23.3765 10.8491C23.3466 10.9193 23.3312 10.9948 23.3312 11.0711C23.3312 11.1474 23.3466 11.2229 23.3765 11.2931C23.4064 11.3633 23.4501 11.4268 23.5051 11.4797C23.5601 11.5326 23.6252 11.5738 23.6965 11.601C23.7678 11.6281 23.8439 11.6406 23.9201 11.6376H24.4607C24.341 12.9022 23.8394 14.1005 23.0227 15.0733C22.2059 16.0462 21.1125 16.7476 19.8877 17.0844L19.7891 17.1108L19.7696 17.1159C19.4575 17.1925 19.1401 17.2459 18.8201 17.2757V16.7376C18.8231 16.6614 18.8106 16.5853 18.7835 16.514C18.7563 16.4427 18.7151 16.3776 18.6622 16.3226C18.6093 16.2676 18.5458 16.2239 18.4756 16.194C18.4054 16.1641 18.3299 16.1487 18.2536 16.1487C18.1773 16.1487 18.1018 16.1641 18.0316 16.194C17.9614 16.2239 17.8979 16.2676 17.845 16.3226C17.7921 16.3776 17.7509 16.4427 17.7237 16.514C17.6966 16.5853 17.6841 16.6614 17.6871 16.7376V17.2782C16.2375 17.1409 14.8812 16.5026 13.8517 15.473C12.8221 14.4435 12.1838 13.0871 12.0465 11.6376ZM16.5515 18.2413C17.6697 18.5027 18.8332 18.5027 19.9515 18.2413V20.7046H16.5515V18.2413ZM25.6201 29.7715H10.8871V21.8376H25.6201V29.7715Z" fill="url(#paint0_linear_1_105)"/>
<path d="M22.744 23.5708H13.774C13.6993 23.5663 13.6244 23.5778 13.5545 23.6043C13.4845 23.6309 13.4209 23.672 13.368 23.7249C13.3151 23.7779 13.274 23.8414 13.2474 23.9114C13.2208 23.9814 13.2094 24.0562 13.2138 24.1309V27.4944C13.2094 27.5691 13.2208 27.6439 13.2474 27.7139C13.274 27.7839 13.3151 27.8474 13.368 27.9003C13.4209 27.9533 13.4845 27.9944 13.5545 28.021C13.6244 28.0475 13.6993 28.059 13.774 28.0545H22.7432C22.8179 28.059 22.8927 28.0475 22.9627 28.021C23.0327 27.9944 23.0962 27.9533 23.1492 27.9003C23.2021 27.8474 23.2432 27.7839 23.2698 27.7139C23.2964 27.6439 23.3078 27.5691 23.3033 27.4944V24.1309C23.3078 24.0563 23.2964 23.9815 23.2698 23.9116C23.2433 23.8417 23.2023 23.7782 23.1495 23.7253C23.0966 23.6723 23.0332 23.6312 22.9633 23.6046C22.8934 23.578 22.8187 23.5664 22.744 23.5708ZM22.1839 26.9342H14.3358V24.6919H22.1839V26.9342Z" fill="url(#paint1_linear_1_105)"/>
<path d="M19.6007 12.6177C19.6812 12.5938 19.7544 12.5501 19.8138 12.4908C19.8731 12.4314 19.9168 12.3582 19.9407 12.2777L21.0618 8.91424C21.087 8.81423 21.0844 8.70928 21.0545 8.61062C21.0245 8.51195 20.9683 8.42328 20.8919 8.3541C20.8146 8.29131 20.7232 8.24828 20.6256 8.22873C20.528 8.20918 20.4272 8.2137 20.3317 8.24189L16.9682 9.36304C16.8878 9.38698 16.8145 9.43061 16.7552 9.48997C16.6958 9.54934 16.6522 9.62257 16.6282 9.70304L15.5071 13.0665C15.4573 13.1582 15.4413 13.2645 15.4618 13.3669C15.4823 13.4692 15.538 13.5611 15.6193 13.6266C15.6685 13.6817 15.7291 13.7255 15.7969 13.7548C15.8648 13.7842 15.9381 13.7984 16.012 13.7966C16.0905 13.7991 16.1682 13.7796 16.2364 13.7405L19.6007 12.6177ZM17.5828 10.3227L19.6007 9.65034L18.9283 11.6682L16.9104 12.3406L17.5828 10.3227Z" fill="url(#paint2_linear_1_105)"/>
</g>
</g>
</g>
<defs>
<linearGradient id="paint0_linear_1_105" x1="17.1087" y1="3.71094" x2="17.1087" y2="37.7056" gradientUnits="userSpaceOnUse">
<stop stop-color="#0336E9"/>
<stop offset="1" stop-color="#1837A5"/>
</linearGradient>
<linearGradient id="paint1_linear_1_105" x1="18.2586" y1="23.5698" x2="18.2586" y2="28.0554" gradientUnits="userSpaceOnUse">
<stop stop-color="#0336E9"/>
<stop offset="1" stop-color="#1837A5"/>
</linearGradient>
<linearGradient id="paint2_linear_1_105" x1="18.266" y1="8.2168" x2="18.266" y2="13.7968" gradientUnits="userSpaceOnUse">
<stop stop-color="#0336E9"/>
<stop offset="1" stop-color="#1837A5"/>
</linearGradient>
<clipPath id="clip0_1_105">
<rect width="34" height="40" fill="white" transform="translate(0.121094 0.70459)"/>
</clipPath>
<clipPath id="clip1_1_105">
<rect width="34" height="40" fill="white" transform="translate(0.121094 0.70459)"/>
</clipPath>
<clipPath id="clip2_1_105">
<rect width="34" height="34" fill="white" transform="translate(0.121094 3.70459)"/>
</clipPath>
</defs>
</svg>
