<svg width="20" height="26" viewBox="0 0 35 41" fill="none" xmlns="http://www.w3.org/2000/svg">
<g clip-path="url(#clip0_1_290)">
<g clip-path="url(#clip1_1_290)">
<g clip-path="url(#clip2_1_290)">
<path d="M21.6895 24.6552L20.9358 25.4089L23.1131 27.5862C23.3644 27.8374 23.6993 27.8374 23.8668 27.5862L28.8077 22.6453L28.054 21.8916L23.4481 26.4975L21.6895 24.6552Z" fill="url(#paint0_linear_1_290)"/>
<path d="M33.6655 16.6996H30.8182C29.4783 16.6996 28.1384 16.2808 27.0497 15.4434L24.2862 13.4335C24.1187 13.266 23.7837 13.266 23.6162 13.4335L21.6901 14.8572V8.82762H25.6261C25.9611 8.82762 26.2123 8.57643 26.2123 8.24146V5.98036C26.2123 4.38923 24.9561 3.21683 23.365 3.21683H7.45368C5.86255 3.21683 4.6064 4.47297 4.6064 5.98036V31.1035H0.670433C0.335457 31.1035 0.0842285 31.3548 0.0842285 31.6897V33.9508C0.0842285 35.5419 1.34039 36.7144 2.93152 36.7144H18.8428C19.8478 36.7144 20.769 36.2119 21.2714 35.3744L23.7 36.6306C23.8675 36.7143 24.035 36.7143 24.2024 36.6306L30.232 33.5321C32.6606 32.2759 34.168 29.8474 34.168 27.0838V17.1183C34.168 16.9508 33.9167 16.6996 33.6655 16.6996ZM21.6901 6.06409C21.6901 5.14291 22.4438 4.38921 23.365 4.38921C24.2862 4.38921 25.0399 5.14291 25.0399 6.06409V7.73896H21.6064V6.06409H21.6901ZM4.69014 34.0346C4.69014 34.9557 3.93645 35.7094 3.01526 35.7094C2.09408 35.7094 1.34039 34.9557 1.34039 34.0346V32.3597H4.77388V34.0346H4.69014ZM18.9266 35.7094H5.27634C5.69506 35.207 5.86255 34.6208 5.86255 34.0346V6.14786C5.86255 5.22668 6.61625 4.47299 7.53743 4.47299H21.1877C20.769 4.97545 20.6015 5.56166 20.6015 6.14786V15.7784C19.5965 16.4484 18.4241 16.7833 17.168 16.7833H14.3207C13.9857 16.7833 13.7345 17.0345 13.7345 17.3695V17.9557H8.03989V19.0444H13.7345V21.3055H8.03989V22.3941H13.7345V24.6552H8.03989V25.7439H13.7345V27.335C13.7345 27.5863 13.7345 27.7538 13.7345 28.005H8.03989V29.0936H13.9857C14.1532 29.9311 14.5719 30.6848 14.9906 31.3547H8.03989V32.4434H15.9118C16.4143 32.9459 17.0005 33.3646 17.6704 33.6996L20.2665 35.0395C20.0153 35.3745 19.4291 35.7094 18.9266 35.7094ZM33.0793 27.1675C33.0793 29.4286 31.8231 31.5222 29.7295 32.6109L23.9512 35.6257L18.1729 32.6109C16.163 31.5222 14.8231 29.5124 14.8231 27.1675V17.7882H17.0842C18.6754 17.7882 20.1827 17.2858 21.5226 16.3646L23.8675 14.606L26.2123 16.3646C27.4685 17.2858 29.0596 17.7882 30.6507 17.7882H32.9118L33.0793 27.1675Z" fill="url(#paint1_linear_1_290)"/>
<path d="M16.4988 7.73891H14.824V6.06403C14.824 5.72906 14.5727 5.47781 14.2378 5.47781H12.0604C11.7254 5.47781 11.4742 5.72906 11.4742 6.06403V7.73891H9.79934C9.46436 7.73891 9.21313 7.99015 9.21313 8.32512V10.5024C9.21313 10.8374 9.46436 11.0887 9.79934 11.0887H11.4742V12.7635C11.4742 13.0985 11.7254 13.3498 12.0604 13.3498H14.2378C14.5727 13.3498 14.824 13.0985 14.824 12.7635V11.0887H16.4988C16.8338 11.0887 17.0851 10.8374 17.0851 10.5024V8.32512C17.0851 7.99015 16.8338 7.73891 16.4988 7.73891ZM15.9126 9.91628H14.2378C13.9028 9.91628 13.6516 10.1675 13.6516 10.5024V12.1773H12.5629V10.5024C12.5629 10.1675 12.3117 9.91628 11.9767 9.91628H10.3018V8.82757H11.9767C12.3117 8.82757 12.5629 8.57638 12.5629 8.2414V6.56652H13.6516V8.2414C13.6516 8.57638 13.9028 8.82757 14.2378 8.82757H15.9126V9.91628Z" fill="url(#paint2_linear_1_290)"/>
<path d="M25.8773 17.4533L24.5374 16.4483C24.3699 16.2808 24.035 16.2808 23.8675 16.4483L22.5276 17.4533C21.1039 18.5419 19.3453 19.1281 17.5867 19.1281H17.0005C16.6655 19.1281 16.4143 19.3793 16.4143 19.7143V27.335C16.4143 29.1774 17.4192 30.8523 19.0941 31.7734L23.9512 34.3695C24.1187 34.4532 24.2862 34.4532 24.4537 34.3695L29.3108 31.7734C30.902 30.936 31.9906 29.1774 31.9906 27.335V19.7143C31.9906 19.3793 31.7394 19.1281 31.4044 19.1281H30.8182C29.0596 19.1281 27.3847 18.5419 25.8773 17.4533ZM30.902 27.2513C30.902 28.6749 30.1483 30.0148 28.8084 30.6848L24.2024 33.1133L19.5965 30.6848C18.3404 30.0148 17.5029 28.6749 17.5029 27.2513V20.2168C19.5128 20.2168 21.5227 19.5468 23.1138 18.3744L24.1187 17.6207L25.1236 18.3744C26.7148 19.6306 28.7246 20.2168 30.7345 20.2168V27.2513H30.902Z" fill="url(#paint3_linear_1_290)"/>
<path d="M18.0891 14.5222H8.29111V15.8621H18.0891V14.5222Z" fill="url(#paint4_linear_1_290)"/>
</g>
</g>
</g>
<defs>
<linearGradient id="paint0_linear_1_290" x1="24.8717" y1="21.8916" x2="24.8717" y2="27.7746" gradientUnits="userSpaceOnUse">
<stop stop-color="#0336E9"/>
<stop offset="1" stop-color="#1837A5"/>
</linearGradient>
<linearGradient id="paint1_linear_1_290" x1="17.1261" y1="3.21683" x2="17.1261" y2="36.7144" gradientUnits="userSpaceOnUse">
<stop stop-color="#0336E9"/>
<stop offset="1" stop-color="#1837A5"/>
</linearGradient>
<linearGradient id="paint2_linear_1_290" x1="13.1491" y1="5.47781" x2="13.1491" y2="13.3498" gradientUnits="userSpaceOnUse">
<stop stop-color="#0336E9"/>
<stop offset="1" stop-color="#1837A5"/>
</linearGradient>
<linearGradient id="paint3_linear_1_290" x1="24.2025" y1="16.3227" x2="24.2025" y2="34.4323" gradientUnits="userSpaceOnUse">
<stop stop-color="#0336E9"/>
<stop offset="1" stop-color="#1837A5"/>
</linearGradient>
<linearGradient id="paint4_linear_1_290" x1="13.1901" y1="14.5222" x2="13.1901" y2="15.8621" gradientUnits="userSpaceOnUse">
<stop stop-color="#0336E9"/>
<stop offset="1" stop-color="#1837A5"/>
</linearGradient>
<clipPath id="clip0_1_290">
<rect width="34" height="40" fill="white" transform="translate(0.167969 0.0493164)"/>
</clipPath>
<clipPath id="clip1_1_290">
<rect width="34" height="40" fill="white" transform="translate(0.167969 0.0493164)"/>
</clipPath>
<clipPath id="clip2_1_290">
<rect width="34" height="33.4975" fill="white" transform="translate(0.167969 3.30055)"/>
</clipPath>
</defs>
</svg>
