<svg width="20" height="26" viewBox="0 0 35 41" fill="none" xmlns="http://www.w3.org/2000/svg">
<g clip-path="url(#clip0_1_191)">
<g clip-path="url(#clip1_1_191)">
<path fill-rule="evenodd" clip-rule="evenodd" d="M10.9565 27.1524C10.7872 27.1524 10.6505 27.0157 10.6505 26.8464V8.92905C10.6505 8.75977 10.7872 8.62305 10.9565 8.62305C11.1257 8.62305 11.2625 8.75977 11.2625 8.92905V26.8464C11.2625 27.0157 11.1257 27.1524 10.9565 27.1524ZM24.8112 27.1524C24.6419 27.1524 24.5052 27.0157 24.5052 26.8464V8.92905C24.5052 8.75977 24.6419 8.62305 24.8112 8.62305C24.9805 8.62305 25.1172 8.75977 25.1172 8.92905V26.8464C25.1172 27.0157 24.9805 27.1524 24.8112 27.1524Z" fill="url(#paint0_linear_1_191)"/>
<path fill-rule="evenodd" clip-rule="evenodd" d="M5.12248 27.1524C4.95321 27.1524 4.81648 27.0156 4.81648 26.8464V12.7442C4.81648 12.575 4.95321 12.4382 5.12248 12.4382C5.29176 12.4382 5.42849 12.575 5.42849 12.7442V26.8464C5.42849 27.0156 5.29176 27.1524 5.12248 27.1524Z" fill="url(#paint1_linear_1_191)"/>
<path fill-rule="evenodd" clip-rule="evenodd" d="M30.6381 27.1524C30.4688 27.1524 30.3321 27.0156 30.3321 26.8464V12.7442C30.3321 12.575 30.4688 12.4382 30.6381 12.4382C30.8074 12.4382 30.9441 12.575 30.9441 12.7442V26.8464C30.9506 27.0156 30.8139 27.1524 30.6381 27.1524Z" fill="url(#paint2_linear_1_191)"/>
<path fill-rule="evenodd" clip-rule="evenodd" d="M6.9402 16.4032H9.12779V14.8862H6.9402V16.4032ZM9.44031 17.0217H6.6342C6.46493 17.0217 6.3282 16.885 6.3282 16.7157V14.5802C6.3282 14.4109 6.46493 14.2742 6.6342 14.2742H9.44031C9.60958 14.2742 9.74631 14.4109 9.74631 14.5802V16.7157C9.75282 16.885 9.60958 17.0217 9.44031 17.0217Z" fill="url(#paint3_linear_1_191)"/>
<path fill-rule="evenodd" clip-rule="evenodd" d="M6.9402 20.5897H9.12779V19.0727H6.9402V20.5897ZM9.44031 21.2082H6.6342C6.46493 21.2082 6.3282 21.0715 6.3282 20.9022V18.7667C6.3282 18.5974 6.46493 18.4607 6.6342 18.4607H9.44031C9.60958 18.4607 9.74631 18.5974 9.74631 18.7667V20.9022C9.75282 21.065 9.60958 21.2082 9.44031 21.2082Z" fill="url(#paint4_linear_1_191)"/>
<path fill-rule="evenodd" clip-rule="evenodd" d="M6.9402 24.7694H9.12779V23.2524H6.9402V24.7694ZM9.44031 25.3879H6.6342C6.46493 25.3879 6.3282 25.2512 6.3282 25.0819V22.9464C6.3282 22.7771 6.46493 22.6404 6.6342 22.6404H9.44031C9.60958 22.6404 9.74631 22.7771 9.74631 22.9464V25.0819C9.75282 25.2512 9.60958 25.3879 9.44031 25.3879Z" fill="url(#paint5_linear_1_191)"/>
<path fill-rule="evenodd" clip-rule="evenodd" d="M26.6277 16.4032H28.8153V14.8862H26.6277V16.4032ZM29.1278 17.0217H26.3217C26.1524 17.0217 26.0157 16.885 26.0157 16.7157V14.5802C26.0157 14.4109 26.1524 14.2742 26.3217 14.2742H29.1278C29.2971 14.2742 29.4338 14.4109 29.4338 14.5802V16.7157C29.4338 16.885 29.2971 17.0217 29.1278 17.0217Z" fill="url(#paint6_linear_1_191)"/>
<path fill-rule="evenodd" clip-rule="evenodd" d="M26.6277 20.5897H28.8153V19.0727H26.6277V20.5897ZM29.1278 21.2082H26.3217C26.1524 21.2082 26.0157 21.0715 26.0157 20.9022V18.7667C26.0157 18.5974 26.1524 18.4607 26.3217 18.4607H29.1278C29.2971 18.4607 29.4338 18.5974 29.4338 18.7667V20.9022C29.4338 21.065 29.2971 21.2082 29.1278 21.2082Z" fill="url(#paint7_linear_1_191)"/>
<path fill-rule="evenodd" clip-rule="evenodd" d="M26.6277 24.7694H28.8153V23.2524H26.6277V24.7694ZM29.1278 25.3879H26.3217C26.1524 25.3879 26.0157 25.2512 26.0157 25.0819V22.9464C26.0157 22.7771 26.1524 22.6404 26.3217 22.6404H29.1278C29.2971 22.6404 29.4338 22.7771 29.4338 22.9464V25.0819C29.4338 25.2512 29.2971 25.3879 29.1278 25.3879Z" fill="url(#paint8_linear_1_191)"/>
<path fill-rule="evenodd" clip-rule="evenodd" d="M21.198 14.8472H23.3856V13.3302H21.198V14.8472ZM23.6982 15.4657H20.892C20.7228 15.4657 20.586 15.329 20.586 15.1597V13.0242C20.586 12.8549 20.7228 12.7182 20.892 12.7182H23.6982C23.8674 12.7182 24.0042 12.8549 24.0042 13.0242V15.1597C24.0042 15.329 23.8674 15.4657 23.6982 15.4657Z" fill="url(#paint9_linear_1_191)"/>
<path fill-rule="evenodd" clip-rule="evenodd" d="M21.198 19.0336H23.3856V17.5166H21.198V19.0336ZM23.6982 19.6521H20.892C20.7228 19.6521 20.586 19.5154 20.586 19.3461V17.2106C20.586 17.0413 20.7228 16.9046 20.892 16.9046H23.6982C23.8674 16.9046 24.0042 17.0413 24.0042 17.2106V19.3461C24.0042 19.5089 23.8674 19.6521 23.6982 19.6521Z" fill="url(#paint10_linear_1_191)"/>
<path fill-rule="evenodd" clip-rule="evenodd" d="M16.7838 14.8472H18.9714V13.3302H16.7838V14.8472ZM19.2839 15.4657H16.4778C16.3085 15.4657 16.1718 15.329 16.1718 15.1597V13.0242C16.1718 12.8549 16.3085 12.7182 16.4778 12.7182H19.2839C19.4532 12.7182 19.5899 12.8549 19.5899 13.0242V15.1597C19.5964 15.329 19.4532 15.4657 19.2839 15.4657Z" fill="url(#paint11_linear_1_191)"/>
<path fill-rule="evenodd" clip-rule="evenodd" d="M16.7838 19.0336H18.9714V17.5166H16.7838V19.0336ZM19.2839 19.6521H16.4778C16.3085 19.6521 16.1718 19.5154 16.1718 19.3461V17.2106C16.1718 17.0413 16.3085 16.9046 16.4778 16.9046H19.2839C19.4532 16.9046 19.5899 17.0413 19.5899 17.2106V19.3461C19.5964 19.5089 19.4532 19.6521 19.2839 19.6521Z" fill="url(#paint12_linear_1_191)"/>
<path fill-rule="evenodd" clip-rule="evenodd" d="M12.3758 14.8473H14.5633V13.3303H12.3758V14.8473ZM14.8759 15.4658H12.0698C11.9005 15.4658 11.7637 15.329 11.7637 15.1598V13.0243C11.7637 12.855 11.9005 12.7183 12.0698 12.7183H14.8759C15.0451 12.7183 15.1819 12.855 15.1819 13.0243V15.1598C15.1819 15.329 15.0451 15.4658 14.8759 15.4658Z" fill="url(#paint13_linear_1_191)"/>
<path fill-rule="evenodd" clip-rule="evenodd" d="M12.3758 19.0335H14.5633V17.5165H12.3758V19.0335ZM14.8759 19.652H12.0698C11.9005 19.652 11.7637 19.5153 11.7637 19.346V17.2105C11.7637 17.0413 11.9005 16.9045 12.0698 16.9045H14.8759C15.0451 16.9045 15.1819 17.0413 15.1819 17.2105V19.346C15.1819 19.5088 15.0451 19.652 14.8759 19.652Z" fill="url(#paint14_linear_1_191)"/>
<path fill-rule="evenodd" clip-rule="evenodd" d="M20.9051 27.1524C20.7358 27.1524 20.5991 27.0157 20.5991 26.8464V21.0714H15.1626V26.8464C15.1626 27.0157 15.0259 27.1524 14.8566 27.1524C14.6874 27.1524 14.5506 27.0157 14.5506 26.8464V20.7654C14.5506 20.5961 14.6874 20.4594 14.8566 20.4594H20.9116C21.0809 20.4594 21.2176 20.5961 21.2176 20.7654V26.8464C21.2176 27.0157 21.0809 27.1524 20.9051 27.1524Z" fill="url(#paint15_linear_1_191)"/>
<path fill-rule="evenodd" clip-rule="evenodd" d="M17.8841 27.1524C17.7148 27.1524 17.5781 27.0157 17.5781 26.8464V20.7654C17.5781 20.5961 17.7148 20.4594 17.8841 20.4594C18.0534 20.4594 18.1901 20.5961 18.1901 20.7654V26.8464C18.1901 27.0157 18.0534 27.1524 17.8841 27.1524Z" fill="url(#paint16_linear_1_191)"/>
<path fill-rule="evenodd" clip-rule="evenodd" d="M14.3349 9.23505H10.435C10.2657 9.23505 10.129 9.09832 10.129 8.92904V7.04746C10.129 6.87818 10.2657 6.74146 10.435 6.74146H14.2958C14.4651 6.74146 14.6018 6.87818 14.6018 7.04746C14.6018 7.21674 14.4651 7.35346 14.2958 7.35346H10.7475V8.62304H14.3414C14.5107 8.62304 14.6474 8.75977 14.6474 8.92904C14.6409 9.09832 14.5042 9.23505 14.3349 9.23505ZM25.3249 9.23505H21.425C21.2557 9.23505 21.119 9.09832 21.119 8.92904C21.119 8.75977 21.2557 8.62304 21.425 8.62304H25.0189V7.35997H21.4706C21.3013 7.35997 21.1646 7.22325 21.1646 7.05397C21.1646 6.88469 21.3013 6.74797 21.4706 6.74797H25.3314C25.5007 6.74797 25.6374 6.88469 25.6374 7.05397V8.93555C25.6374 9.09832 25.4942 9.23505 25.3249 9.23505Z" fill="url(#paint17_linear_1_191)"/>
<path fill-rule="evenodd" clip-rule="evenodd" d="M31.3148 13.0503H24.8041C24.6348 13.0503 24.4981 12.9136 24.4981 12.7443C24.4981 12.575 24.6348 12.4383 24.8041 12.4383H31.0023V11.1752H24.8041C24.6348 11.1752 24.4981 11.0385 24.4981 10.8692C24.4981 10.7 24.6348 10.5632 24.8041 10.5632H31.3148C31.4841 10.5632 31.6208 10.7 31.6208 10.8692V12.7508C31.6208 12.9136 31.4841 13.0503 31.3148 13.0503Z" fill="url(#paint18_linear_1_191)"/>
<path fill-rule="evenodd" clip-rule="evenodd" d="M10.9574 13.0502H4.4467C4.27743 13.0502 4.1407 12.9135 4.1407 12.7442V10.8626C4.1407 10.6934 4.27743 10.5566 4.4467 10.5566H10.9574C11.1267 10.5566 11.2634 10.6934 11.2634 10.8626C11.2634 11.0319 11.1267 11.1686 10.9574 11.1686H4.75922V12.4317H10.9574C11.1267 12.4317 11.2634 12.5684 11.2634 12.7377C11.2634 12.9135 11.1267 13.0502 10.9574 13.0502Z" fill="url(#paint19_linear_1_191)"/>
<path fill-rule="evenodd" clip-rule="evenodd" d="M17.8841 4.53429C16.0221 4.53429 14.5051 6.05127 14.5051 7.91333C14.5051 9.77538 16.0221 11.2924 17.8841 11.2924C19.7462 11.2924 21.2632 9.77538 21.2632 7.91333C21.2632 6.05127 19.7462 4.53429 17.8841 4.53429ZM17.8841 11.9109C15.677 11.9109 13.8866 10.1205 13.8866 7.91333C13.8866 5.70621 15.677 3.91577 17.8841 3.91577C20.0912 3.91577 21.8817 5.70621 21.8817 7.91333C21.8817 10.1205 20.0847 11.9109 17.8841 11.9109Z" fill="url(#paint20_linear_1_191)"/>
<path fill-rule="evenodd" clip-rule="evenodd" d="M17.4674 9.71028H18.2943V8.63602C18.2943 8.46674 18.431 8.33002 18.6003 8.33002H19.6746V7.50316H18.6003C18.431 7.50316 18.2943 7.36643 18.2943 7.19716V6.12289H17.4674V7.19065C17.4674 7.35992 17.3307 7.49665 17.1614 7.49665H16.0872V8.3235H17.1614C17.3307 8.3235 17.4674 8.46023 17.4674 8.62951V9.71028ZM18.6003 10.3223H17.1549C16.9856 10.3223 16.8489 10.1856 16.8489 10.0163V8.94202H15.7747C15.6054 8.94202 15.4687 8.80529 15.4687 8.63602V7.19065C15.4687 7.02137 15.6054 6.88464 15.7747 6.88464H16.8489V5.81038C16.8489 5.6411 16.9856 5.50438 17.1549 5.50438H18.6003C18.7696 5.50438 18.9063 5.6411 18.9063 5.81038V6.88464H19.9806C20.1498 6.88464 20.2866 7.02137 20.2866 7.19065V8.63602C20.2866 8.80529 20.1498 8.94202 19.9806 8.94202H18.9063V10.0163C18.9128 10.1856 18.7761 10.3223 18.6003 10.3223Z" fill="url(#paint21_linear_1_191)"/>
<path fill-rule="evenodd" clip-rule="evenodd" d="M4.37445 28.0509H31.3938V27.1589H4.37445C4.37445 27.1524 4.37445 28.0509 4.37445 28.0509ZM31.6998 28.6629H4.06194C3.89266 28.6629 3.75594 28.5261 3.75594 28.3569V26.8464C3.75594 26.6771 3.89266 26.5404 4.06194 26.5404H31.6933C31.8625 26.5404 31.9993 26.6771 31.9993 26.8464V28.3569C32.0058 28.5261 31.8691 28.6629 31.6998 28.6629Z" fill="url(#paint22_linear_1_191)"/>
<path fill-rule="evenodd" clip-rule="evenodd" d="M14.8564 23.0832H10.9565C10.7872 23.0832 10.6505 22.9465 10.6505 22.7772C10.6505 22.6079 10.7872 22.4712 10.9565 22.4712H14.8564C15.0256 22.4712 15.1624 22.6079 15.1624 22.7772C15.1624 22.9465 15.0256 23.0832 14.8564 23.0832ZM24.8112 23.0832H20.9113C20.742 23.0832 20.6053 22.9465 20.6053 22.7772C20.6053 22.6079 20.742 22.4712 20.9113 22.4712H24.8112C24.9805 22.4712 25.1172 22.6079 25.1172 22.7772C25.1172 22.9465 24.9805 23.0832 24.8112 23.0832ZM14.8564 25.3098H10.9565C10.7872 25.3098 10.6505 25.1731 10.6505 25.0038C10.6505 24.8346 10.7872 24.6978 10.9565 24.6978H14.8564C15.0256 24.6978 15.1624 24.8346 15.1624 25.0038C15.1624 25.1731 15.0256 25.3098 14.8564 25.3098ZM24.8112 25.3098H20.9113C20.742 25.3098 20.6053 25.1731 20.6053 25.0038C20.6053 24.8346 20.742 24.6978 20.9113 24.6978H24.8112C24.9805 24.6978 25.1172 24.8346 25.1172 25.0038C25.1172 25.1731 24.9805 25.3098 24.8112 25.3098Z" fill="url(#paint23_linear_1_191)"/>
</g>
</g>
<defs>
<linearGradient id="paint0_linear_1_191" x1="17.8838" y1="8.62305" x2="17.8838" y2="27.1524" gradientUnits="userSpaceOnUse">
<stop stop-color="#0336E9"/>
<stop offset="1" stop-color="#1837A5"/>
</linearGradient>
<linearGradient id="paint1_linear_1_191" x1="5.12248" y1="12.4382" x2="5.12248" y2="27.1524" gradientUnits="userSpaceOnUse">
<stop stop-color="#0336E9"/>
<stop offset="1" stop-color="#1837A5"/>
</linearGradient>
<linearGradient id="paint2_linear_1_191" x1="30.6382" y1="12.4382" x2="30.6382" y2="27.1524" gradientUnits="userSpaceOnUse">
<stop stop-color="#0336E9"/>
<stop offset="1" stop-color="#1837A5"/>
</linearGradient>
<linearGradient id="paint3_linear_1_191" x1="8.03736" y1="14.2742" x2="8.03736" y2="17.0217" gradientUnits="userSpaceOnUse">
<stop stop-color="#0336E9"/>
<stop offset="1" stop-color="#1837A5"/>
</linearGradient>
<linearGradient id="paint4_linear_1_191" x1="8.03736" y1="18.4607" x2="8.03736" y2="21.2082" gradientUnits="userSpaceOnUse">
<stop stop-color="#0336E9"/>
<stop offset="1" stop-color="#1837A5"/>
</linearGradient>
<linearGradient id="paint5_linear_1_191" x1="8.03736" y1="22.6404" x2="8.03736" y2="25.3879" gradientUnits="userSpaceOnUse">
<stop stop-color="#0336E9"/>
<stop offset="1" stop-color="#1837A5"/>
</linearGradient>
<linearGradient id="paint6_linear_1_191" x1="27.7248" y1="14.2742" x2="27.7248" y2="17.0217" gradientUnits="userSpaceOnUse">
<stop stop-color="#0336E9"/>
<stop offset="1" stop-color="#1837A5"/>
</linearGradient>
<linearGradient id="paint7_linear_1_191" x1="27.7248" y1="18.4607" x2="27.7248" y2="21.2082" gradientUnits="userSpaceOnUse">
<stop stop-color="#0336E9"/>
<stop offset="1" stop-color="#1837A5"/>
</linearGradient>
<linearGradient id="paint8_linear_1_191" x1="27.7248" y1="22.6404" x2="27.7248" y2="25.3879" gradientUnits="userSpaceOnUse">
<stop stop-color="#0336E9"/>
<stop offset="1" stop-color="#1837A5"/>
</linearGradient>
<linearGradient id="paint9_linear_1_191" x1="22.2951" y1="12.7182" x2="22.2951" y2="15.4657" gradientUnits="userSpaceOnUse">
<stop stop-color="#0336E9"/>
<stop offset="1" stop-color="#1837A5"/>
</linearGradient>
<linearGradient id="paint10_linear_1_191" x1="22.2951" y1="16.9046" x2="22.2951" y2="19.6521" gradientUnits="userSpaceOnUse">
<stop stop-color="#0336E9"/>
<stop offset="1" stop-color="#1837A5"/>
</linearGradient>
<linearGradient id="paint11_linear_1_191" x1="17.881" y1="12.7182" x2="17.881" y2="15.4657" gradientUnits="userSpaceOnUse">
<stop stop-color="#0336E9"/>
<stop offset="1" stop-color="#1837A5"/>
</linearGradient>
<linearGradient id="paint12_linear_1_191" x1="17.881" y1="16.9046" x2="17.881" y2="19.6521" gradientUnits="userSpaceOnUse">
<stop stop-color="#0336E9"/>
<stop offset="1" stop-color="#1837A5"/>
</linearGradient>
<linearGradient id="paint13_linear_1_191" x1="13.4728" y1="12.7183" x2="13.4728" y2="15.4658" gradientUnits="userSpaceOnUse">
<stop stop-color="#0336E9"/>
<stop offset="1" stop-color="#1837A5"/>
</linearGradient>
<linearGradient id="paint14_linear_1_191" x1="13.4728" y1="16.9045" x2="13.4728" y2="19.652" gradientUnits="userSpaceOnUse">
<stop stop-color="#0336E9"/>
<stop offset="1" stop-color="#1837A5"/>
</linearGradient>
<linearGradient id="paint15_linear_1_191" x1="17.8841" y1="20.4594" x2="17.8841" y2="27.1524" gradientUnits="userSpaceOnUse">
<stop stop-color="#0336E9"/>
<stop offset="1" stop-color="#1837A5"/>
</linearGradient>
<linearGradient id="paint16_linear_1_191" x1="17.8841" y1="20.4594" x2="17.8841" y2="27.1524" gradientUnits="userSpaceOnUse">
<stop stop-color="#0336E9"/>
<stop offset="1" stop-color="#1837A5"/>
</linearGradient>
<linearGradient id="paint17_linear_1_191" x1="17.8832" y1="6.74146" x2="17.8832" y2="9.23505" gradientUnits="userSpaceOnUse">
<stop stop-color="#0336E9"/>
<stop offset="1" stop-color="#1837A5"/>
</linearGradient>
<linearGradient id="paint18_linear_1_191" x1="28.0595" y1="10.5632" x2="28.0595" y2="13.0503" gradientUnits="userSpaceOnUse">
<stop stop-color="#0336E9"/>
<stop offset="1" stop-color="#1837A5"/>
</linearGradient>
<linearGradient id="paint19_linear_1_191" x1="7.70204" y1="10.5566" x2="7.70204" y2="13.0502" gradientUnits="userSpaceOnUse">
<stop stop-color="#0336E9"/>
<stop offset="1" stop-color="#1837A5"/>
</linearGradient>
<linearGradient id="paint20_linear_1_191" x1="17.8841" y1="3.91577" x2="17.8841" y2="11.9109" gradientUnits="userSpaceOnUse">
<stop stop-color="#0336E9"/>
<stop offset="1" stop-color="#1837A5"/>
</linearGradient>
<linearGradient id="paint21_linear_1_191" x1="17.8776" y1="5.50438" x2="17.8776" y2="10.3223" gradientUnits="userSpaceOnUse">
<stop stop-color="#0336E9"/>
<stop offset="1" stop-color="#1837A5"/>
</linearGradient>
<linearGradient id="paint22_linear_1_191" x1="17.8777" y1="26.5404" x2="17.8777" y2="28.6629" gradientUnits="userSpaceOnUse">
<stop stop-color="#0336E9"/>
<stop offset="1" stop-color="#1837A5"/>
</linearGradient>
<linearGradient id="paint23_linear_1_191" x1="17.8838" y1="22.4712" x2="17.8838" y2="25.3098" gradientUnits="userSpaceOnUse">
<stop stop-color="#0336E9"/>
<stop offset="1" stop-color="#1837A5"/>
</linearGradient>
<clipPath id="clip0_1_191">
<rect width="34" height="40" fill="white" transform="translate(0.880859 0.289307)"/>
</clipPath>
<clipPath id="clip1_1_191">
<rect width="34" height="40" fill="white" transform="translate(0.880859 0.289307)"/>
</clipPath>
</defs>
</svg>
