<svg width="20" height="26" viewBox="0 0 35 41" fill="none" xmlns="http://www.w3.org/2000/svg">
<g clip-path="url(#clip0_1_135)">
<g clip-path="url(#clip1_1_135)">
<path d="M33.0732 14.5833H32.7683L29.719 6.50263C29.4903 5.7403 28.8042 5.2829 28.0419 5.2829H6.54409C5.78176 5.2829 5.09566 5.7403 4.79073 6.50263L1.81763 14.5833H1.43647C0.826601 14.5833 0.292969 15.117 0.292969 15.7268V16.6416C0.292969 17.2515 0.826601 17.7851 1.43647 17.7851H1.58893V28.6103C1.58893 28.9152 1.81763 29.1439 2.12257 29.1439C2.4275 29.1439 2.6562 28.9152 2.6562 28.6103V17.8614H10.5082C10.9656 17.8614 11.3468 17.7089 11.6517 17.404L17.3692 11.7627L23.0867 17.404C23.3916 17.7089 23.7728 17.8614 24.2302 17.8614H32.0822V19.1573C32.0822 19.4623 32.3109 19.691 32.6158 19.691C32.9208 19.691 33.1495 19.4623 33.1495 19.1573V17.8614H33.0732C33.6831 17.8614 34.2167 17.3277 34.2167 16.7179V15.8031C34.293 15.117 33.7593 14.5833 33.0732 14.5833ZM5.78176 6.80756C5.93422 6.50263 6.23916 6.27393 6.54409 6.27393H28.0419C28.423 6.27393 28.7279 6.50263 28.8042 6.80756L31.701 14.5833H24.7638L18.4365 8.25599C17.8266 7.64613 16.7593 7.64613 16.1495 8.25599L9.82212 14.5833H2.8849L5.78176 6.80756ZM33.3019 16.6416C33.3019 16.7179 33.2257 16.7941 33.1495 16.7941H24.154C24.0015 16.7941 23.849 16.7179 23.6966 16.6416L17.6741 10.6955C17.4454 10.4668 17.1405 10.4668 16.988 10.6955L10.9656 16.6416C10.8131 16.7941 10.6607 16.7941 10.5082 16.7941H1.43647C1.36023 16.7941 1.284 16.7179 1.284 16.6416V15.7268C1.284 15.6506 1.36023 15.5744 1.43647 15.5744H9.97458C10.1271 15.5744 10.2033 15.4981 10.3558 15.4219L16.8356 8.94209C17.0643 8.71339 17.5217 8.71339 17.7504 8.94209L24.2302 15.4219C24.3064 15.4981 24.4589 15.5744 24.6114 15.5744H33.0732C33.1495 15.5744 33.2257 15.6506 33.2257 15.7268L33.3019 16.6416Z" fill="url(#paint0_linear_1_135)"/>
<path d="M30.0998 31.6595C30.4047 31.6595 30.6334 31.4308 30.6334 31.1259V21.9779C30.6334 21.673 30.4047 21.4443 30.0998 21.4443H23.1625C22.8576 21.4443 22.6289 21.673 22.6289 21.9779V31.1259C22.6289 31.4308 22.8576 31.6595 23.1625 31.6595H30.0998ZM29.5661 28.3815H27.1267V25.942H29.5661V28.3815ZM26.1356 28.3815H23.6962V25.942H26.1356V28.3815ZM29.5661 30.5923H23.6962V29.3725H29.5661V30.5923ZM29.5661 24.951H27.1267V22.5115H29.5661V24.951ZM26.1356 22.5115V24.951H23.6962V22.5115H26.1356Z" fill="url(#paint1_linear_1_135)"/>
<path d="M11.424 31.6595C11.7289 31.6595 11.9576 31.4308 11.9576 31.1259V21.9779C11.9576 21.673 11.7289 21.4443 11.424 21.4443H4.48676C4.18182 21.4443 3.95312 21.673 3.95312 21.9779V31.1259C3.95312 31.4308 4.18182 31.6595 4.48676 31.6595H11.424ZM10.8903 28.3815H8.45088V25.942H10.8903V28.3815ZM7.38362 28.3815H5.02039V25.942H7.45985V28.3815H7.38362ZM10.8903 30.5923H5.02039V29.3725H10.8903V30.5923ZM10.8903 24.951H8.45088V22.5115H10.8903V24.951ZM7.38362 22.5115V24.951H5.02039V22.5115H7.38362Z" fill="url(#paint2_linear_1_135)"/>
<path d="M18.9701 23.96H15.6158C15.3109 23.96 15.0822 24.1887 15.0822 24.4937V26.7044C15.0822 27.0093 15.3109 27.238 15.6158 27.238H18.9701C19.275 27.238 19.5037 27.0093 19.5037 26.7044V24.4937C19.4275 24.1887 19.1988 23.96 18.9701 23.96ZM18.4365 26.1708H16.1495V24.9511H18.4365V26.1708Z" fill="url(#paint3_linear_1_135)"/>
<path d="M20.0376 17.7851C20.0376 16.2604 18.8179 15.0407 17.2932 15.0407C15.7686 15.0407 14.5488 16.2604 14.5488 17.7851C14.5488 19.3098 15.7686 20.5295 17.2932 20.5295C18.8179 20.5295 20.0376 19.3098 20.0376 17.7851ZM15.6161 17.7851C15.6161 16.8703 16.3784 16.108 17.2932 16.108C18.208 16.108 18.9704 16.8703 18.9704 17.7851C18.9704 18.6999 18.208 19.4622 17.2932 19.4622C16.3784 19.4622 15.6161 18.6999 15.6161 17.7851Z" fill="url(#paint4_linear_1_135)"/>
<path d="M33.7593 32.4219H32.9208V21.1394C32.9208 20.8345 32.6921 20.6058 32.3871 20.6058C32.0822 20.6058 31.8535 20.8345 31.8535 21.1394V32.4219H21.562V21.978C21.562 21.673 21.3333 21.4443 21.0284 21.4443H13.5575C13.2526 21.4443 13.0239 21.673 13.0239 21.978V32.4219H2.6562V31.0497C2.6562 30.7448 2.4275 30.5161 2.12257 30.5161C1.81763 30.5161 1.58893 30.7448 1.58893 31.0497V32.4219H0.826601C0.521668 32.4219 0.292969 32.6506 0.292969 32.9555V35.3188C0.292969 35.5475 0.521668 35.7762 0.826601 35.7762H33.8356C34.1405 35.7762 34.3692 35.5475 34.3692 35.2425V32.8793C34.293 32.6506 34.0643 32.4219 33.7593 32.4219ZM14.0149 28.6865H14.701C15.006 28.6865 15.2347 28.4578 15.2347 28.1529C15.2347 27.8479 15.006 27.6192 14.701 27.6192H14.0149V22.5116H20.4948V32.4219H14.0149V28.6865ZM33.3019 34.7851H1.284V33.4892H33.3019V34.7851Z" fill="url(#paint5_linear_1_135)"/>
</g>
</g>
<defs>
<linearGradient id="paint0_linear_1_135" x1="17.2585" y1="5.2829" x2="17.2585" y2="29.1439" gradientUnits="userSpaceOnUse">
<stop stop-color="#0336E9"/>
<stop offset="1" stop-color="#1837A5"/>
</linearGradient>
<linearGradient id="paint1_linear_1_135" x1="26.6311" y1="21.4443" x2="26.6311" y2="31.6595" gradientUnits="userSpaceOnUse">
<stop stop-color="#0336E9"/>
<stop offset="1" stop-color="#1837A5"/>
</linearGradient>
<linearGradient id="paint2_linear_1_135" x1="7.95537" y1="21.4443" x2="7.95537" y2="31.6595" gradientUnits="userSpaceOnUse">
<stop stop-color="#0336E9"/>
<stop offset="1" stop-color="#1837A5"/>
</linearGradient>
<linearGradient id="paint3_linear_1_135" x1="17.293" y1="23.96" x2="17.293" y2="27.238" gradientUnits="userSpaceOnUse">
<stop stop-color="#0336E9"/>
<stop offset="1" stop-color="#1837A5"/>
</linearGradient>
<linearGradient id="paint4_linear_1_135" x1="17.2932" y1="15.0407" x2="17.2932" y2="20.5295" gradientUnits="userSpaceOnUse">
<stop stop-color="#0336E9"/>
<stop offset="1" stop-color="#1837A5"/>
</linearGradient>
<linearGradient id="paint5_linear_1_135" x1="17.3311" y1="20.6058" x2="17.3311" y2="35.7762" gradientUnits="userSpaceOnUse">
<stop stop-color="#0336E9"/>
<stop offset="1" stop-color="#1837A5"/>
</linearGradient>
<clipPath id="clip0_1_135">
<rect width="34" height="40" fill="white" transform="translate(0.292969 0.529541)"/>
</clipPath>
<clipPath id="clip1_1_135">
<rect width="34" height="30.4933" fill="white" transform="translate(0.292969 5.2829)"/>
</clipPath>
</defs>
</svg>
