<svg width="20" height="26" viewBox="0 0 35 41" fill="none" xmlns="http://www.w3.org/2000/svg">
<g clip-path="url(#clip0_1_174)">
<g clip-path="url(#clip1_1_174)">
<g clip-path="url(#clip2_1_174)">
<path d="M21.8145 24.8952L21.0608 25.6489L23.2381 27.8262C23.4894 28.0774 23.8243 28.0774 23.9918 27.8262L28.9327 22.8853L28.179 22.1316L23.5731 26.7375L21.8145 24.8952Z" fill="url(#paint0_linear_1_174)"/>
<path d="M33.7905 16.9396H30.9432C29.6033 16.9396 28.2634 16.5208 27.1747 15.6834L24.4112 13.6735C24.2437 13.506 23.9087 13.506 23.7412 13.6735L21.8151 15.0972V9.06761H25.7511C26.0861 9.06761 26.3373 8.81642 26.3373 8.48145V6.22035C26.3373 4.62922 25.0811 3.45682 23.49 3.45682H7.57868C5.98755 3.45682 4.7314 4.71297 4.7314 6.22035V31.3435H0.795433C0.460457 31.3435 0.209229 31.5947 0.209229 31.9297V34.1908C0.209229 35.7819 1.46539 36.9544 3.05652 36.9544H18.9678C19.9728 36.9544 20.894 36.4519 21.3964 35.6144L23.825 36.8706C23.9925 36.9543 24.16 36.9543 24.3274 36.8706L30.357 33.772C32.7856 32.5159 34.293 30.0874 34.293 27.3238V17.3583C34.293 17.1908 34.0417 16.9396 33.7905 16.9396ZM21.8151 6.30408C21.8151 5.3829 22.5688 4.6292 23.49 4.6292C24.4112 4.6292 25.1649 5.3829 25.1649 6.30408V7.97895H21.7314V6.30408H21.8151ZM4.81514 34.2745C4.81514 35.1957 4.06145 35.9494 3.14026 35.9494C2.21908 35.9494 1.46539 35.1957 1.46539 34.2745V32.5997H4.89888V34.2745H4.81514ZM19.0516 35.9494H5.40134C5.82006 35.447 5.98755 34.8608 5.98755 34.2745V6.38785C5.98755 5.46667 6.74125 4.71298 7.66243 4.71298H21.3127C20.894 5.21544 20.7265 5.80165 20.7265 6.38785V16.0184C19.7215 16.6883 18.5491 17.0233 17.293 17.0233H14.4457C14.1107 17.0233 13.8595 17.2745 13.8595 17.6095V18.1957H8.16489V19.2844H13.8595V21.5455H8.16489V22.6341H13.8595V24.8952H8.16489V25.9839H13.8595V27.575C13.8595 27.8263 13.8595 27.9937 13.8595 28.245H8.16489V29.3336H14.1107C14.2782 30.1711 14.6969 30.9248 15.1156 31.5947H8.16489V32.6834H16.0368C16.5393 33.1859 17.1255 33.6046 17.7954 33.9395L20.3915 35.2795C20.1403 35.6145 19.5541 35.9494 19.0516 35.9494ZM33.2043 27.4075C33.2043 29.6686 31.9481 31.7622 29.8545 32.8509L24.0762 35.8656L18.2979 32.8509C16.288 31.7622 14.9481 29.7524 14.9481 27.4075V18.0282H17.2092C18.8004 18.0282 20.3077 17.5257 21.6476 16.6046L23.9925 14.846L26.3373 16.6046C27.5935 17.5257 29.1846 18.0282 30.7757 18.0282H33.0368L33.2043 27.4075Z" fill="url(#paint1_linear_1_174)"/>
<path d="M16.6238 7.9789H14.949V6.30402C14.949 5.96905 14.6977 5.7178 14.3628 5.7178H12.1854C11.8504 5.7178 11.5992 5.96905 11.5992 6.30402V7.9789H9.92434C9.58936 7.9789 9.33813 8.23014 9.33813 8.56512V10.7424C9.33813 11.0774 9.58936 11.3287 9.92434 11.3287H11.5992V13.0035C11.5992 13.3385 11.8504 13.5897 12.1854 13.5897H14.3628C14.6977 13.5897 14.949 13.3385 14.949 13.0035V11.3287H16.6238C16.9588 11.3287 17.2101 11.0774 17.2101 10.7424V8.56512C17.2101 8.23014 16.9588 7.9789 16.6238 7.9789ZM16.0376 10.1563H14.3628C14.0278 10.1563 13.7766 10.4075 13.7766 10.7424V12.4173H12.6879V10.7424C12.6879 10.4075 12.4367 10.1563 12.1017 10.1563H10.4268V9.06756H12.1017C12.4367 9.06756 12.6879 8.81637 12.6879 8.48139V6.80651H13.7766V8.48139C13.7766 8.81637 14.0278 9.06756 14.3628 9.06756H16.0376V10.1563Z" fill="url(#paint2_linear_1_174)"/>
<path d="M26.0023 17.6933L24.6624 16.6883C24.4949 16.5208 24.16 16.5208 23.9925 16.6883L22.6526 17.6933C21.2289 18.7819 19.4703 19.3681 17.7117 19.3681H17.1255C16.7905 19.3681 16.5393 19.6193 16.5393 19.9543V27.575C16.5393 29.4174 17.5442 31.0922 19.2191 32.0134L24.0762 34.6095C24.2437 34.6932 24.4112 34.6932 24.5787 34.6095L29.4358 32.0134C31.027 31.176 32.1156 29.4174 32.1156 27.575V19.9543C32.1156 19.6193 31.8644 19.3681 31.5294 19.3681H30.9432C29.1846 19.3681 27.5097 18.7819 26.0023 17.6933ZM31.027 27.4912C31.027 28.9149 30.2733 30.2548 28.9334 30.9248L24.3274 33.3533L19.7215 30.9248C18.4654 30.2548 17.6279 28.9149 17.6279 27.4912V20.4568C19.6378 20.4568 21.6477 19.7868 23.2388 18.6144L24.2437 17.8607L25.2486 18.6144C26.8398 19.8706 28.8496 20.4568 30.8595 20.4568V27.4912H31.027Z" fill="url(#paint3_linear_1_174)"/>
<path d="M18.2142 14.7622H8.41612V16.1021H18.2142V14.7622Z" fill="url(#paint4_linear_1_174)"/>
</g>
</g>
</g>
<defs>
<linearGradient id="paint0_linear_1_174" x1="24.9967" y1="22.1316" x2="24.9967" y2="28.0146" gradientUnits="userSpaceOnUse">
<stop stop-color="#0336E9"/>
<stop offset="1" stop-color="#1837A5"/>
</linearGradient>
<linearGradient id="paint1_linear_1_174" x1="17.2511" y1="3.45682" x2="17.2511" y2="36.9544" gradientUnits="userSpaceOnUse">
<stop stop-color="#0336E9"/>
<stop offset="1" stop-color="#1837A5"/>
</linearGradient>
<linearGradient id="paint2_linear_1_174" x1="13.2741" y1="5.7178" x2="13.2741" y2="13.5897" gradientUnits="userSpaceOnUse">
<stop stop-color="#0336E9"/>
<stop offset="1" stop-color="#1837A5"/>
</linearGradient>
<linearGradient id="paint3_linear_1_174" x1="24.3275" y1="16.5627" x2="24.3275" y2="34.6723" gradientUnits="userSpaceOnUse">
<stop stop-color="#0336E9"/>
<stop offset="1" stop-color="#1837A5"/>
</linearGradient>
<linearGradient id="paint4_linear_1_174" x1="13.3151" y1="14.7622" x2="13.3151" y2="16.1021" gradientUnits="userSpaceOnUse">
<stop stop-color="#0336E9"/>
<stop offset="1" stop-color="#1837A5"/>
</linearGradient>
<clipPath id="clip0_1_174">
<rect width="34" height="40" fill="white" transform="translate(0.292969 0.289307)"/>
</clipPath>
<clipPath id="clip1_1_174">
<rect width="34" height="40" fill="white" transform="translate(0.292969 0.289307)"/>
</clipPath>
<clipPath id="clip2_1_174">
<rect width="34" height="33.4975" fill="white" transform="translate(0.292969 3.54053)"/>
</clipPath>
</defs>
</svg>
