<svg width="20" height="26" viewBox="0 0 35 41" fill="none" xmlns="http://www.w3.org/2000/svg">
<g clip-path="url(#clip0_1_63)">
<g clip-path="url(#clip1_1_63)">
<g clip-path="url(#clip2_1_63)">
<path d="M24.3185 22.6979C23.4511 22.6979 22.844 23.3918 22.844 24.1724C22.844 25.0398 23.5379 25.6469 24.3185 25.6469C25.1858 25.6469 25.793 24.953 25.793 24.1724C25.793 23.3051 25.1858 22.6979 24.3185 22.6979ZM24.3185 24.6928C24.0583 24.6928 23.798 24.4326 23.798 24.1724C23.798 23.9122 24.0583 23.652 24.3185 23.652C24.5787 23.652 24.8389 23.9122 24.8389 24.1724C24.8389 24.4326 24.5787 24.6928 24.3185 24.6928Z" fill="url(#paint0_linear_1_63)"/>
<path d="M20.328 22.698C19.4606 22.698 18.8535 23.3919 18.8535 24.1725C18.8535 24.9531 19.5474 25.647 20.328 25.647C21.1953 25.647 21.8025 24.9531 21.8025 24.1725C21.8892 23.3052 21.1953 22.698 20.328 22.698ZM20.328 24.6929C20.0678 24.6929 19.8076 24.4327 19.8076 24.1725C19.8076 23.9123 20.0678 23.6521 20.328 23.6521C20.5882 23.6521 20.8484 23.9123 20.8484 24.1725C20.8484 24.4327 20.5882 24.6929 20.328 24.6929Z" fill="url(#paint1_linear_1_63)"/>
<path d="M24.3185 26.6877C23.4511 26.6877 22.844 27.3816 22.844 28.1622C22.844 29.0295 23.5379 29.6367 24.3185 29.6367C25.1858 29.6367 25.793 28.9428 25.793 28.1622C25.793 27.3816 25.1858 26.6877 24.3185 26.6877ZM24.3185 28.7693C24.0583 28.7693 23.798 28.5092 23.798 28.2489C23.798 27.9887 24.0583 27.7285 24.3185 27.7285C24.5787 27.7285 24.8389 27.9887 24.8389 28.2489C24.8389 28.5092 24.5787 28.7693 24.3185 28.7693Z" fill="url(#paint2_linear_1_63)"/>
<path d="M20.328 26.6877C19.4606 26.6877 18.8535 27.3816 18.8535 28.1622C18.8535 29.0296 19.5474 29.6367 20.328 29.6367C21.1953 29.6367 21.8025 28.9429 21.8025 28.1622C21.8892 27.3816 21.1953 26.6877 20.328 26.6877ZM20.328 28.7694C20.0678 28.7694 19.8076 28.5092 19.8076 28.249C19.8076 27.9888 20.0678 27.7286 20.328 27.7286C20.5882 27.7286 20.8484 27.9888 20.8484 28.249C20.8484 28.5092 20.5882 28.7694 20.328 28.7694Z" fill="url(#paint3_linear_1_63)"/>
<path d="M28.3083 26.6877C27.4409 26.6877 26.8338 27.3816 26.8338 28.1622C26.8338 29.0295 27.5277 29.6367 28.3083 29.6367C29.1756 29.6367 29.7828 28.9428 29.7828 28.1622C29.7828 27.3816 29.0889 26.6877 28.3083 26.6877ZM28.3083 28.7693C28.0481 28.7693 27.7879 28.5092 27.7879 28.2489C27.7879 27.9887 28.0481 27.7285 28.3083 27.7285C28.5685 27.7285 28.8287 27.9887 28.8287 28.2489C28.742 28.5092 28.5685 28.7693 28.3083 28.7693Z" fill="url(#paint4_linear_1_63)"/>
<path d="M24.3185 30.851C23.4511 30.851 22.844 31.5448 22.844 32.3255C22.844 33.1928 23.5379 33.8 24.3185 33.8C25.1858 33.8 25.793 33.1061 25.793 32.3255C25.793 31.5448 25.1858 30.851 24.3185 30.851ZM24.3185 32.8459C24.0583 32.8459 23.798 32.5857 23.798 32.3255C23.798 32.0653 24.0583 31.8051 24.3185 31.8051C24.5787 31.8051 24.8389 32.0653 24.8389 32.3255C24.8389 32.6724 24.5787 32.8459 24.3185 32.8459Z" fill="url(#paint5_linear_1_63)"/>
<path d="M20.328 30.8511C19.4606 30.8511 18.8535 31.5449 18.8535 32.3255C18.8535 33.1061 19.5474 33.8 20.328 33.8C21.1086 33.8 21.8025 33.1061 21.8025 32.3255C21.8892 31.5449 21.1953 30.8511 20.328 30.8511ZM20.328 32.846C20.0678 32.846 19.8076 32.5857 19.8076 32.3255C19.8076 32.0653 20.0678 31.8051 20.328 31.8051C20.5882 31.8051 20.8484 32.0653 20.8484 32.3255C20.8484 32.6725 20.5882 32.846 20.328 32.846Z" fill="url(#paint6_linear_1_63)"/>
<path d="M28.3083 30.851C27.4409 30.851 26.8338 31.5448 26.8338 32.3255C26.8338 33.1928 27.5277 33.8 28.3083 33.8C29.1756 33.8 29.7828 33.1061 29.7828 32.3255C29.7828 31.5448 29.0889 30.851 28.3083 30.851ZM28.3083 32.8459C28.0481 32.8459 27.7879 32.5857 27.7879 32.3255C27.7879 32.0653 28.0481 31.8051 28.3083 31.8051C28.5685 31.8051 28.8287 32.0653 28.8287 32.3255C28.742 32.6724 28.5685 32.8459 28.3083 32.8459Z" fill="url(#paint7_linear_1_63)"/>
<path d="M28.3083 22.6979C27.4409 22.6979 26.8338 23.3918 26.8338 24.1724C26.8338 25.0398 27.5277 25.6469 28.3083 25.6469C29.1756 25.6469 29.7828 24.953 29.7828 24.1724C29.7828 23.3051 29.0889 22.6979 28.3083 22.6979ZM28.3083 24.6928C28.0481 24.6928 27.7879 24.4326 27.7879 24.1724C27.7879 23.9122 28.0481 23.652 28.3083 23.652C28.5685 23.652 28.8287 23.9122 28.8287 24.1724C28.742 24.4326 28.5685 24.6928 28.3083 24.6928Z" fill="url(#paint8_linear_1_63)"/>
<path d="M32.2981 16.8867V5.69793C32.2981 5.43773 32.0379 5.17749 31.7777 5.17749H16.7726C16.5124 5.17749 16.2522 5.43773 16.2522 5.69793V16.8867C16.2522 17.1469 16.5124 17.4071 16.7726 17.4071H31.7777C32.0379 17.3204 32.2981 17.1469 32.2981 16.8867ZM31.2573 6.21832V13.3306H17.2062V6.21832H31.2573ZM17.2062 16.3663V14.3714H31.2573V16.3663H17.2062Z" fill="url(#paint9_linear_1_63)"/>
<path d="M31.7777 3.18262H16.8593C15.645 3.18262 14.6042 4.04995 14.4307 5.1775H13.3032C13.043 3.96322 12.0889 3.18262 10.8746 3.18262H4.80318C3.5889 3.18262 2.54809 4.04995 2.37462 5.1775H0.813356C0.553152 5.1775 0.292969 5.43774 0.292969 5.69794V35.2745C0.292969 35.5347 0.553152 35.7948 0.813356 35.7948H2.37462C2.63483 37.0091 3.5889 37.7898 4.80318 37.7898H10.8746C12.0889 37.7898 13.1297 36.9224 13.3032 35.7948H14.4307C14.6909 37.0091 15.645 37.7898 16.8593 37.7898H31.7777C33.1654 37.7898 34.293 36.6622 34.293 35.2745V5.69794C34.293 4.31019 33.1654 3.18262 31.7777 3.18262ZM1.24703 6.21833H2.28786V34.8408H1.24703V6.21833ZM12.3491 35.3612C12.3491 36.2285 11.6552 36.8357 10.8746 36.9224H4.80318C3.93584 36.9224 3.32868 36.2285 3.32868 35.3612V5.78466C3.32868 4.91731 4.02257 4.31018 4.80318 4.22344H10.8746C11.742 4.22344 12.3491 4.91731 12.3491 5.78466V35.3612ZM14.344 34.8408H13.3032V6.21833H14.2572L14.344 34.8408ZM31.7777 36.8357H16.8593C15.9919 36.8357 15.3848 36.1418 15.3848 35.2745V19.4887H16.8593C17.1195 19.4887 17.3797 19.2285 17.3797 18.9683C17.3797 18.7081 17.1195 18.4479 16.8593 18.4479H15.3848V5.61118C15.3848 4.74383 16.0787 4.1367 16.8593 4.04996H31.7777C32.645 4.04996 33.2522 4.74383 33.2522 5.61118V18.4479H18.7674C18.5072 18.4479 18.2471 18.7081 18.2471 18.9683C18.2471 19.2285 18.5072 19.4887 18.7674 19.4887H33.2522V35.2745C33.3389 36.1418 32.645 36.8357 31.7777 36.8357Z" fill="url(#paint10_linear_1_63)"/>
</g>
</g>
</g>
<defs>
<linearGradient id="paint0_linear_1_63" x1="24.3185" y1="22.6979" x2="24.3185" y2="25.6469" gradientUnits="userSpaceOnUse">
<stop stop-color="#0336E9"/>
<stop offset="1" stop-color="#1837A5"/>
</linearGradient>
<linearGradient id="paint1_linear_1_63" x1="20.3317" y1="22.698" x2="20.3317" y2="25.647" gradientUnits="userSpaceOnUse">
<stop stop-color="#0336E9"/>
<stop offset="1" stop-color="#1837A5"/>
</linearGradient>
<linearGradient id="paint2_linear_1_63" x1="24.3185" y1="26.6877" x2="24.3185" y2="29.6367" gradientUnits="userSpaceOnUse">
<stop stop-color="#0336E9"/>
<stop offset="1" stop-color="#1837A5"/>
</linearGradient>
<linearGradient id="paint3_linear_1_63" x1="20.3317" y1="26.6877" x2="20.3317" y2="29.6367" gradientUnits="userSpaceOnUse">
<stop stop-color="#0336E9"/>
<stop offset="1" stop-color="#1837A5"/>
</linearGradient>
<linearGradient id="paint4_linear_1_63" x1="28.3083" y1="26.6877" x2="28.3083" y2="29.6367" gradientUnits="userSpaceOnUse">
<stop stop-color="#0336E9"/>
<stop offset="1" stop-color="#1837A5"/>
</linearGradient>
<linearGradient id="paint5_linear_1_63" x1="24.3185" y1="30.851" x2="24.3185" y2="33.8" gradientUnits="userSpaceOnUse">
<stop stop-color="#0336E9"/>
<stop offset="1" stop-color="#1837A5"/>
</linearGradient>
<linearGradient id="paint6_linear_1_63" x1="20.3317" y1="30.8511" x2="20.3317" y2="33.8" gradientUnits="userSpaceOnUse">
<stop stop-color="#0336E9"/>
<stop offset="1" stop-color="#1837A5"/>
</linearGradient>
<linearGradient id="paint7_linear_1_63" x1="28.3083" y1="30.851" x2="28.3083" y2="33.8" gradientUnits="userSpaceOnUse">
<stop stop-color="#0336E9"/>
<stop offset="1" stop-color="#1837A5"/>
</linearGradient>
<linearGradient id="paint8_linear_1_63" x1="28.3083" y1="22.6979" x2="28.3083" y2="25.6469" gradientUnits="userSpaceOnUse">
<stop stop-color="#0336E9"/>
<stop offset="1" stop-color="#1837A5"/>
</linearGradient>
<linearGradient id="paint9_linear_1_63" x1="24.2751" y1="5.17749" x2="24.2751" y2="17.4071" gradientUnits="userSpaceOnUse">
<stop stop-color="#0336E9"/>
<stop offset="1" stop-color="#1837A5"/>
</linearGradient>
<linearGradient id="paint10_linear_1_63" x1="17.293" y1="3.18262" x2="17.293" y2="37.7898" gradientUnits="userSpaceOnUse">
<stop stop-color="#0336E9"/>
<stop offset="1" stop-color="#1837A5"/>
</linearGradient>
<clipPath id="clip0_1_63">
<rect width="34" height="40" fill="white" transform="translate(0.292969 0.529541)"/>
</clipPath>
<clipPath id="clip1_1_63">
<rect width="34" height="40" fill="white" transform="translate(0.292969 0.529541)"/>
</clipPath>
<clipPath id="clip2_1_63">
<rect width="34" height="34.6939" fill="white" transform="translate(0.292969 3.18262)"/>
</clipPath>
</defs>
</svg>
