<svg width="20" height="26" viewBox="0 0 35 41" fill="none" xmlns="http://www.w3.org/2000/svg">
<g clip-path="url(#clip0_1_301)">
<g clip-path="url(#clip1_1_301)">
<g clip-path="url(#clip2_1_301)">
<path d="M21.8594 24.6552L21.1057 25.4089L23.2831 27.5862C23.5343 27.8374 23.8693 27.8374 24.0367 27.5862L28.9776 22.6453L28.2239 21.8916L23.618 26.4975L21.8594 24.6552Z" fill="url(#paint0_linear_1_301)"/>
<path d="M33.8354 16.6996H30.9881C29.6482 16.6996 28.3083 16.2808 27.2197 15.4434L24.4561 13.4335C24.2886 13.266 23.9537 13.266 23.7862 13.4335L21.8601 14.8572V8.82762H25.796C26.131 8.82762 26.3822 8.57643 26.3822 8.24146V5.98036C26.3822 4.38923 25.1261 3.21683 23.5349 3.21683H7.6236C6.03247 3.21683 4.77632 4.47297 4.77632 5.98036V31.1035H0.840355C0.505379 31.1035 0.25415 31.3548 0.25415 31.6897V33.9508C0.25415 35.5419 1.51031 36.7144 3.10144 36.7144H19.0128C20.0177 36.7144 20.9389 36.2119 21.4413 35.3744L23.8699 36.6306C24.0374 36.7143 24.2049 36.7143 24.3724 36.6306L30.4019 33.5321C32.8305 32.2759 34.3379 29.8474 34.3379 27.0838V17.1183C34.3379 16.9508 34.0867 16.6996 33.8354 16.6996ZM21.8601 6.06409C21.8601 5.14291 22.6138 4.38921 23.5349 4.38921C24.4561 4.38921 25.2098 5.14291 25.2098 6.06409V7.73896H21.7763V6.06409H21.8601ZM4.86006 34.0346C4.86006 34.9557 4.10637 35.7094 3.18518 35.7094C2.264 35.7094 1.51031 34.9557 1.51031 34.0346V32.3597H4.9438V34.0346H4.86006ZM19.0965 35.7094H5.44627C5.86498 35.207 6.03248 34.6208 6.03248 34.0346V6.14786C6.03248 5.22668 6.78617 4.47299 7.70735 4.47299H21.3576C20.9389 4.97545 20.7714 5.56166 20.7714 6.14786V15.7784C19.7665 16.4484 18.5941 16.7833 17.3379 16.7833H14.4906C14.1556 16.7833 13.9044 17.0345 13.9044 17.3695V17.9557H8.20982V19.0444H13.9044V21.3055H8.20982V22.3941H13.9044V24.6552H8.20982V25.7439H13.9044V27.335C13.9044 27.5863 13.9044 27.7538 13.9044 28.005H8.20982V29.0936H14.1556C14.3231 29.9311 14.7418 30.6848 15.1606 31.3547H8.20982V32.4434H16.0817C16.5842 32.9459 17.1704 33.3646 17.8404 33.6996L20.4364 35.0395C20.1852 35.3745 19.599 35.7094 19.0965 35.7094ZM33.2492 27.1675C33.2492 29.4286 31.9931 31.5222 29.8995 32.6109L24.1211 35.6257L18.3428 32.6109C16.333 31.5222 14.9931 29.5124 14.9931 27.1675V17.7882H17.2541C18.8453 17.7882 20.3527 17.2858 21.6926 16.3646L24.0374 14.606L26.3822 16.3646C27.6384 17.2858 29.2295 17.7882 30.8207 17.7882H33.0817L33.2492 27.1675Z" fill="url(#paint1_linear_1_301)"/>
<path d="M16.6688 7.73891H14.9939V6.06403C14.9939 5.72906 14.7427 5.47781 14.4077 5.47781H12.2303C11.8954 5.47781 11.6441 5.72906 11.6441 6.06403V7.73891H9.96926C9.63429 7.73891 9.38306 7.99015 9.38306 8.32512V10.5024C9.38306 10.8374 9.63429 11.0887 9.96926 11.0887H11.6441V12.7635C11.6441 13.0985 11.8954 13.3498 12.2303 13.3498H14.4077C14.7427 13.3498 14.9939 13.0985 14.9939 12.7635V11.0887H16.6688C17.0037 11.0887 17.255 10.8374 17.255 10.5024V8.32512C17.255 7.99015 17.0037 7.73891 16.6688 7.73891ZM16.0826 9.91628H14.4077C14.0727 9.91628 13.8215 10.1675 13.8215 10.5024V12.1773H12.7328V10.5024C12.7328 10.1675 12.4816 9.91628 12.1466 9.91628H10.4717V8.82757H12.1466C12.4816 8.82757 12.7328 8.57638 12.7328 8.2414V6.56652H13.8215V8.2414C13.8215 8.57638 14.0727 8.82757 14.4077 8.82757H16.0826V9.91628Z" fill="url(#paint2_linear_1_301)"/>
<path d="M26.0472 17.4533L24.7073 16.4483C24.5399 16.2808 24.2049 16.2808 24.0374 16.4483L22.6975 17.4533C21.2738 18.5419 19.5152 19.1281 17.7566 19.1281H17.1704C16.8354 19.1281 16.5842 19.3793 16.5842 19.7143V27.335C16.5842 29.1774 17.5891 30.8523 19.264 31.7734L24.1211 34.3695C24.2886 34.4532 24.4561 34.4532 24.6236 34.3695L29.4808 31.7734C31.0719 30.936 32.1606 29.1774 32.1606 27.335V19.7143C32.1606 19.3793 31.9093 19.1281 31.5743 19.1281H30.9881C29.2295 19.1281 27.5546 18.5419 26.0472 17.4533ZM31.0719 27.2513C31.0719 28.6749 30.3182 30.0148 28.9783 30.6848L24.3724 33.1133L19.7665 30.6848C18.5103 30.0148 17.6729 28.6749 17.6729 27.2513V20.2168C19.6827 20.2168 21.6926 19.5468 23.2837 18.3744L24.2886 17.6207L25.2936 18.3744C26.8847 19.6306 28.8945 20.2168 30.9044 20.2168V27.2513H31.0719Z" fill="url(#paint3_linear_1_301)"/>
<path d="M18.2591 14.5222H8.46104V15.8621H18.2591V14.5222Z" fill="url(#paint4_linear_1_301)"/>
</g>
</g>
</g>
<defs>
<linearGradient id="paint0_linear_1_301" x1="25.0417" y1="21.8916" x2="25.0417" y2="27.7746" gradientUnits="userSpaceOnUse">
<stop stop-color="#0336E9"/>
<stop offset="1" stop-color="#1837A5"/>
</linearGradient>
<linearGradient id="paint1_linear_1_301" x1="17.296" y1="3.21683" x2="17.296" y2="36.7144" gradientUnits="userSpaceOnUse">
<stop stop-color="#0336E9"/>
<stop offset="1" stop-color="#1837A5"/>
</linearGradient>
<linearGradient id="paint2_linear_1_301" x1="13.319" y1="5.47781" x2="13.319" y2="13.3498" gradientUnits="userSpaceOnUse">
<stop stop-color="#0336E9"/>
<stop offset="1" stop-color="#1837A5"/>
</linearGradient>
<linearGradient id="paint3_linear_1_301" x1="24.3724" y1="16.3227" x2="24.3724" y2="34.4323" gradientUnits="userSpaceOnUse">
<stop stop-color="#0336E9"/>
<stop offset="1" stop-color="#1837A5"/>
</linearGradient>
<linearGradient id="paint4_linear_1_301" x1="13.3601" y1="14.5222" x2="13.3601" y2="15.8621" gradientUnits="userSpaceOnUse">
<stop stop-color="#0336E9"/>
<stop offset="1" stop-color="#1837A5"/>
</linearGradient>
<clipPath id="clip0_1_301">
<rect width="34" height="40" fill="white" transform="translate(0.337891 0.0493164)"/>
</clipPath>
<clipPath id="clip1_1_301">
<rect width="34" height="40" fill="white" transform="translate(0.337891 0.0493164)"/>
</clipPath>
<clipPath id="clip2_1_301">
<rect width="34" height="33.4975" fill="white" transform="translate(0.337891 3.30055)"/>
</clipPath>
</defs>
</svg>
