<svg width="20" height="26" viewBox="0 0 35 41" fill="none" xmlns="http://www.w3.org/2000/svg">
<g clip-path="url(#clip0_1_222)">
<g clip-path="url(#clip1_1_222)">
<g clip-path="url(#clip2_1_222)">
<path d="M32.4982 2.44183H24.9205C24.6214 2.44183 24.3223 2.74095 24.3223 3.04007C24.3223 3.33919 24.6214 3.63831 24.9205 3.63831H32.4982C32.8971 3.63831 33.1962 3.93743 33.1962 4.33626V31.0577C33.1962 31.3568 33.4953 31.6559 33.7944 31.6559C34.0936 31.6559 34.3927 31.3568 34.3927 31.0577V4.33626C34.293 3.23949 33.4953 2.44183 32.4982 2.44183Z" fill="url(#paint0_linear_1_222)"/>
<path d="M33.6947 33.4506C33.3956 33.4506 33.0965 33.7498 33.0965 34.0489V38.3363C33.0965 38.7351 32.7974 39.0342 32.3985 39.0342H2.1874C1.78857 39.0342 1.48945 38.7351 1.48945 38.3363V4.33626C1.48945 3.93743 1.78857 3.63831 2.1874 3.63831H9.86482C10.1639 3.63831 10.4631 3.33919 10.4631 3.04007C10.4631 2.74095 10.1639 2.44183 9.86482 2.44183H2.1874C1.19033 2.44183 0.292969 3.33919 0.292969 4.33626V38.3363C0.292969 39.3333 1.19033 40.2307 2.1874 40.2307H32.3985C33.3956 40.2307 34.293 39.3333 34.293 38.3363V34.0489C34.293 33.7498 34.0936 33.4506 33.6947 33.4506Z" fill="url(#paint1_linear_1_222)"/>
<path d="M10.2634 5.33329C10.2634 5.03417 9.96424 4.73505 9.66512 4.73505H3.18418C2.88506 4.73505 2.58594 5.03417 2.58594 5.33329V16.2013C2.58594 16.5004 2.88506 16.7996 3.18418 16.7996C3.4833 16.7996 3.78242 16.5004 3.78242 16.2013V5.93153H9.76482C10.0639 5.93153 10.2634 5.63241 10.2634 5.33329Z" fill="url(#paint2_linear_1_222)"/>
<path d="M2.58594 37.3391C2.58594 37.6383 2.88506 37.9374 3.18418 37.9374H31.4012C31.7003 37.9374 31.9994 37.6383 31.9994 37.3391V5.33329C31.9994 5.03417 31.7003 4.73505 31.4012 4.73505H24.7208C24.4217 4.73505 24.2223 5.03417 24.2223 5.33329C24.2223 5.63241 24.5214 5.93153 24.8205 5.93153H30.9027V36.7409H3.78242V18.8934C3.78242 18.5943 3.58301 18.2952 3.18418 18.2952C2.78535 18.2952 2.58594 18.4946 2.58594 18.8934V37.3391Z" fill="url(#paint3_linear_1_222)"/>
<path d="M12.9562 9.02244H13.9533C14.2524 9.02244 14.5516 8.72332 14.5516 8.4242C14.5516 8.12508 14.2524 7.82596 13.9533 7.82596H12.9562C12.9562 7.82596 12.8565 7.82596 12.8565 7.72625V2.84062C12.8565 2.84062 12.8565 2.74092 12.9562 2.74092H15.3492C15.5486 2.74092 15.748 2.64121 15.8477 2.34209C16.1469 1.54444 17.0442 1.14561 17.8419 1.54444C18.2407 1.74385 18.5398 2.04297 18.6395 2.34209C18.7392 2.5415 18.9387 2.74092 19.1381 2.74092H21.531C21.531 2.74092 21.6307 2.74092 21.6307 2.84062V7.72625C21.6307 7.72625 21.6307 7.82596 21.531 7.82596H16.1469C15.8477 7.82596 15.5486 8.12508 15.5486 8.4242C15.5486 8.72332 15.8477 9.02244 16.1469 9.02244H21.531C22.229 9.02244 22.7275 8.52391 22.7275 7.82596V2.84062C22.7275 2.14268 22.229 1.64414 21.531 1.64414H19.4372C18.8389 0.347956 17.2436 -0.0508715 15.9474 0.746783C15.5486 0.946196 15.2495 1.24532 15.0501 1.64414H12.9562C12.2583 1.64414 11.7598 2.14268 11.7598 2.84062V7.72625C11.7598 8.4242 12.2583 9.02244 12.9562 9.02244Z" fill="url(#paint4_linear_1_222)"/>
<path d="M15.6478 5.33332C15.6478 5.0342 15.3487 4.73508 15.0496 4.73508H14.6507C14.3516 4.73508 14.0525 5.0342 14.0525 5.33332C14.0525 5.63244 14.3516 5.93156 14.6507 5.93156H15.0496C15.3487 5.93156 15.6478 5.63244 15.6478 5.33332Z" fill="url(#paint5_linear_1_222)"/>
<path d="M20.0342 5.93153C20.3333 5.93153 20.6324 5.63241 20.6324 5.33329C20.6324 5.03417 20.3333 4.73505 20.0342 4.73505H19.6354C19.3362 4.73505 19.0371 5.03417 19.0371 5.33329C19.0371 5.63241 19.3362 5.93153 19.6354 5.93153H20.0342Z" fill="url(#paint6_linear_1_222)"/>
<path d="M10.3624 11.6148C10.3624 11.3157 10.0633 11.0165 9.76416 11.0165C9.56475 11.1162 9.26562 11.3157 9.26562 11.6148V15.8025C9.26562 16.2013 9.66445 16.6001 10.0633 16.6001H11.2598C11.5589 16.6001 11.858 16.301 11.858 16.0019C11.858 15.7028 11.5589 15.4036 11.2598 15.4036H10.4621L10.3624 11.6148Z" fill="url(#paint7_linear_1_222)"/>
<path d="M12.6562 12.8114V14.9053C12.6562 15.8026 13.4539 16.6003 14.3513 16.6003C15.2486 16.6003 16.0463 15.8026 16.0463 14.9053V12.8114C16.0463 11.914 15.2486 11.1164 14.3513 11.1164C13.4539 11.1164 12.6562 11.8143 12.6562 12.8114ZM13.8527 12.8114C13.8527 12.5123 14.1519 12.2132 14.451 12.2132C14.7501 12.2132 15.0492 12.5123 15.0492 12.8114V14.9053C15.0492 15.2044 14.7501 15.5035 14.451 15.5035C14.1519 15.5035 13.8527 15.2044 13.8527 14.9053V12.8114Z" fill="url(#paint8_linear_1_222)"/>
<path d="M20.2351 16.6001C20.5343 16.6001 20.8334 16.301 20.8334 16.0019V12.3127C20.8334 11.6148 20.2351 11.0165 19.5372 11.0165H18.7395C18.0416 11.0165 17.4434 11.6148 17.4434 12.3127V16.0019C17.4434 16.301 17.7425 16.6001 18.0416 16.6001C18.3407 16.6001 18.6398 16.301 18.6398 16.0019V14.5063H19.7366V16.0019C19.6369 16.4007 19.936 16.6001 20.2351 16.6001ZM18.5401 13.4095V12.4124C18.5401 12.3127 18.6398 12.213 18.7395 12.213H19.5372C19.6369 12.213 19.7366 12.3127 19.7366 12.4124V13.4095H18.5401Z" fill="url(#paint9_linear_1_222)"/>
<path d="M22.4281 11.1162C22.129 11.2159 22.0293 11.4153 22.0293 11.7145V16.1016C22.0293 16.4007 22.3284 16.6998 22.6275 16.6998C22.9267 16.6998 23.2258 16.4007 23.2258 16.1016V14.2071L24.2228 16.301C24.3226 16.6001 24.7214 16.6998 25.0205 16.6001C25.2199 16.5004 25.3196 16.301 25.3196 16.1016V11.7145C25.3196 11.4153 25.0205 11.1162 24.7214 11.1162C24.4223 11.1162 24.1231 11.4153 24.1231 11.7145V13.6089L23.1261 11.5151C23.0264 11.1162 22.7272 11.0165 22.4281 11.1162Z" fill="url(#paint10_linear_1_222)"/>
<path d="M9.96416 19.2922H9.26621C8.96709 19.2922 8.66797 19.5913 8.66797 19.8904C8.66797 20.1895 8.96709 20.4887 9.26621 20.4887H9.96416C10.2633 20.4887 10.5624 20.1895 10.5624 19.8904C10.5624 19.5913 10.2633 19.2922 9.96416 19.2922Z" fill="url(#paint11_linear_1_222)"/>
<path d="M12.2578 19.8905C12.2578 20.1896 12.5569 20.4887 12.856 20.4887H27.4132C27.7123 20.4887 28.0114 20.1896 28.0114 19.8905C28.0114 19.5914 27.7123 19.2923 27.4132 19.2923H12.856C12.5569 19.2923 12.2578 19.5914 12.2578 19.8905Z" fill="url(#paint12_linear_1_222)"/>
<path d="M6.37509 22.782C6.37509 23.0811 6.67421 23.3802 6.97333 23.3802H27.6126C27.9117 23.3802 28.2109 23.0811 28.2109 22.782C28.2109 22.4829 27.9117 22.1838 27.6126 22.1838H6.97333C6.67421 22.2835 6.37509 22.4829 6.37509 22.782Z" fill="url(#paint13_linear_1_222)"/>
<path d="M28.2109 25.7732C28.2109 25.4741 27.9117 25.175 27.6126 25.175H6.97333C6.67421 25.175 6.37509 25.4741 6.37509 25.7732C6.37509 26.0723 6.67421 26.3715 6.97333 26.3715H27.6126C27.9117 26.3715 28.2109 26.0723 28.2109 25.7732Z" fill="url(#paint14_linear_1_222)"/>
<path d="M13.8132 32.9628V33.9317H10.0498V32.9628H13.8132ZM10.3955 26.8431V33.9317H9.17351V26.8431H10.3955ZM13.3215 29.8032V30.7574H10.0498V29.8032H13.3215ZM13.7888 26.8431V27.8168H10.0498V26.8431H13.7888ZM15.3078 26.8431H16.3984L18.448 32.3105L20.4928 26.8431H21.5833L18.8764 33.9317H18.0098L15.3078 26.8431ZM14.8112 26.8431H15.8482L16.0283 31.5753V33.9317H14.8112V26.8431ZM21.0429 26.8431H22.0848V33.9317H20.8628V31.5753L21.0429 26.8431ZM24.8403 26.8431V33.9317H23.6183V26.8431H24.8403Z" fill="url(#paint15_linear_1_222)"/>
</g>
</g>
</g>
<defs>
<linearGradient id="paint0_linear_1_222" x1="29.3575" y1="2.44183" x2="29.3575" y2="31.6559" gradientUnits="userSpaceOnUse">
<stop stop-color="#0336E9"/>
<stop offset="1" stop-color="#1837A5"/>
</linearGradient>
<linearGradient id="paint1_linear_1_222" x1="17.293" y1="2.44183" x2="17.293" y2="40.2307" gradientUnits="userSpaceOnUse">
<stop stop-color="#0336E9"/>
<stop offset="1" stop-color="#1837A5"/>
</linearGradient>
<linearGradient id="paint2_linear_1_222" x1="6.42465" y1="4.73505" x2="6.42465" y2="16.7996" gradientUnits="userSpaceOnUse">
<stop stop-color="#0336E9"/>
<stop offset="1" stop-color="#1837A5"/>
</linearGradient>
<linearGradient id="paint3_linear_1_222" x1="17.2927" y1="4.73505" x2="17.2927" y2="37.9374" gradientUnits="userSpaceOnUse">
<stop stop-color="#0336E9"/>
<stop offset="1" stop-color="#1837A5"/>
</linearGradient>
<linearGradient id="paint4_linear_1_222" x1="17.2436" y1="0.336121" x2="17.2436" y2="9.02244" gradientUnits="userSpaceOnUse">
<stop stop-color="#0336E9"/>
<stop offset="1" stop-color="#1837A5"/>
</linearGradient>
<linearGradient id="paint5_linear_1_222" x1="14.8501" y1="4.73508" x2="14.8501" y2="5.93156" gradientUnits="userSpaceOnUse">
<stop stop-color="#0336E9"/>
<stop offset="1" stop-color="#1837A5"/>
</linearGradient>
<linearGradient id="paint6_linear_1_222" x1="19.8348" y1="4.73505" x2="19.8348" y2="5.93153" gradientUnits="userSpaceOnUse">
<stop stop-color="#0336E9"/>
<stop offset="1" stop-color="#1837A5"/>
</linearGradient>
<linearGradient id="paint7_linear_1_222" x1="10.5618" y1="11.0165" x2="10.5618" y2="16.6001" gradientUnits="userSpaceOnUse">
<stop stop-color="#0336E9"/>
<stop offset="1" stop-color="#1837A5"/>
</linearGradient>
<linearGradient id="paint8_linear_1_222" x1="14.3513" y1="11.1164" x2="14.3513" y2="16.6003" gradientUnits="userSpaceOnUse">
<stop stop-color="#0336E9"/>
<stop offset="1" stop-color="#1837A5"/>
</linearGradient>
<linearGradient id="paint9_linear_1_222" x1="19.1384" y1="11.0165" x2="19.1384" y2="16.6001" gradientUnits="userSpaceOnUse">
<stop stop-color="#0336E9"/>
<stop offset="1" stop-color="#1837A5"/>
</linearGradient>
<linearGradient id="paint10_linear_1_222" x1="23.6745" y1="11.0803" x2="23.6745" y2="16.6998" gradientUnits="userSpaceOnUse">
<stop stop-color="#0336E9"/>
<stop offset="1" stop-color="#1837A5"/>
</linearGradient>
<linearGradient id="paint11_linear_1_222" x1="9.61518" y1="19.2922" x2="9.61518" y2="20.4887" gradientUnits="userSpaceOnUse">
<stop stop-color="#0336E9"/>
<stop offset="1" stop-color="#1837A5"/>
</linearGradient>
<linearGradient id="paint12_linear_1_222" x1="20.1346" y1="19.2923" x2="20.1346" y2="20.4887" gradientUnits="userSpaceOnUse">
<stop stop-color="#0336E9"/>
<stop offset="1" stop-color="#1837A5"/>
</linearGradient>
<linearGradient id="paint13_linear_1_222" x1="17.293" y1="22.1838" x2="17.293" y2="23.3802" gradientUnits="userSpaceOnUse">
<stop stop-color="#0336E9"/>
<stop offset="1" stop-color="#1837A5"/>
</linearGradient>
<linearGradient id="paint14_linear_1_222" x1="17.293" y1="25.175" x2="17.293" y2="26.3715" gradientUnits="userSpaceOnUse">
<stop stop-color="#0336E9"/>
<stop offset="1" stop-color="#1837A5"/>
</linearGradient>
<linearGradient id="paint15_linear_1_222" x1="17.453" y1="24.9317" x2="17.453" y2="36.9317" gradientUnits="userSpaceOnUse">
<stop stop-color="#0336E9"/>
<stop offset="1" stop-color="#1837A5"/>
</linearGradient>
<clipPath id="clip0_1_222">
<rect width="34" height="40" fill="white" transform="translate(0.292969 0.289307)"/>
</clipPath>
<clipPath id="clip1_1_222">
<rect width="34" height="40" fill="white" transform="translate(0.292969 0.289307)"/>
</clipPath>
<clipPath id="clip2_1_222">
<rect width="34" height="39.8827" fill="white" transform="translate(0.292969 0.347961)"/>
</clipPath>
</defs>
</svg>
