<svg width="20" height="26" viewBox="0 0 35 41" fill="none" xmlns="http://www.w3.org/2000/svg">
<g clip-path="url(#clip0_1_116)">
<g clip-path="url(#clip1_1_116)">
<g clip-path="url(#clip2_1_116)">
<path d="M26.6336 15.7356H25.0336C24.7336 15.7356 24.4336 16.0356 24.4336 16.3356C24.4336 16.6356 24.7336 16.9356 25.0336 16.9356H26.6336C26.9336 16.9356 27.2336 16.6356 27.2336 16.3356C27.2336 16.0356 26.9336 15.7356 26.6336 15.7356Z" fill="url(#paint0_linear_1_116)"/>
<path d="M29.6926 16.3295C29.6926 12.5295 26.7926 9.32954 22.8926 9.02954V1.12954C22.8926 0.829541 22.5926 0.529541 22.2926 0.529541H12.1926C11.8926 0.529541 11.6926 0.829541 11.6926 1.12954V9.02954C7.79258 9.32954 4.89258 12.5295 4.89258 16.3295V33.2295C4.89258 35.2295 6.29258 36.8295 8.29258 37.1295V39.9295C8.29258 40.2295 8.49258 40.5295 8.89258 40.5295H25.7926C26.0926 40.5295 26.3926 40.2295 26.3926 39.9295V37.1295C28.2926 36.8295 29.7926 35.1295 29.7926 33.2295L29.6926 16.3295ZM12.7926 1.72954H21.7926V9.02954H19.1926V6.22954C19.1926 5.92954 18.8926 5.62954 18.5926 5.62954H16.0926C15.7926 5.62954 15.4926 5.92954 15.4926 6.22954V9.02954H12.7926V1.72954ZM17.9926 6.72954V8.92954H16.5926V6.72954H17.9926ZM25.1926 39.3295H9.49258V37.1295H25.1926V39.3295ZM28.4926 32.6295H12.3926C12.0926 32.6295 11.7926 32.9295 11.7926 33.2295C11.7926 33.5295 12.0926 33.8295 12.3926 33.8295H28.3926C28.0926 35.1295 26.9926 36.0295 25.6926 36.0295H8.89258C7.39258 36.0295 6.09258 34.7295 6.09258 33.2295V16.9295H22.1926C22.4926 16.9295 22.7926 16.6295 22.7926 16.3295C22.7926 16.0295 22.4926 15.7295 22.1926 15.7295H6.09258C6.39258 12.5295 9.09258 10.1295 12.1926 10.1295H22.2926C25.6926 10.1295 28.4926 12.9295 28.4926 16.3295V32.6295Z" fill="url(#paint1_linear_1_116)"/>
<path d="M9.56523 32.7915H7.96523C7.66523 32.7915 7.36523 33.0915 7.36523 33.3915C7.36523 33.6915 7.66523 33.9915 7.96523 33.9915H9.56523C9.86523 33.9915 10.1652 33.6915 10.1652 33.3915C10.1652 33.0915 9.86523 32.7915 9.56523 32.7915Z" fill="url(#paint2_linear_1_116)"/>
<path d="M21.1121 25.9707C21.1121 25.8707 21.1121 25.8707 21.1121 25.8707C21.0121 23.2707 19.7121 20.8707 17.6121 19.3707C17.3121 19.1707 17.0121 19.2707 16.8121 19.5707C16.7121 19.5707 16.7121 19.6707 16.7121 19.7707C16.7121 20.5707 16.4121 21.3707 15.9121 21.9707L15.7121 21.7707C15.4121 21.4707 15.1121 21.4707 14.9121 21.7707C14.9121 21.7707 14.9121 21.8707 14.8121 21.8707C14.1121 22.8707 13.6121 24.0707 13.5121 25.3707C13.4121 25.6707 13.4121 26.0707 13.4121 26.4707C13.4121 26.6707 13.4121 26.7707 13.4121 26.9707C13.7121 29.0707 15.6121 30.5707 17.7121 30.2707C19.6121 29.9707 21.1121 28.3707 21.1121 26.4707C21.2121 26.3707 21.1121 26.1707 21.1121 25.9707ZM17.3121 29.1707C15.9121 29.1707 14.8121 28.1707 14.6121 26.7707C14.5121 25.4707 14.7121 24.1707 15.4121 23.0707L15.6121 23.2707C15.7121 23.3707 15.8121 23.4707 16.0121 23.4707C16.2121 23.4707 16.3121 23.3707 16.4121 23.2707C17.0121 22.5707 17.5121 21.7707 17.7121 20.8707C19.1121 22.1707 19.9121 23.9707 20.0121 25.8707C20.0121 25.8707 20.0121 25.9707 20.0121 26.0707C20.0121 26.1707 20.0121 26.3707 20.0121 26.3707C20.0121 27.9707 18.8121 29.1707 17.3121 29.1707Z" fill="url(#paint3_linear_1_116)"/>
</g>
</g>
</g>
<defs>
<linearGradient id="paint0_linear_1_116" x1="25.8336" y1="15.7356" x2="25.8336" y2="16.9356" gradientUnits="userSpaceOnUse">
<stop stop-color="#0336E9"/>
<stop offset="1" stop-color="#1837A5"/>
</linearGradient>
<linearGradient id="paint1_linear_1_116" x1="17.3426" y1="0.529541" x2="17.3426" y2="40.5295" gradientUnits="userSpaceOnUse">
<stop stop-color="#0336E9"/>
<stop offset="1" stop-color="#1837A5"/>
</linearGradient>
<linearGradient id="paint2_linear_1_116" x1="8.76523" y1="32.7915" x2="8.76523" y2="33.9915" gradientUnits="userSpaceOnUse">
<stop stop-color="#0336E9"/>
<stop offset="1" stop-color="#1837A5"/>
</linearGradient>
<linearGradient id="paint3_linear_1_116" x1="17.2843" y1="19.2666" x2="17.2843" y2="30.3089" gradientUnits="userSpaceOnUse">
<stop stop-color="#0336E9"/>
<stop offset="1" stop-color="#1837A5"/>
</linearGradient>
<clipPath id="clip0_1_116">
<rect width="34" height="40" fill="white" transform="translate(0.292969 0.529541)"/>
</clipPath>
<clipPath id="clip1_1_116">
<rect width="34" height="40" fill="white" transform="translate(0.292969 0.529541)"/>
</clipPath>
<clipPath id="clip2_1_116">
<rect width="24.8" height="40" fill="white" transform="translate(4.89258 0.529541)"/>
</clipPath>
</defs>
</svg>
