<svg width="20" height="26" viewBox="0 0 35 41" fill="none" xmlns="http://www.w3.org/2000/svg">
<g clip-path="url(#clip0_1_335)">
<g clip-path="url(#clip1_1_335)">
<path fill-rule="evenodd" clip-rule="evenodd" d="M2.88508 30.0249H30.0851C30.4251 30.0249 30.6801 30.2799 30.6801 30.6199C30.6801 30.9599 30.4251 31.1299 30.0851 31.1299H2.88508C2.54508 31.1299 2.29008 30.8749 2.29008 30.5349C2.29008 30.1949 2.63008 30.0249 2.88508 30.0249ZM15.9751 24.3299C15.3801 24.3299 14.8701 23.8199 14.8701 23.2249V18.7199C14.8701 18.1249 15.3801 17.6149 15.9751 17.6149H18.2701C18.8651 17.6149 19.3751 18.1249 19.3751 18.7199V23.2249C19.3751 23.8199 18.8651 24.3299 18.2701 24.3299H15.9751ZM15.9751 23.2249H18.2701V18.7199H15.9751V23.2249ZM4.58508 17.5299H2.88508C2.54508 17.5299 2.29008 17.7849 2.29008 18.1249C2.29008 18.4649 2.54508 18.7199 2.88508 18.7199H4.58508V23.2249H2.88508C2.54508 23.2249 2.29008 23.4799 2.29008 23.8199C2.37508 24.0749 2.63008 24.3299 2.88508 24.3299H4.58508C5.18008 24.3299 5.69008 23.8199 5.69008 23.2249V18.7199C5.77508 18.0399 5.26508 17.5299 4.58508 17.5299ZM33.4001 25.6899L24.9001 14.3849C24.9001 14.2999 24.0501 12.9399 22.1801 12.9399H2.88508C2.54508 12.9399 2.29008 13.1949 2.29008 13.5349C2.29008 13.8749 2.63008 14.1299 2.88508 14.1299H22.1801C23.3701 14.1299 23.9651 14.9799 23.9651 15.0649L30.0851 23.2249H28.3851V22.6299C28.3851 22.2899 28.1301 22.0349 27.7901 22.0349C27.4501 22.0349 27.1951 22.2899 27.1951 22.6299V23.2249H22.6901V18.7199H24.3901C24.7301 18.7199 24.9851 18.4649 24.9851 18.1249C24.9851 17.7849 24.7301 17.5299 24.3901 17.5299H22.6901C22.0951 17.5299 21.5851 18.0399 21.5851 18.6349V23.1399C21.5851 23.7349 22.0951 24.2449 22.6901 24.2449H30.9351L32.4651 26.2849C32.4651 26.2849 32.8901 26.8799 32.8901 28.1549V29.8549H32.3801C32.0401 29.8549 31.7851 30.1099 31.7851 30.4499C31.7851 30.7899 32.0401 31.0449 32.3801 31.0449H32.9751V32.7449C32.9751 33.0849 32.7201 33.3399 32.3801 33.3399H2.88508C2.54508 33.3399 2.29008 33.5949 2.29008 33.9349C2.29008 34.2749 2.63008 34.5299 2.88508 34.5299H32.3801C33.3151 34.5299 34.0801 33.7649 34.0801 32.8299V28.3249C34.0801 26.5399 33.4851 25.7749 33.4001 25.6899ZM13.0851 28.8349C13.4251 28.8349 13.6801 28.5799 13.6801 28.2399V18.6349C13.6801 18.0399 13.1701 17.5299 12.5751 17.5299H7.98508C7.39008 17.5299 6.88008 18.0399 6.88008 18.6349V28.2399C6.88008 28.5799 7.13508 28.8349 7.47508 28.8349C7.81508 28.8349 8.07008 28.5799 8.07008 28.2399V18.6349H12.5751V28.2399C12.5751 28.5799 12.8301 28.8349 13.0851 28.8349ZM33.4851 36.8249H29.4901V36.2299C29.4901 35.8899 29.2351 35.6349 28.8951 35.6349C28.5551 35.6349 28.3001 35.8899 28.3001 36.2299V36.8249H23.8801V36.2299C23.8801 35.8899 23.6251 35.6349 23.2851 35.6349C22.9451 35.6349 22.6901 35.8899 22.6901 36.2299V36.8249H18.1851V36.2299C18.1851 35.8899 17.9301 35.6349 17.5901 35.6349C17.2501 35.6349 17.0801 35.8899 17.0801 36.2299V36.8249H12.5751V36.2299C12.5751 35.8899 12.3201 35.6349 11.9801 35.6349C11.6401 35.6349 11.3851 35.8899 11.3851 36.2299V36.8249H6.88008V36.2299C6.88008 35.8899 6.62508 35.6349 6.28508 35.6349C5.94508 35.6349 5.77508 35.8899 5.77508 36.2299V36.8249H1.18508V7.92493C1.18508 6.39493 2.46008 5.11993 3.99008 5.11993C5.60508 5.03493 6.88008 6.30993 6.88008 7.92493V11.3249C6.88008 11.5799 7.13508 11.8349 7.47508 11.8349C7.73008 11.8349 7.98508 11.5799 7.98508 11.3249V7.92493C7.98508 5.71493 6.20008 3.92993 4.07508 3.92993C1.86508 3.92993 0.0800781 5.71493 0.0800781 7.92493V37.4199C0.0800781 37.6749 0.335078 37.9299 0.675078 37.9299H33.5701C33.9101 37.9299 34.1651 37.6749 34.1651 37.3349C34.0801 37.0799 33.8251 36.8249 33.4851 36.8249Z" fill="url(#paint0_linear_1_335)"/>
</g>
</g>
<defs>
<linearGradient id="paint0_linear_1_335" x1="17.1226" y1="3.92993" x2="17.1226" y2="37.9299" gradientUnits="userSpaceOnUse">
<stop stop-color="#0336E9"/>
<stop offset="1" stop-color="#1837A5"/>
</linearGradient>
<clipPath id="clip0_1_335">
<rect width="34" height="40" fill="white" transform="translate(0.0800781 0.929932)"/>
</clipPath>
<clipPath id="clip1_1_335">
<rect width="34" height="34" fill="white" transform="translate(0.0800781 3.92993)"/>
</clipPath>
</defs>
</svg>
