<svg width="20" height="26" viewBox="0 0 35 41" fill="none" xmlns="http://www.w3.org/2000/svg">
<g clip-path="url(#clip0_1_39)">
<g clip-path="url(#clip1_1_39)">
<g clip-path="url(#clip2_1_39)">
<path d="M19.852 35.2412H15.5152C15.2895 35.2412 15.073 35.3309 14.9134 35.4905C14.7537 35.6501 14.6641 35.8666 14.6641 36.0923C14.6641 36.3181 14.7537 36.5345 14.9134 36.6942C15.073 36.8538 15.2895 36.9435 15.5152 36.9435H19.852C20.0777 36.9435 20.2942 36.8538 20.4538 36.6942C20.6134 36.5345 20.7031 36.3181 20.7031 36.0923C20.7031 35.8666 20.6134 35.6501 20.4538 35.4905C20.2942 35.3309 20.0777 35.2412 19.852 35.2412Z" fill="url(#paint0_linear_1_39)"/>
<path d="M33.4995 13.3956C32.0573 13.344 30.643 13.8018 29.5045 14.6887C29.4114 14.7669 29.3153 14.8531 29.2192 14.9473V2.77404C29.2176 2.22794 29 1.70465 28.6138 1.31849C28.2277 0.932338 27.7044 0.714703 27.1583 0.713135H8.13452C7.58842 0.714703 7.06513 0.932338 6.67897 1.31849C6.29282 1.70465 6.07518 2.22794 6.07362 2.77404V4.88251L5.97453 4.78342C5.35016 4.15905 4.50333 3.80829 3.62034 3.80829C2.73735 3.80829 1.89052 4.15905 1.26615 4.78342C0.641784 5.40779 0.291016 6.25462 0.291016 7.13761C0.291016 8.02061 0.641784 8.86743 1.26615 9.4918L4.69241 12.923C4.13768 13.085 3.63466 13.3887 3.23281 13.804C2.83096 14.2193 2.54412 14.7321 2.40048 15.2919C2.25683 15.8516 2.26134 16.4392 2.41355 16.9967C2.56576 17.5542 2.86043 18.0625 3.2686 18.4716L5.21953 20.4225C4.59988 20.4978 4.01388 20.7457 3.52845 21.1381C3.04301 21.5305 2.67771 22.0515 2.47426 22.6416C2.2708 23.2317 2.2374 23.8672 2.37786 24.4754C2.51832 25.0836 2.82698 25.64 3.2686 26.0811L4.59333 27.4009C3.97368 27.4761 3.38768 27.7241 2.90225 28.1165C2.41681 28.5089 2.05151 29.0299 1.84806 29.62C1.6446 30.2101 1.6112 30.8455 1.75166 31.4537C1.89212 32.0619 2.20079 32.6183 2.6424 33.0595L6.07659 36.4936V38.285C6.07711 38.831 6.294 39.3544 6.67974 39.7407C7.06548 40.127 7.58861 40.3446 8.13452 40.346H23.3535C23.5637 40.346 23.7654 40.2624 23.914 40.1138C24.0627 39.9651 24.1462 39.7635 24.1462 39.5533V31.9438C24.1478 31.2796 24.3032 30.6248 24.6002 30.0307C24.8973 29.4366 25.3279 28.9193 25.8583 28.5195L28.9021 26.2406C29.0001 26.1664 29.0797 26.0705 29.1347 25.9606C29.1897 25.8506 29.2186 25.7295 29.2192 25.6065V19.2653C29.2192 16.1085 31.1463 15.2277 32.7069 15.0325V39.5533C32.7069 39.6574 32.7274 39.7605 32.7672 39.8566C32.807 39.9528 32.8654 40.0402 32.939 40.1138C33.0126 40.1874 33.1 40.2458 33.1962 40.2856C33.2924 40.3254 33.3954 40.346 33.4995 40.346C33.6036 40.346 33.7067 40.3254 33.8029 40.2856C33.899 40.2458 33.9864 40.1874 34.06 40.1138C34.1336 40.0402 34.192 39.9528 34.2318 39.8566C34.2717 39.7605 34.2922 39.6574 34.2922 39.5533V14.1883C34.2922 13.9781 34.2087 13.7765 34.06 13.6278C33.9114 13.4791 33.7097 13.3956 33.4995 13.3956ZM8.13452 2.29845H27.1583C27.2207 2.29845 27.2826 2.31075 27.3403 2.33465C27.398 2.35855 27.4504 2.39358 27.4946 2.43775C27.5387 2.48191 27.5738 2.53434 27.5977 2.59204C27.6216 2.64974 27.6339 2.71159 27.6339 2.77404V5.15201H7.65893V2.77404C7.65893 2.64791 7.70904 2.52694 7.79823 2.43775C7.88742 2.34855 8.00838 2.29845 8.13452 2.29845ZM1.8765 7.1386C1.8791 6.79482 1.98292 6.45942 2.17499 6.17428C2.36706 5.88915 2.63888 5.66691 2.95649 5.53532C3.2741 5.40373 3.62344 5.36862 3.96089 5.43437C4.29834 5.50012 4.60894 5.66382 4.85391 5.90503L6.07263 7.12473V12.058L2.38677 8.37218C2.22457 8.21042 2.09604 8.01812 2.00862 7.80638C1.9212 7.59465 1.87565 7.36768 1.8765 7.1386ZM4.39418 14.8868C4.72223 14.5617 5.1654 14.3793 5.62725 14.3793C6.08911 14.3793 6.53227 14.5617 6.86033 14.8868L10.4471 18.4736C10.7722 18.801 10.9543 19.244 10.9535 19.7054C10.9526 20.1668 10.769 20.6091 10.4427 20.9353C10.1164 21.2616 9.67415 21.4453 9.21273 21.4461C8.75131 21.4469 8.30838 21.2648 7.98094 20.9397L4.39418 17.353C4.06776 17.0256 3.88455 16.582 3.88474 16.1197C3.88492 15.6574 4.0675 15.214 4.39418 14.8868ZM11.5687 17.353L10.7067 16.491C10.8716 14.915 11.5801 13.4457 12.7106 12.3353C13.8411 11.225 15.3229 10.5429 16.9015 10.4063C18.4802 10.2697 20.0571 10.6871 21.3615 11.5867C22.6659 12.4864 23.6163 13.8122 24.0495 15.3364C24.4827 16.8605 24.3716 18.488 23.7353 19.9392C23.0991 21.3904 21.9773 22.5747 20.5628 23.2888C19.1483 24.0029 17.5292 24.2021 15.9838 23.8523C14.4383 23.5025 13.0629 22.6254 12.0938 21.3717C12.4598 20.7372 12.6067 19.9998 12.5118 19.2734C12.4168 18.5471 12.0854 17.8722 11.5687 17.353ZM4.39517 22.4963C4.72322 22.1712 5.16639 21.9888 5.62824 21.9888C6.0901 21.9888 6.53326 22.1712 6.86132 22.4963L10.4481 26.0831C10.7732 26.4105 10.9553 26.8535 10.9544 27.3149C10.9536 27.7763 10.77 28.2186 10.4437 28.5448C10.1174 28.8711 9.67514 29.0548 9.21372 29.0556C8.7523 29.0564 8.30937 28.8743 7.98193 28.5492L4.39517 24.9625C4.06862 24.6352 3.88523 24.1917 3.88523 23.7294C3.88523 23.2671 4.06862 22.8236 4.39517 22.4963ZM3.76104 29.4717C4.08909 29.1466 4.53226 28.9642 4.99412 28.9642C5.45597 28.9642 5.89914 29.1466 6.22719 29.4717L9.81396 33.0585C10.1391 33.3859 10.3211 33.8288 10.3203 34.2903C10.3195 34.7517 10.1358 35.194 9.80956 35.5202C9.48329 35.8465 9.04101 36.0302 8.5796 36.031C8.11818 36.0318 7.67524 35.8497 7.34781 35.5246L3.76104 31.9378C3.43437 31.6107 3.2508 31.1673 3.25061 30.705C3.25042 30.2426 3.43363 29.7991 3.76005 29.4717H3.76104ZM7.65992 38.285V37.4924C8.17901 37.642 8.72671 37.6629 9.25571 37.5534C9.78471 37.4439 10.2791 37.2072 10.6961 36.8638C11.1131 36.5204 11.4403 36.0807 11.6493 35.5825C11.8583 35.0844 11.9429 34.5428 11.8957 34.0047H22.5609V38.7606H8.13452C8.00838 38.7606 7.88742 38.7105 7.79823 38.6213C7.70904 38.5322 7.65992 38.4112 7.65992 38.285ZM24.9051 27.2513C24.1782 27.7991 23.5881 28.5079 23.181 29.3221C22.774 30.1362 22.561 31.0336 22.5589 31.9438V32.4194H11.3309C11.2143 32.2458 11.0816 32.0836 10.9346 31.9349L9.61778 30.6181C10.2374 30.5428 10.8234 30.2949 11.3089 29.9025C11.7943 29.5101 12.1596 28.9891 12.3631 28.399C12.5665 27.8089 12.5999 27.1734 12.4594 26.5652C12.319 25.9571 12.0103 25.4006 11.5687 24.9595L9.61778 23.0086C10.1054 22.9507 10.574 22.7845 10.9891 22.5221C12.187 23.9826 13.8422 24.9966 15.6875 25.4005C17.5327 25.8043 19.4602 25.5744 21.1587 24.7478C22.8572 23.9212 24.2274 22.5462 25.0481 20.8449C25.8689 19.1436 26.0922 17.2153 25.6819 15.3715C25.2717 13.5276 24.252 11.8759 22.7874 10.683C21.3228 9.49016 19.4988 8.82581 17.6101 8.79727C15.7214 8.76873 13.8782 9.37768 12.3782 10.5258C10.8782 11.6738 9.80905 13.294 9.34332 15.1246C9.34332 15.1246 7.77188 13.567 7.65893 13.4799V6.73336H27.6339V25.2062L24.9051 27.2513Z" fill="url(#paint1_linear_1_39)"/>
<path d="M16.7231 18.1516H18.1697C18.4909 18.1607 18.796 18.2948 19.02 18.5252C19.244 18.7556 19.3693 19.0643 19.3693 19.3857C19.3693 19.7071 19.244 20.0158 19.02 20.2462C18.796 20.4767 18.4909 20.6107 18.1697 20.6198H16.0246C15.955 20.6182 15.8866 20.6017 15.824 20.5713C15.7614 20.5409 15.7061 20.4974 15.6618 20.4437C15.6175 20.39 15.5853 20.3274 15.5674 20.2602C15.5494 20.1929 15.5462 20.1226 15.5579 20.054C15.562 19.8283 15.4762 19.6102 15.3195 19.4477C15.1627 19.2852 14.9479 19.1916 14.7222 19.1875C14.4964 19.1835 14.2783 19.2692 14.1158 19.426C13.9533 19.5827 13.8598 19.7976 13.8557 20.0233V20.1115C13.8505 20.3998 13.9029 20.6863 14.0097 20.9541C14.1165 21.222 14.2756 21.4659 14.4777 21.6716C14.6798 21.8773 14.9208 22.0406 15.1868 22.1521C15.4527 22.2636 15.7382 22.3211 16.0266 22.321H16.6399V22.8313C16.6399 23.057 16.7295 23.2735 16.8892 23.4331C17.0488 23.5927 17.2653 23.6824 17.491 23.6824C17.7167 23.6824 17.9332 23.5927 18.0928 23.4331C18.2524 23.2735 18.3421 23.057 18.3421 22.8313V22.3151C19.0953 22.2578 19.7975 21.9127 20.3028 21.3513C20.8082 20.7899 21.0779 20.0555 21.056 19.3004C21.034 18.5454 20.7221 17.8279 20.185 17.2968C19.6479 16.7657 18.9269 16.4619 18.1717 16.4484H16.7251C16.4098 16.4484 16.1073 16.3232 15.8844 16.1002C15.6614 15.8772 15.5361 15.5748 15.5361 15.2594C15.5361 14.9441 15.6614 14.6417 15.8844 14.4187C16.1073 14.1957 16.4098 14.0704 16.7251 14.0704H18.8355C18.8992 14.0689 18.9624 14.0807 19.0212 14.105C19.08 14.1293 19.1331 14.1656 19.1771 14.2115C19.2211 14.2575 19.2551 14.3121 19.2768 14.3719C19.2985 14.4317 19.3075 14.4954 19.3032 14.5589C19.2985 14.7814 19.381 14.9969 19.5332 15.1592C19.6854 15.3216 19.8951 15.4179 20.1175 15.4274C20.3398 15.437 20.557 15.3592 20.7226 15.2105C20.8882 15.0619 20.989 14.8543 21.0034 14.6322C21.016 14.3396 20.9692 14.0474 20.8659 13.7733C20.7626 13.4992 20.6048 13.2489 20.4022 13.0373C20.1996 12.8258 19.9562 12.6575 19.6868 12.5425C19.4174 12.4275 19.1275 12.3682 18.8345 12.3682H18.3391V11.858C18.3391 11.6322 18.2495 11.4157 18.0899 11.2561C17.9302 11.0965 17.7138 11.0068 17.488 11.0068C17.2623 11.0068 17.0458 11.0965 16.8862 11.2561C16.7266 11.4157 16.6369 11.6322 16.6369 11.858V12.3702C16.2542 12.3716 15.8756 12.4488 15.523 12.5975C15.1704 12.7461 14.8508 12.9633 14.5827 13.2363C14.3146 13.5094 14.1033 13.8329 13.9611 14.1882C13.8189 14.5434 13.7486 14.9234 13.7542 15.306C13.7599 15.6886 13.8413 16.0663 13.9939 16.4173C14.1466 16.7682 14.3673 17.0853 14.6433 17.3503C14.9193 17.6154 15.2452 17.823 15.602 17.9613C15.9589 18.0995 16.3396 18.1655 16.7221 18.1556L16.7231 18.1516Z" fill="url(#paint2_linear_1_39)"/>
</g>
</g>
</g>
<defs>
<linearGradient id="paint0_linear_1_39" x1="17.6836" y1="35.2412" x2="17.6836" y2="36.9435" gradientUnits="userSpaceOnUse">
<stop stop-color="#0336E9"/>
<stop offset="1" stop-color="#1837A5"/>
</linearGradient>
<linearGradient id="paint1_linear_1_39" x1="17.2916" y1="0.713135" x2="17.2916" y2="40.346" gradientUnits="userSpaceOnUse">
<stop stop-color="#0336E9"/>
<stop offset="1" stop-color="#1837A5"/>
</linearGradient>
<linearGradient id="paint2_linear_1_39" x1="17.4056" y1="11.0068" x2="17.4056" y2="23.6824" gradientUnits="userSpaceOnUse">
<stop stop-color="#0336E9"/>
<stop offset="1" stop-color="#1837A5"/>
</linearGradient>
<clipPath id="clip0_1_39">
<rect width="34" height="40" fill="white" transform="translate(0.292969 0.529541)"/>
</clipPath>
<clipPath id="clip1_1_39">
<rect width="34" height="40" fill="white" transform="translate(0.292969 0.529541)"/>
</clipPath>
<clipPath id="clip2_1_39">
<rect width="34" height="39.6328" fill="white" transform="translate(0.292969 0.713135)"/>
</clipPath>
</defs>
</svg>
