<svg width="20" height="26" viewBox="0 0 35 41" fill="none" xmlns="http://www.w3.org/2000/svg">
<g clip-path="url(#clip0_1_186)">
<g clip-path="url(#clip1_1_186)">
<path d="M26.5751 21.9089V4.08947C26.5746 4.01795 26.5599 3.94725 26.532 3.8814C26.5041 3.81554 26.4635 3.75584 26.4125 3.7057C26.3615 3.65556 26.3012 3.61596 26.2348 3.58918C26.1685 3.5624 26.0976 3.54895 26.0261 3.54961H0.800178C0.728733 3.54906 0.657879 3.56259 0.591662 3.58942C0.525445 3.61625 0.465161 3.65587 0.414253 3.706C0.363345 3.75613 0.322811 3.81579 0.294963 3.88159C0.267115 3.94739 0.252501 4.01802 0.251953 4.08947V36.4892C0.252501 36.5606 0.267115 36.6312 0.294963 36.697C0.322811 36.7628 0.363345 36.8225 0.414253 36.8726C0.465161 36.9228 0.525445 36.9624 0.591662 36.9892C0.657879 37.016 0.728733 37.0296 0.800178 37.029H24.9296C25.0492 37.026 25.1646 36.9843 25.2586 36.9102C25.6934 36.9855 26.1338 37.0253 26.5751 37.029C27.5746 37.0395 28.5663 36.8517 29.4927 36.4765C30.4192 36.1013 31.2621 35.5461 31.9725 34.8431C32.683 34.14 33.2471 33.303 33.632 32.3806C34.017 31.4581 34.2152 30.4685 34.2152 29.4689C34.2152 28.4694 34.017 27.4798 33.632 26.5573C33.2471 25.6349 32.683 24.7979 31.9725 24.0948C31.2621 23.3918 30.4192 22.8366 29.4927 22.4614C28.5663 22.0861 27.5746 21.8984 26.5751 21.9089ZM1.3484 35.9493V4.62932H25.4778V21.9959C23.6207 22.2572 21.9225 23.1865 20.7012 24.6098H9.02607V25.6895H19.9337C19.7224 26.0342 19.539 26.3953 19.3854 26.7692H9.02607V27.849H19.0783C18.9595 28.3807 18.8989 28.9237 18.8975 29.4685V30.0084H9.02607V31.0864H19.0783C19.1616 31.4545 19.2736 31.8155 19.413 32.1661H9.02607V33.2458H19.9337C20.5941 34.3603 21.5262 35.2893 22.643 35.9459L1.3484 35.9493ZM26.5743 35.9493C25.2969 35.9297 24.0538 35.5329 23.0012 34.8089C21.9486 34.085 21.1335 33.066 20.6582 31.8802C20.183 30.6943 20.0688 29.3945 20.3301 28.1439C20.5914 26.8934 21.2164 25.748 22.1267 24.8516C23.0369 23.9552 24.1918 23.3479 25.4463 23.1059C26.7007 22.8639 27.9986 22.998 29.177 23.4914C30.3554 23.9849 31.3617 24.8156 32.0694 25.8792C32.7771 26.9428 33.1547 28.1918 33.1547 29.4694C33.1483 30.3269 32.9731 31.1748 32.6389 31.9646C32.3048 32.7544 31.8184 33.4707 31.2074 34.0724C30.5964 34.6742 29.8728 35.1497 29.078 35.4717C28.2832 35.7937 27.4318 35.956 26.5743 35.9493Z" fill="url(#paint0_linear_1_186)"/>
</g>
</g>
<defs>
<linearGradient id="paint0_linear_1_186" x1="17.2336" y1="3.54959" x2="17.2336" y2="37.0294" gradientUnits="userSpaceOnUse">
<stop stop-color="#0336E9"/>
<stop offset="1" stop-color="#1837A5"/>
</linearGradient>
<clipPath id="clip0_1_186">
<rect width="34" height="40" fill="white" transform="translate(0.251953 0.289307)"/>
</clipPath>
<clipPath id="clip1_1_186">
<rect width="34" height="33.4794" fill="white" transform="translate(0.251953 3.54962)"/>
</clipPath>
</defs>
</svg>
