<svg width="20" height="26" viewBox="0 0 35 41" fill="none" xmlns="http://www.w3.org/2000/svg">
<g clip-path="url(#clip0_1_372)">
<g clip-path="url(#clip1_1_372)">
<g clip-path="url(#clip2_1_372)">
<path d="M17.3512 6.5293C17.1812 6.5293 17.0112 6.6143 16.9262 6.6993L0.691172 20.6393C0.436172 20.8093 0.351172 21.2343 0.436172 21.4893C0.521172 21.8293 0.861172 21.9993 1.20117 21.9993H5.45117V33.5593H3.15617H3.07117C2.90117 33.5593 2.64617 33.6443 2.56117 33.8143C2.39117 33.9843 2.39117 34.1543 2.39117 34.4093C2.39117 34.5793 2.47617 34.8343 2.64617 34.9193C2.81617 35.0893 2.98617 35.0893 3.24117 35.0893H31.8012C31.9712 35.0893 32.2262 35.0043 32.3962 34.8343C32.5662 34.6643 32.6512 34.4943 32.6512 34.3243C32.6512 34.1543 32.5662 33.8993 32.3962 33.8143C32.2262 33.6443 32.0562 33.5593 31.8012 33.5593H29.5062V21.9993H33.7562C34.0962 21.9993 34.3512 21.8293 34.5212 21.4893C34.6062 21.1493 34.5212 20.8093 34.2662 20.6393L29.4212 16.5593V13.4993C29.4212 13.0743 29.0812 12.7343 28.6562 12.7343H25.0012L18.0312 6.6993C17.7762 6.5293 17.6062 6.5293 17.3512 6.5293ZM17.4362 8.3143L24.1512 14.0943C24.3212 14.1793 24.4912 14.2643 24.6612 14.2643H27.8912V16.8993C27.8912 17.1543 27.9762 17.3243 28.1462 17.4943L31.5462 20.4693H28.6562C28.2312 20.4693 27.8912 20.8093 27.8912 21.2343V33.5593H6.98117V21.2343C6.98117 20.8093 6.64117 20.4693 6.21617 20.4693H3.32617L17.4362 8.3143ZM15.3962 16.2193C14.9712 16.2193 14.7162 16.5593 14.7162 16.9843V20.4693H11.2312C10.8062 20.4693 10.4662 20.8093 10.4662 21.2343V25.0593C10.4662 25.4843 10.8062 25.8243 11.2312 25.8243H14.7162V29.3093C14.7162 29.7343 15.0562 30.0743 15.4812 30.0743H19.3062C19.7312 30.0743 20.0712 29.7343 20.0712 29.3093V25.8243H23.5562C23.9812 25.8243 24.3212 25.4843 24.3212 25.0593V21.2343C24.3212 20.8093 23.9812 20.4693 23.5562 20.4693H20.0712V16.9843C20.0712 16.5593 19.7312 16.2193 19.3062 16.2193H15.3962C15.4812 16.1343 15.4812 16.1343 15.3962 16.2193ZM16.2462 17.7493H18.5412V21.2343C18.5412 21.6593 18.8812 21.9993 19.3062 21.9993H22.7912V24.2943H19.3062C18.8812 24.2943 18.5412 24.6343 18.5412 25.0593V28.5443H16.2462V25.0593C16.2462 24.6343 15.9062 24.2943 15.4812 24.2943H11.9962V21.9993H15.4812C15.9062 21.9993 16.2462 21.6593 16.2462 21.2343V17.7493Z" fill="url(#paint0_linear_1_372)"/>
</g>
</g>
</g>
<defs>
<linearGradient id="paint0_linear_1_372" x1="17.4787" y1="6.5293" x2="17.4787" y2="35.0893" gradientUnits="userSpaceOnUse">
<stop stop-color="#0336E9"/>
<stop offset="1" stop-color="#1837A5"/>
</linearGradient>
<clipPath id="clip0_1_372">
<rect width="34" height="40" fill="white" transform="translate(0.435547 0.809326)"/>
</clipPath>
<clipPath id="clip1_1_372">
<rect width="34" height="40" fill="white" transform="translate(0.435547 0.809326)"/>
</clipPath>
<clipPath id="clip2_1_372">
<rect width="34" height="34" fill="white" transform="translate(0.435547 3.80933)"/>
</clipPath>
</defs>
</svg>
