<svg width="20" height="26" viewBox="0 0 35 41" fill="none" xmlns="http://www.w3.org/2000/svg">
<g clip-path="url(#clip0_1_355)">
<g clip-path="url(#clip1_1_355)">
<g clip-path="url(#clip2_1_355)">
<path d="M33.402 22.2899H25.837V10.3899C25.837 10.2199 25.752 10.0499 25.667 9.87993L19.887 4.09993C19.717 4.01493 19.547 3.92993 19.377 3.92993H0.762031C0.337031 3.92993 0.0820312 4.18493 0.0820312 4.60993V17.9549C0.0820312 18.2949 0.337031 18.6349 0.762031 18.6349C1.10203 18.6349 1.44203 18.3799 1.44203 17.9549V5.28993H18.697V10.4749C18.697 10.8149 18.952 11.1549 19.377 11.1549H24.562V22.3749H6.88203C6.54203 22.3749 6.20203 22.6299 6.20203 23.0549V36.7399H1.44203V23.9049C1.44203 23.5649 1.18703 23.2249 0.762031 23.2249C0.422031 23.2249 0.0820312 23.4799 0.0820312 23.9049V37.2499C0.0820312 37.6749 0.337031 37.9299 0.762031 37.9299H33.402C33.742 37.9299 34.082 37.6749 34.082 37.2499V22.8849C34.082 22.5449 33.827 22.2899 33.402 22.2899ZM20.057 9.70993V6.22493L23.627 9.79493H20.057V9.70993ZM32.722 36.5699H7.56203V23.5649H32.807V36.5699H32.722Z" fill="url(#paint0_linear_1_355)"/>
<path d="M0.762031 21.6099C1.10203 21.6099 1.44203 21.3549 1.44203 20.9299C1.44203 20.5899 1.18703 20.2499 0.762031 20.2499C0.337031 20.3349 0.0820312 20.5899 0.0820312 20.9299C0.0820312 21.2699 0.337031 21.6099 0.762031 21.6099Z" fill="url(#paint1_linear_1_355)"/>
<path d="M10.3675 32.8299C11.3875 32.8299 12.2375 33.6799 12.2375 34.6999C12.2375 35.0399 12.4925 35.3799 12.9175 35.3799H28.3025C28.6425 35.3799 28.9825 35.1249 28.9825 34.6999C28.9825 33.6799 29.8325 32.8299 30.8525 32.8299C31.1925 32.8299 31.5325 32.5749 31.5325 32.1499V28.5799C31.5325 28.2399 31.2775 27.8999 30.8525 27.8999C29.8325 27.8999 28.9825 27.0499 28.9825 26.0299C28.9825 25.6899 28.7275 25.3499 28.3025 25.3499H12.9175C12.5775 25.3499 12.2375 25.6049 12.2375 26.0299C12.2375 27.0499 11.3875 27.8999 10.3675 27.8999C10.0275 27.8999 9.6875 28.1549 9.6875 28.5799V32.2349C9.7725 32.5749 10.0275 32.8299 10.3675 32.8299ZM11.0475 29.0899C12.3225 28.8349 13.2575 27.8999 13.5125 26.6249H27.7925C28.0475 27.8999 28.9825 28.8349 30.2575 29.0899V31.5549C28.9825 31.8099 28.0475 32.7449 27.7925 34.0199H13.5125C13.2575 32.7449 12.3225 31.8099 11.0475 31.5549V29.0899Z" fill="url(#paint2_linear_1_355)"/>
<path d="M20.1427 32.575C21.5027 32.575 22.6077 31.47 22.6077 30.11C22.6077 28.75 21.5027 27.645 20.1427 27.645C18.7827 27.645 17.6777 28.75 17.6777 30.11C17.7627 31.47 18.7827 32.575 20.1427 32.575ZM20.1427 29.005C20.7377 29.005 21.3327 29.515 21.3327 30.195C21.3327 30.875 20.8227 31.385 20.1427 31.385C19.5477 31.385 18.9527 30.875 18.9527 30.195C19.0377 29.515 19.5477 29.005 20.1427 29.005Z" fill="url(#paint3_linear_1_355)"/>
<path d="M4.33234 19.3148H7.81734C8.15734 19.3148 8.49734 19.0598 8.49734 18.6348C8.49734 18.2948 8.24234 17.9548 7.81734 17.9548H4.33234C3.99234 17.9548 3.65234 18.2098 3.65234 18.6348C3.65234 19.0598 3.99234 19.3148 4.33234 19.3148Z" fill="url(#paint4_linear_1_355)"/>
<path d="M11.3867 18.6348C11.3867 18.9748 11.6417 19.3148 12.0667 19.3148H21.0767C21.4167 19.3148 21.7567 19.0598 21.7567 18.6348C21.7567 18.2948 21.5017 17.9548 21.0767 17.9548H11.9817C11.6417 18.0398 11.3867 18.2948 11.3867 18.6348Z" fill="url(#paint5_linear_1_355)"/>
<path d="M4.33234 10.8148H6.71234C7.05234 10.8148 7.39234 10.5598 7.39234 10.1348C7.39234 9.79483 7.13734 9.45483 6.71234 9.45483H4.33234C3.99234 9.45483 3.65234 9.70983 3.65234 10.1348C3.65234 10.4748 3.90734 10.8148 4.33234 10.8148Z" fill="url(#paint6_linear_1_355)"/>
<path d="M14.2773 10.8148C14.6173 10.8148 14.9573 10.5598 14.9573 10.1348C14.9573 9.79483 14.7023 9.45483 14.2773 9.45483H10.7073C10.3673 9.45483 10.0273 9.70983 10.0273 10.1348C10.0273 10.4748 10.2823 10.8148 10.7073 10.8148H14.2773Z" fill="url(#paint7_linear_1_355)"/>
<path d="M4.33234 15.0648H13.9373C14.2773 15.0648 14.6173 14.8098 14.6173 14.3848C14.6173 14.0448 14.3623 13.7048 13.9373 13.7048H4.33234C3.99234 13.7048 3.65234 13.9598 3.65234 14.3848C3.65234 14.7248 3.99234 15.0648 4.33234 15.0648Z" fill="url(#paint8_linear_1_355)"/>
<path d="M21.1628 15.0648C21.5028 15.0648 21.8428 14.8098 21.8428 14.3848C21.8428 14.0448 21.5878 13.7048 21.1628 13.7048H18.1878C17.8478 13.7048 17.5078 13.9598 17.5078 14.3848C17.5078 14.7248 17.7628 15.0648 18.1878 15.0648H21.1628Z" fill="url(#paint9_linear_1_355)"/>
</g>
</g>
</g>
<defs>
<linearGradient id="paint0_linear_1_355" x1="17.082" y1="3.92993" x2="17.082" y2="37.9299" gradientUnits="userSpaceOnUse">
<stop stop-color="#0336E9"/>
<stop offset="1" stop-color="#1837A5"/>
</linearGradient>
<linearGradient id="paint1_linear_1_355" x1="0.762031" y1="20.2499" x2="0.762031" y2="21.6099" gradientUnits="userSpaceOnUse">
<stop stop-color="#0336E9"/>
<stop offset="1" stop-color="#1837A5"/>
</linearGradient>
<linearGradient id="paint2_linear_1_355" x1="20.61" y1="25.3499" x2="20.61" y2="35.3799" gradientUnits="userSpaceOnUse">
<stop stop-color="#0336E9"/>
<stop offset="1" stop-color="#1837A5"/>
</linearGradient>
<linearGradient id="paint3_linear_1_355" x1="20.1427" y1="27.645" x2="20.1427" y2="32.575" gradientUnits="userSpaceOnUse">
<stop stop-color="#0336E9"/>
<stop offset="1" stop-color="#1837A5"/>
</linearGradient>
<linearGradient id="paint4_linear_1_355" x1="6.07484" y1="17.9548" x2="6.07484" y2="19.3148" gradientUnits="userSpaceOnUse">
<stop stop-color="#0336E9"/>
<stop offset="1" stop-color="#1837A5"/>
</linearGradient>
<linearGradient id="paint5_linear_1_355" x1="16.5717" y1="17.9548" x2="16.5717" y2="19.3148" gradientUnits="userSpaceOnUse">
<stop stop-color="#0336E9"/>
<stop offset="1" stop-color="#1837A5"/>
</linearGradient>
<linearGradient id="paint6_linear_1_355" x1="5.52234" y1="9.45483" x2="5.52234" y2="10.8148" gradientUnits="userSpaceOnUse">
<stop stop-color="#0336E9"/>
<stop offset="1" stop-color="#1837A5"/>
</linearGradient>
<linearGradient id="paint7_linear_1_355" x1="12.4923" y1="9.45483" x2="12.4923" y2="10.8148" gradientUnits="userSpaceOnUse">
<stop stop-color="#0336E9"/>
<stop offset="1" stop-color="#1837A5"/>
</linearGradient>
<linearGradient id="paint8_linear_1_355" x1="9.13484" y1="13.7048" x2="9.13484" y2="15.0648" gradientUnits="userSpaceOnUse">
<stop stop-color="#0336E9"/>
<stop offset="1" stop-color="#1837A5"/>
</linearGradient>
<linearGradient id="paint9_linear_1_355" x1="19.6753" y1="13.7048" x2="19.6753" y2="15.0648" gradientUnits="userSpaceOnUse">
<stop stop-color="#0336E9"/>
<stop offset="1" stop-color="#1837A5"/>
</linearGradient>
<clipPath id="clip0_1_355">
<rect width="34" height="40" fill="white" transform="translate(0.0820312 0.929932)"/>
</clipPath>
<clipPath id="clip1_1_355">
<rect width="34" height="40" fill="white" transform="translate(0.0820312 0.929932)"/>
</clipPath>
<clipPath id="clip2_1_355">
<rect width="34" height="34" fill="white" transform="translate(0.0820312 3.92993)"/>
</clipPath>
</defs>
</svg>
