<svg width="20" height="26" viewBox="0 0 35 41" fill="none" xmlns="http://www.w3.org/2000/svg">
<g clip-path="url(#clip0_1_342)">
<g clip-path="url(#clip1_1_342)">
<g clip-path="url(#clip2_1_342)">
<path d="M15.7624 9.7949C15.5074 10.4749 15.8474 10.7299 16.5274 10.9849C18.3124 11.7499 20.0974 12.5149 21.7974 13.3649C22.3924 13.6199 22.9024 13.7049 23.4974 13.4499C25.1124 12.7699 26.8124 12.1749 28.5124 11.4949C28.9374 11.3249 29.1074 11.4099 29.2774 11.8349C30.8924 16.0849 32.5924 20.4199 34.2924 24.6699C34.4624 25.0949 34.4624 25.2649 33.9524 25.4349C24.6874 29.0049 15.5074 32.5749 6.24238 36.2299C5.73238 36.3999 5.56238 36.3149 5.39238 35.8049C3.77738 31.5549 2.16238 27.3049 0.46238 23.1399C0.29238 22.6299 0.37738 22.4599 0.88738 22.2899C2.58738 21.6949 4.28738 21.0149 5.98738 20.3349C6.41238 20.1649 6.75238 19.9099 6.92238 19.4849C7.77238 17.5299 8.62238 15.6599 9.47238 13.7899C9.64238 13.3649 9.55738 13.1949 9.21738 12.8549C7.77238 11.4949 7.43238 9.7949 8.02738 8.1799C8.62238 6.6499 10.2374 5.6299 11.9374 5.7149C13.7224 5.7999 15.0824 6.9049 15.5924 8.6049C15.6774 8.9449 15.6774 9.3699 15.7624 9.7949ZM8.62238 18.9749C10.4924 18.3799 12.2774 17.6149 14.0624 16.9349C16.2724 16.0849 18.3974 15.2349 20.6924 14.3849C18.8224 13.5349 17.0374 12.7699 15.2524 12.0049C14.9974 11.9199 14.9124 12.0049 14.8274 12.1749C13.8924 13.2799 12.6174 13.7899 11.1724 13.6199C10.9174 13.6199 10.8324 13.6199 10.7474 13.8749C10.0674 15.5749 9.21738 17.1899 8.62238 18.9749ZM32.5074 24.1599C32.4224 23.9899 32.4224 23.8199 32.3374 23.7349C30.9774 20.3349 29.7024 16.9349 28.3424 13.5349C28.1724 13.1099 28.0024 13.0249 27.4924 13.1949C19.1624 16.4249 10.8324 19.6549 2.41738 22.8849C1.99238 23.0549 1.90738 23.2249 2.07738 23.6499C3.35238 26.8799 4.71238 30.1949 5.90238 33.5099C6.15738 34.2749 6.49738 34.3599 7.17738 34.0199C12.2774 31.9799 17.3774 30.0249 22.4774 28.0699C25.6224 26.8799 28.6824 25.6899 31.8274 24.4149C32.1674 24.4149 32.5074 24.4149 32.5074 24.1599ZM11.7674 7.1599C10.3224 7.1599 9.21738 8.1799 9.21738 9.6249C9.21738 11.1549 10.3224 12.2599 11.7674 12.2599C13.2124 12.2599 14.2324 11.1549 14.2324 9.7099C14.3174 8.2649 13.2124 7.1599 11.7674 7.1599Z" fill="url(#paint0_linear_1_342)"/>
<path d="M18.3119 21.9498C18.7369 22.9698 19.1619 24.0748 19.5869 25.0948C19.6719 25.4348 19.8419 25.6048 19.3319 25.7748C18.9069 25.9448 18.7369 25.8598 18.6519 25.4348C18.1419 23.9898 17.5469 22.6298 16.9519 21.1848C16.8669 20.9298 16.5269 20.6748 16.8669 20.5048C17.2069 20.3348 17.5469 20.0798 17.9719 20.4198C19.2469 21.1848 20.5219 21.9498 21.7969 22.7148C21.8819 22.7998 22.0519 22.7998 22.3069 22.9698C21.7969 21.7798 21.3719 20.6748 20.9469 19.5698C20.8619 19.3148 20.6069 18.9748 21.1169 18.8048C21.6269 18.6348 21.7119 18.8898 21.8819 19.2298C22.3919 20.5898 22.9869 22.0348 23.4969 23.3948C23.5819 23.6498 23.9219 23.9048 23.5819 24.0748C23.2419 24.2448 22.9019 24.4998 22.4769 24.2448C21.2019 23.4798 20.0119 22.7998 18.7369 22.0348C18.6519 21.9498 18.4819 21.9498 18.3969 21.8648C18.3119 21.8648 18.3119 21.7798 18.2269 21.7798C18.3119 21.8648 18.3119 21.9498 18.3119 21.9498Z" fill="url(#paint1_linear_1_342)"/>
<path d="M10.4924 27.1349C11.1724 27.5599 11.8524 27.9849 12.5324 28.4949C11.9374 28.9199 11.4274 29.0899 10.8324 28.5799C10.5774 28.3249 10.1524 28.1549 9.89738 27.9849C9.30238 27.4749 8.87738 28.0699 8.36738 28.1549C8.19738 28.1549 8.28238 28.3249 8.36738 28.4949C8.53738 28.8349 8.62238 29.1749 8.79238 29.5149C8.87738 29.7699 9.04738 30.0249 8.62238 30.1949C8.19738 30.3649 8.02738 30.2799 7.85738 29.8549C7.26238 28.3249 6.75238 26.8799 6.07238 25.3499C5.90238 24.9249 5.98738 24.7549 6.41238 24.6699C7.09238 24.4149 7.68738 24.1599 8.36738 23.9049C9.47238 23.5649 10.2374 23.7349 10.7474 24.4149C11.3424 25.2649 11.2574 26.1999 10.4924 27.1349ZM9.13238 24.5849C8.62238 24.7549 7.94238 25.0099 7.34738 25.1799C7.26238 25.1799 7.17738 25.2649 7.26238 25.4349C7.51738 25.9449 7.68738 26.5399 7.94238 27.0499C8.02738 27.2199 8.19738 27.1349 8.28238 27.1349C8.79238 26.9649 9.38738 26.7099 9.89738 26.3699C10.2374 26.1149 10.3224 25.7749 10.1524 25.3499C9.98238 24.9249 9.72738 24.5849 9.13238 24.5849Z" fill="url(#paint2_linear_1_342)"/>
<path d="M16.2724 24.1599C16.2724 24.4149 16.0174 24.4149 15.9324 24.4999C15.4224 24.6699 14.9124 24.9249 14.4024 25.0949C13.8074 25.2649 13.7224 25.5199 13.9774 26.0299C14.2324 26.4549 14.2324 26.9649 14.9974 26.5399C15.5924 26.1999 16.2724 26.0299 16.9524 25.7749C17.3774 25.6049 17.4624 25.7749 17.6324 26.1149C17.8024 26.5399 17.5474 26.5399 17.2924 26.6249C16.2724 27.0499 15.3374 27.3899 14.3174 27.8149C13.9774 27.9849 13.8074 27.9849 13.6374 27.5599C13.0424 26.0299 12.4474 24.4999 11.8524 22.9699C11.7674 22.6299 11.6824 22.4599 12.1074 22.2899C13.1274 21.9499 14.0624 21.5249 14.9974 21.0999C15.4224 20.9299 15.4224 21.0999 15.5924 21.4399C15.7624 21.7799 15.6774 21.8649 15.3374 22.0349C14.6574 22.2899 14.0624 22.5449 13.3824 22.7999C12.9574 22.9699 12.8724 23.1399 13.0424 23.4799C13.4674 24.4149 13.3824 24.4149 14.3174 24.0749C14.7424 23.9049 15.1674 23.8199 15.5924 23.5649C16.2724 23.3949 16.1024 23.9049 16.2724 24.1599Z" fill="url(#paint3_linear_1_342)"/>
<path d="M24.6014 18.3799C24.1764 18.5499 23.8364 18.7199 23.4964 18.8899C23.1564 19.0599 22.9864 18.9749 22.9014 18.6349C22.7314 18.2949 22.8164 18.1249 23.1564 18.0399C24.2614 17.6149 25.3664 17.1899 26.4714 16.7649C26.8114 16.5949 26.9814 16.6799 27.1514 17.0199C27.3214 17.4449 27.0664 17.5299 26.8114 17.6149C25.7064 18.0399 25.7064 18.0399 26.1314 19.2299C26.4714 20.1649 26.8964 21.0999 27.2364 22.0349C27.4064 22.3749 27.4914 22.6299 26.9814 22.7999C26.4714 22.9699 26.3864 22.7149 26.2164 22.3749C25.7914 21.1849 25.2814 19.9949 24.8564 18.8049C24.7714 18.6349 24.7714 18.4649 24.6014 18.3799Z" fill="url(#paint4_linear_1_342)"/>
<path d="M18.3124 21.9499C18.3124 21.8649 18.3124 21.8649 18.3124 21.7799C18.3974 21.7799 18.3974 21.8649 18.4824 21.8649C18.3974 21.8649 18.3974 21.9499 18.3124 21.9499Z" fill="url(#paint5_linear_1_342)"/>
</g>
</g>
</g>
<defs>
<linearGradient id="paint0_linear_1_342" x1="17.3884" y1="5.70996" x2="17.3884" y2="36.3095" gradientUnits="userSpaceOnUse">
<stop stop-color="#0336E9"/>
<stop offset="1" stop-color="#1837A5"/>
</linearGradient>
<linearGradient id="paint1_linear_1_342" x1="20.2244" y1="18.7507" x2="20.2244" y2="25.8569" gradientUnits="userSpaceOnUse">
<stop stop-color="#0336E9"/>
<stop offset="1" stop-color="#1837A5"/>
</linearGradient>
<linearGradient id="paint2_linear_1_342" x1="9.26134" y1="23.7349" x2="9.26134" y2="30.277" gradientUnits="userSpaceOnUse">
<stop stop-color="#0336E9"/>
<stop offset="1" stop-color="#1837A5"/>
</linearGradient>
<linearGradient id="paint3_linear_1_342" x1="14.7352" y1="21.0332" x2="14.7352" y2="27.9211" gradientUnits="userSpaceOnUse">
<stop stop-color="#0336E9"/>
<stop offset="1" stop-color="#1837A5"/>
</linearGradient>
<linearGradient id="paint4_linear_1_342" x1="25.0922" y1="16.6799" x2="25.0922" y2="22.854" gradientUnits="userSpaceOnUse">
<stop stop-color="#0336E9"/>
<stop offset="1" stop-color="#1837A5"/>
</linearGradient>
<linearGradient id="paint5_linear_1_342" x1="18.3974" y1="21.7799" x2="18.3974" y2="21.9499" gradientUnits="userSpaceOnUse">
<stop stop-color="#0336E9"/>
<stop offset="1" stop-color="#1837A5"/>
</linearGradient>
<clipPath id="clip0_1_342">
<rect width="34" height="40" fill="white" transform="translate(0.292969 0.929932)"/>
</clipPath>
<clipPath id="clip1_1_342">
<rect width="34" height="40" fill="white" transform="translate(0.292969 0.929932)"/>
</clipPath>
<clipPath id="clip2_1_342">
<rect width="34" height="34" fill="white" transform="translate(0.292969 3.92993)"/>
</clipPath>
</defs>
</svg>
