<svg width="20" height="26" viewBox="0 0 35 41" fill="none" xmlns="http://www.w3.org/2000/svg">
<g clip-path="url(#clip0_1_251)">
<g clip-path="url(#clip1_1_251)">
<g clip-path="url(#clip2_1_251)">
<path d="M26.4443 21.9675V4.14806C26.4437 4.07655 26.4291 4.00584 26.4012 3.93999C26.3733 3.87414 26.3327 3.81443 26.2817 3.76429C26.2307 3.71415 26.1703 3.67456 26.104 3.64777C26.0377 3.62099 25.9667 3.60755 25.8952 3.60821H0.669319C0.597874 3.60766 0.52702 3.62118 0.460803 3.64801C0.394585 3.67485 0.334302 3.71446 0.283394 3.76459C0.232486 3.81472 0.191951 3.87439 0.164104 3.94018C0.136256 4.00598 0.121641 4.07662 0.121094 4.14806V36.5477C0.121641 36.6192 0.136256 36.6898 0.164104 36.7556C0.191951 36.8214 0.232486 36.8811 0.283394 36.9312C0.334302 36.9813 0.394585 37.021 0.460803 37.0478C0.52702 37.0746 0.597874 37.0882 0.669319 37.0876H24.7988C24.9184 37.0846 25.0338 37.0429 25.1277 36.9688C25.5626 37.0441 26.0029 37.0839 26.4443 37.0876C27.4438 37.0981 28.4354 36.9103 29.3619 36.5351C30.2883 36.1599 31.1312 35.6047 31.8417 34.9017C32.5522 34.1986 33.1162 33.3616 33.5012 32.4392C33.8861 31.5167 34.0843 30.5271 34.0843 29.5275C34.0843 28.528 33.8861 27.5384 33.5012 26.6159C33.1162 25.6934 32.5522 24.8565 31.8417 24.1534C31.1312 23.4504 30.2883 22.8952 29.3619 22.5199C28.4354 22.1447 27.4438 21.957 26.4443 21.9675ZM1.21754 36.0079V4.68792H25.347V22.0545C23.4898 22.3158 21.7916 23.2451 20.5703 24.6684H8.89521V25.7481H19.8028C19.5915 26.0928 19.4082 26.4539 19.2546 26.8278H8.89521V27.9076H18.9474C18.8287 28.4393 18.7681 28.9823 18.7666 29.5271V30.067H8.89521V31.145H18.9474C19.0308 31.5131 19.1427 31.8741 19.2822 32.2247H8.89521V33.3044H19.8028C20.4633 34.4189 21.3954 35.3479 22.5121 36.0045L1.21754 36.0079ZM26.4434 36.0079C25.166 35.9883 23.923 35.5915 22.8704 34.8675C21.8178 34.1436 21.0026 33.1246 20.5274 31.9388C20.0521 30.7529 19.938 29.4531 20.1992 28.2025C20.4605 26.952 21.0855 25.8066 21.9958 24.9102C22.9061 24.0138 24.061 23.4064 25.3154 23.1644C26.5698 22.9224 27.8678 23.0566 29.0462 23.55C30.2246 24.0435 31.2308 24.8742 31.9385 25.9378C32.6462 27.0014 33.0238 28.2504 33.0238 29.528C33.0175 30.3855 32.8422 31.2334 32.5081 32.0232C32.174 32.813 31.6875 33.5293 31.0765 34.131C30.4655 34.7328 29.7419 35.2083 28.9471 35.5303C28.1523 35.8523 27.301 36.0146 26.4434 36.0079Z" fill="url(#paint0_linear_1_251)"/>
</g>
</g>
</g>
<defs>
<linearGradient id="paint0_linear_1_251" x1="17.1027" y1="3.60818" x2="17.1027" y2="37.088" gradientUnits="userSpaceOnUse">
<stop stop-color="#0336E9"/>
<stop offset="1" stop-color="#1837A5"/>
</linearGradient>
<clipPath id="clip0_1_251">
<rect width="34" height="40" fill="white" transform="translate(0.121094 0.3479)"/>
</clipPath>
<clipPath id="clip1_1_251">
<rect width="34" height="40" fill="white" transform="translate(0.121094 0.3479)"/>
</clipPath>
<clipPath id="clip2_1_251">
<rect width="34" height="33.4794" fill="white" transform="translate(0.121094 3.60822)"/>
</clipPath>
</defs>
</svg>
