<svg width="20" height="26" viewBox="0 0 35 41" fill="none" xmlns="http://www.w3.org/2000/svg">
<g clip-path="url(#clip0_1_312)">
<g clip-path="url(#clip1_1_312)">
<g clip-path="url(#clip2_1_312)">
<path d="M26.5576 21.6689V3.84946C26.557 3.77795 26.5424 3.70724 26.5145 3.64139C26.4866 3.57554 26.446 3.51583 26.395 3.46569C26.344 3.41555 26.2836 3.37596 26.2173 3.34917C26.1509 3.32239 26.08 3.30895 26.0085 3.30961H0.7826C0.711155 3.30906 0.640301 3.32258 0.574084 3.34942C0.507867 3.37625 0.447583 3.41586 0.396675 3.46599C0.345767 3.51612 0.305232 3.57579 0.277385 3.64159C0.249537 3.70738 0.234922 3.77802 0.234375 3.84946V36.2491C0.234922 36.3206 0.249537 36.3912 0.277385 36.457C0.305232 36.5228 0.345767 36.5825 0.396675 36.6326C0.447583 36.6828 0.507867 36.7224 0.574084 36.7492C0.640301 36.776 0.711155 36.7896 0.7826 36.789H24.912C25.0316 36.786 25.1471 36.7443 25.241 36.6702C25.6759 36.7455 26.1162 36.7853 26.5576 36.789C27.557 36.7995 28.5487 36.6117 29.4752 36.2365C30.4016 35.8613 31.2445 35.3061 31.955 34.6031C32.6655 33.9 33.2295 33.063 33.6144 32.1406C33.9994 31.2181 34.1976 30.2285 34.1976 29.2289C34.1976 28.2294 33.9994 27.2398 33.6144 26.3173C33.2295 25.3948 32.6655 24.5579 31.955 23.8548C31.2445 23.1518 30.4016 22.5966 29.4752 22.2213C28.5487 21.8461 27.557 21.6584 26.5576 21.6689ZM1.33083 35.7093V4.38932H25.4603V21.7559C23.6031 22.0172 21.9049 22.9465 20.6836 24.3698H9.00849V25.4495H19.9161C19.7048 25.7942 19.5215 26.1553 19.3678 26.5292H9.00849V27.609H19.0607C18.942 28.1407 18.8813 28.6837 18.8799 29.2285V29.7684H9.00849V30.8464H19.0607C19.144 31.2145 19.256 31.5755 19.3955 31.9261H9.00849V33.0058H19.9161C20.5765 34.1203 21.5087 35.0493 22.6254 35.7059L1.33083 35.7093ZM26.5567 35.7093C25.2793 35.6897 24.0362 35.2929 22.9836 34.5689C21.9311 33.845 21.1159 32.826 20.6407 31.6402C20.1654 30.4543 20.0512 29.1545 20.3125 27.9039C20.5738 26.6534 21.1988 25.508 22.1091 24.6116C23.0194 23.7152 24.1743 23.1078 25.4287 22.8658C26.6831 22.6238 27.981 22.758 29.1594 23.2514C30.3378 23.7449 31.3441 24.5756 32.0518 25.6392C32.7595 26.7028 33.1371 27.9518 33.1371 29.2294C33.1307 30.0869 32.9555 30.9348 32.6214 31.7246C32.2872 32.5144 31.8008 33.2307 31.1898 33.8324C30.5788 34.4342 29.8552 34.9097 29.0604 35.2317C28.2656 35.5537 27.4143 35.716 26.5567 35.7093Z" fill="url(#paint0_linear_1_312)"/>
</g>
</g>
</g>
<defs>
<linearGradient id="paint0_linear_1_312" x1="17.216" y1="3.30959" x2="17.216" y2="36.7894" gradientUnits="userSpaceOnUse">
<stop stop-color="#0336E9"/>
<stop offset="1" stop-color="#1837A5"/>
</linearGradient>
<clipPath id="clip0_1_312">
<rect width="34" height="40" fill="white" transform="translate(0.234375 0.0493164)"/>
</clipPath>
<clipPath id="clip1_1_312">
<rect width="34" height="40" fill="white" transform="translate(0.234375 0.0493164)"/>
</clipPath>
<clipPath id="clip2_1_312">
<rect width="34" height="33.4794" fill="white" transform="translate(0.234375 3.30962)"/>
</clipPath>
</defs>
</svg>
