<svg width="20" height="26" viewBox="0 0 35 41" fill="none" xmlns="http://www.w3.org/2000/svg">
<g clip-path="url(#clip0_1_245)">
<g clip-path="url(#clip1_1_245)">
<g clip-path="url(#clip2_1_245)">
<path d="M33.0601 24.0879V22.6429C33.0601 22.3879 32.8051 22.1329 32.5501 22.1329C32.2951 22.1329 32.0401 22.3879 32.0401 22.6429V24.0879H27.2801V19.6679C27.2801 18.9879 26.7701 18.4779 26.0901 18.4779H23.8801V13.7179H28.1301C30.3401 13.7179 32.1251 15.5029 32.1251 17.7129V20.3479C32.1251 20.6029 32.3801 20.8579 32.6351 20.8579C32.8901 20.8579 33.1451 20.6029 33.1451 20.3479V17.7129C33.1451 14.9929 30.9351 12.7829 28.2151 12.7829H23.8801C23.5401 11.7629 22.6051 11.0829 21.5001 11.0829H19.8851V9.1279C20.5651 9.1279 21.1601 8.6179 21.2451 7.9379H26.2601C27.1951 7.9379 27.9601 7.1729 27.9601 6.2379C27.9601 5.3029 27.1951 4.5379 26.2601 4.5379H21.2451C20.9901 3.8579 20.3951 3.3479 19.7151 3.3479H16.4851C15.8051 3.3479 15.2101 3.8579 15.0401 4.5379H10.0251C9.09008 4.5379 8.32508 5.3029 8.32508 6.2379C8.32508 7.1729 9.09008 7.9379 10.0251 7.9379H15.0401C15.2101 8.6179 15.7201 9.0429 16.4001 9.1279V10.9979H14.7851C13.6801 10.9979 12.7451 11.6779 12.4051 12.6979H8.66508C8.41008 11.9329 7.56008 11.5079 6.79508 11.7629C6.37008 11.9329 6.03008 12.2729 5.86008 12.6979H0.590078C0.335078 12.6979 0.0800781 12.9529 0.0800781 13.2079C0.0800781 13.4629 0.335078 13.7179 0.590078 13.7179H5.77508V18.4779H0.590078C0.335078 18.4779 0.0800781 18.7329 0.0800781 18.9879C0.0800781 19.2429 0.335078 19.4979 0.590078 19.4979H5.86008C6.11508 20.2629 6.96508 20.6879 7.73008 20.3479C8.15508 20.1779 8.49508 19.8379 8.66508 19.4129H12.4051C12.7451 20.4329 13.6801 21.1129 14.7851 21.1129H15.6351C15.8901 21.1129 16.1451 20.8579 16.1451 20.6029C16.1451 20.3479 15.8901 20.0929 15.6351 20.0929H14.7851C14.0201 20.0929 13.4251 19.5829 13.3401 18.8179C13.3401 18.7329 13.3401 13.2929 13.3401 13.1229C13.4251 12.3579 14.1051 11.8479 14.7851 11.8479H21.5001C22.2651 11.8479 22.8601 12.3579 22.9451 13.1229C23.0301 13.8029 23.0301 18.2229 22.9451 18.8179C22.8601 19.5829 22.1801 20.0929 21.5001 20.0929H17.9301C17.6751 20.0929 17.4201 20.3479 17.4201 20.6029C17.4201 20.8579 17.5901 21.1979 17.9301 21.1979H21.4151C22.5201 21.1979 23.4551 20.5179 23.7951 19.4979H26.0901C26.1751 19.4979 26.3451 19.5829 26.3451 19.7529V24.1729C25.8351 24.1729 25.3251 24.5979 25.3251 25.1929V26.2129C25.3251 26.8079 25.7501 27.2329 26.3451 27.2329H33.0601C33.6551 27.2329 34.0801 26.8079 34.0801 26.2129V25.1929C34.0801 24.5979 33.6551 24.0879 33.0601 24.0879ZM21.1601 5.4729H26.0901C26.5151 5.4729 26.8551 5.8129 26.8551 6.2379C26.8551 6.6629 26.5151 7.0029 26.0901 7.0029H21.1601V5.4729ZM14.9551 6.9179H10.0251C9.60008 6.9179 9.26008 6.5779 9.26008 6.1529C9.26008 5.7279 9.60008 5.3879 10.0251 5.3879H14.9551V6.9179ZM7.73008 18.9879C7.73008 19.2429 7.47508 19.4979 7.22008 19.4979C6.96508 19.4979 6.71008 19.2429 6.71008 18.9879V13.2079C6.71008 12.9529 6.96508 12.6979 7.22008 12.6979C7.47508 12.6979 7.73008 12.9529 7.73008 13.2079V18.9879ZM12.2351 18.4779H8.66508V13.7179H12.2351V18.4779ZM18.7801 10.9979H17.4201V9.1279H18.7801V10.9979ZM16.4851 8.1079C16.2301 8.1079 15.9751 7.8529 15.9751 7.5979V4.8779C15.9751 4.6229 16.2301 4.3679 16.4851 4.3679H19.7151C19.9701 4.3679 20.2251 4.6229 20.2251 4.8779V7.5979C20.2251 7.8529 19.9701 8.1079 19.7151 8.1079H16.4851ZM33.0601 26.1279H26.2601V25.1079H33.0601V26.1279ZM30.1701 28.8479C29.9151 28.5929 29.4901 28.5929 29.1501 28.8479C28.2151 29.7829 26.0051 32.0779 26.0051 33.7779C26.0051 35.8179 27.7051 37.3479 29.6601 37.3479C31.6151 37.3479 33.2301 35.7329 33.2301 33.7779C33.3151 32.0779 31.1051 29.7829 30.1701 28.8479ZM29.6601 36.3279C28.2151 36.3279 27.0251 35.1379 27.0251 33.6929C27.0251 33.0979 27.7051 31.6529 29.6601 29.6979C31.6151 31.6529 32.2951 33.0129 32.2951 33.6929C32.2951 35.1379 31.1051 36.3279 29.6601 36.3279Z" fill="url(#paint0_linear_1_245)"/>
</g>
</g>
</g>
<defs>
<linearGradient id="paint0_linear_1_245" x1="17.0801" y1="3.3479" x2="17.0801" y2="37.3479" gradientUnits="userSpaceOnUse">
<stop stop-color="#0336E9"/>
<stop offset="1" stop-color="#1837A5"/>
</linearGradient>
<clipPath id="clip0_1_245">
<rect width="34" height="40" fill="white" transform="translate(0.0800781 0.3479)"/>
</clipPath>
<clipPath id="clip1_1_245">
<rect width="34" height="40" fill="white" transform="translate(0.0800781 0.3479)"/>
</clipPath>
<clipPath id="clip2_1_245">
<rect width="34" height="34" fill="white" transform="translate(0.0800781 3.3479)"/>
</clipPath>
</defs>
</svg>
