<svg width="20" height="20" viewBox="0 0 35 35" fill="none" xmlns="http://www.w3.org/2000/svg">
<g clip-path="url(#clip0_1_462)">
<path d="M17.9297 0.567108C8.53984 0.567108 0.929688 8.17726 0.929688 17.5671C0.929688 26.957 8.53984 34.5671 17.9297 34.5671C27.3195 34.5671 34.9297 26.957 34.9297 17.5671C34.9297 8.17726 27.3195 0.567108 17.9297 0.567108ZM21.6816 14.6851L21.4891 17.2284H18.8793V26.0605H15.5855V17.2284H13.8258V14.6851H15.5855V12.9784C15.5855 12.228 15.6055 11.0659 16.15 10.3421C16.7277 9.57844 17.518 9.06047 18.8793 9.06047C21.0973 9.06047 22.027 9.37922 22.027 9.37922L21.5887 11.9823C21.5887 11.9823 20.8582 11.7698 20.1742 11.7698C19.4902 11.7698 18.8793 12.0155 18.8793 12.6995V14.6851H21.6816Z" fill="url(#paint0_linear_1_462)"/>
</g>
<defs>
<linearGradient id="paint0_linear_1_462" x1="17.9297" y1="0.567108" x2="17.9297" y2="34.5671" gradientUnits="userSpaceOnUse">
<stop stop-color="#0336E9"/>
<stop offset="1" stop-color="#1837A5"/>
</linearGradient>
<clipPath id="clip0_1_462">
<rect width="34" height="34" fill="white" transform="translate(0.929688 0.567108)"/>
</clipPath>
</defs>
</svg>
