<svg width="17" height="16" viewBox="0 0 29 29" fill="none" xmlns="http://www.w3.org/2000/svg">
<path d="M18.7968 9.14451C20.1764 9.07729 20.3886 11.3376 18.8747 11.1395C17.6189 11.1041 17.4598 9.17989 18.7968 9.14451Z" fill="white"/>
<path d="M23.3174 14.5282C23.427 6.43847 20.1869 5.39145 12.7976 5.84068C7.70753 5.44805 5.70897 9.30365 5.69484 13.8632C5.41894 18.3272 6.79491 23.9691 12.3519 23.4951C19.2885 23.3713 23.6393 22.6673 23.3174 14.5282ZM11.1882 0.605564C19.1328 -0.13372 28.3297 1.00527 28.4393 10.9485C28.7188 15.5256 28.8673 20.4318 26.6247 24.5846C24.2371 28.6453 20.2577 28.4755 16.1191 28.571C12.4793 28.7161 8.72626 29.0309 5.21731 27.8388C1.64115 26.6008 0.668404 23.9019 0.746225 20.3717C0.622423 17.3332 0.498617 14.3018 0.551678 11.2597C0.728538 4.05082 3.87669 0.439315 11.1882 0.605564Z" fill="url(#paint0_linear_1_449)"/>
<path d="M12.7986 5.84068C20.1879 5.39145 23.4244 6.43848 23.3183 14.5282C23.6402 22.6674 19.2894 23.3678 12.3564 23.4951C6.79582 23.9691 5.42339 18.3236 5.69929 13.8632C5.70991 9.30365 7.70844 5.44805 12.7986 5.84068ZM21.7619 14.7829C21.7619 9.77412 21.1464 7.12117 15.4586 7.37585C13.7677 7.5421 11.7904 7.29096 10.0925 7.86754C6.68263 9.53358 7.15311 14.1143 7.46793 17.2907C7.77566 22.4233 12.031 22.2712 16.0139 21.6982C20.9059 21.44 21.8079 19.3282 21.7619 14.7829Z" fill="white"/>
<path d="M15.1111 11.4968C11.5102 11.3128 10.3995 17.2448 14.3506 17.404C18.0647 17.3155 18.6342 12.5544 15.1111 11.4968ZM14.3577 10.1349C20.5761 9.71398 20.1941 18.9038 14.3294 18.8401C8.77238 18.6703 9.29236 10.6301 14.3577 10.1349Z" fill="white"/>
<path d="M14.3532 17.404C10.4021 17.2413 11.5093 11.3093 15.1137 11.4968C18.6333 12.5544 18.0638 17.3155 14.3532 17.404Z" fill="url(#paint1_linear_1_449)"/>
<path d="M15.4577 7.37588C21.1455 7.11766 21.7646 9.77412 21.761 14.7829C21.8035 19.3282 20.905 21.4399 16.013 21.6982C12.0301 22.2712 7.77476 22.4233 7.46702 17.2908C7.1522 14.1108 6.68527 9.53357 10.0916 7.86753C11.7895 7.29099 13.7669 7.54213 15.4577 7.37588ZM14.3328 18.8401C20.194 18.9038 20.5796 9.71398 14.3611 10.1349C9.29222 10.6301 8.77227 18.6703 14.3328 18.8401ZM18.8746 11.1395C20.3886 11.3376 20.1763 9.0808 18.7968 9.14448C17.4597 9.17986 17.6189 11.1041 18.8746 11.1395Z" fill="url(#paint2_linear_1_449)"/>
<defs>
<linearGradient id="paint0_linear_1_449" x1="14.5668" y1="0.422943" x2="14.5668" y2="28.7195" gradientUnits="userSpaceOnUse">
<stop stop-color="#0336E9"/>
<stop offset="1" stop-color="#1837A5"/>
</linearGradient>
<linearGradient id="paint1_linear_1_449" x1="14.6625" y1="11.4924" x2="14.6625" y2="17.404" gradientUnits="userSpaceOnUse">
<stop stop-color="#0336E9"/>
<stop offset="1" stop-color="#1837A5"/>
</linearGradient>
<linearGradient id="paint2_linear_1_449" x1="14.5062" y1="7.35867" x2="14.5062" y2="21.9746" gradientUnits="userSpaceOnUse">
<stop stop-color="#0336E9"/>
<stop offset="1" stop-color="#1837A5"/>
</linearGradient>
</defs>
</svg>
