<svg width="20" height="20" viewBox="0 0 35 35" fill="none" xmlns="http://www.w3.org/2000/svg">
<path d="M17.6074 0.567108C8.21758 0.567108 0.607422 8.17726 0.607422 17.5671C0.607422 26.957 8.21758 34.5671 17.6074 34.5671C26.9973 34.5671 34.6074 26.957 34.6074 17.5671C34.6074 8.17726 26.9973 0.567108 17.6074 0.567108ZM12.8527 24.6792H9.53906V14.0741H12.8527V24.6792ZM11.1063 12.746H11.0797C9.87773 12.746 9.10078 11.9359 9.10078 10.9066C9.10078 9.85734 9.9043 9.06711 11.1262 9.06711C12.348 9.06711 13.0984 9.85734 13.125 10.9066C13.1316 11.9292 12.3547 12.746 11.1063 12.746ZM26.1074 24.6792H22.3488V19.1941C22.3488 17.7597 21.7645 16.7769 20.4695 16.7769C19.4801 16.7769 18.9289 17.4409 18.6766 18.0784C18.5836 18.3042 18.5969 18.623 18.5969 18.9484V24.6792H14.8715C14.8715 24.6792 14.918 14.9573 14.8715 14.0741H18.5969V15.7409C18.816 15.0105 20.0047 13.9745 21.9039 13.9745C24.2613 13.9745 26.1074 15.5019 26.1074 18.7823V24.6792Z" fill="url(#paint0_linear_1_466)"/>
<defs>
<linearGradient id="paint0_linear_1_466" x1="17.6074" y1="0.567108" x2="17.6074" y2="34.5671" gradientUnits="userSpaceOnUse">
<stop stop-color="#0336E9"/>
<stop offset="1" stop-color="#1837A5"/>
</linearGradient>
</defs>
</svg>
