<svg width="19" height="19" viewBox="0 0 35 35" fill="none" xmlns="http://www.w3.org/2000/svg">
<g clip-path="url(#clip0_1_456)">
<path fill-rule="evenodd" clip-rule="evenodd" d="M27.1477 24.573C26.738 25.7327 25.1094 26.6921 23.8106 26.9727C22.9215 27.1615 21.762 27.3108 17.8554 25.6919C13.4677 23.8741 7.37496 17.3988 7.37496 13.0897C7.37496 10.896 8.63975 8.34162 10.8515 8.34162C11.9157 8.34162 12.1503 8.36237 12.5005 9.20241C12.9102 10.1921 13.9098 12.6305 14.0288 12.8805C14.5201 13.9059 13.5289 14.5062 12.8098 15.3989C12.5803 15.6676 12.3203 15.9582 12.611 16.4581C12.9 16.9479 13.8996 18.577 15.3684 19.8847C17.2656 21.575 18.8041 22.1146 19.3549 22.3442C19.7646 22.5143 20.2542 22.4747 20.5534 22.155C20.9325 21.7451 21.4034 21.0652 21.8828 20.3952C22.2211 19.9156 22.6512 19.8557 23.1017 20.0258C23.406 20.1312 27.2734 21.9273 27.4366 22.2147C27.5574 22.4239 27.5574 23.4132 27.1477 24.573ZM17.2554 0.567108H17.2468C7.87474 0.567108 0.251953 8.1922 0.251953 17.5671C0.251953 21.2844 1.45046 24.7332 3.48877 27.5305L1.37056 33.8474L7.90367 31.7598C10.5914 33.5385 13.7993 34.5671 17.2554 34.5671C26.6275 34.5671 34.252 26.942 34.252 17.5671C34.252 8.1922 26.6275 0.567108 17.2554 0.567108Z" fill="url(#paint0_linear_1_456)"/>
</g>
<defs>
<linearGradient id="paint0_linear_1_456" x1="17.252" y1="0.567108" x2="17.252" y2="34.5671" gradientUnits="userSpaceOnUse">
<stop stop-color="#0336E9"/>
<stop offset="1" stop-color="#1837A5"/>
</linearGradient>
<clipPath id="clip0_1_456">
<rect width="34" height="34" fill="white" transform="translate(0.251953 0.567108)"/>
</clipPath>
</defs>
</svg>
