<svg width="20" height="20" viewBox="0 0 25 25" fill="none" xmlns="http://www.w3.org/2000/svg">
<path d="M14.5039 15.3511C14.7872 15.3511 15.0331 15.2469 15.2414 15.0386C15.4497 14.8302 15.5539 14.5844 15.5539 14.3011C15.5539 14.0177 15.4497 13.7719 15.2414 13.5636C15.0331 13.3552 14.7872 13.2511 14.5039 13.2511C14.2206 13.2511 13.9747 13.3552 13.7664 13.5636C13.5581 13.7719 13.4539 14.0177 13.4539 14.3011C13.4539 14.5844 13.5581 14.8302 13.7664 15.0386C13.9747 15.2469 14.2206 15.3511 14.5039 15.3511ZM13.7539 12.1511H15.2539C15.2539 11.6677 15.3039 11.3136 15.4039 11.0886C15.5039 10.8636 15.7372 10.5677 16.1039 10.2011C16.6039 9.70107 16.9372 9.29691 17.1039 8.98857C17.2706 8.68024 17.3539 8.31774 17.3539 7.90107C17.3539 7.15107 17.0914 6.53857 16.5664 6.06357C16.0414 5.58857 15.3539 5.35107 14.5039 5.35107C13.8206 5.35107 13.2247 5.54274 12.7164 5.92607C12.2081 6.30941 11.8539 6.81774 11.6539 7.45107L13.0039 8.00107C13.1539 7.58441 13.3581 7.27191 13.6164 7.06357C13.8747 6.85524 14.1706 6.75107 14.5039 6.75107C14.9039 6.75107 15.2289 6.86357 15.4789 7.08857C15.7289 7.31357 15.8539 7.61774 15.8539 8.00107C15.8539 8.23441 15.7872 8.45524 15.6539 8.66357C15.5206 8.87191 15.2872 9.13441 14.9539 9.45107C14.4039 9.93441 14.0664 10.3136 13.9414 10.5886C13.8164 10.8636 13.7539 11.3844 13.7539 12.1511ZM8.50391 18.3511C7.95391 18.3511 7.48307 18.1552 7.09141 17.7636C6.69974 17.3719 6.50391 16.9011 6.50391 16.3511V4.35107C6.50391 3.80107 6.69974 3.33024 7.09141 2.93857C7.48307 2.54691 7.95391 2.35107 8.50391 2.35107H20.5039C21.0539 2.35107 21.5247 2.54691 21.9164 2.93857C22.3081 3.33024 22.5039 3.80107 22.5039 4.35107V16.3511C22.5039 16.9011 22.3081 17.3719 21.9164 17.7636C21.5247 18.1552 21.0539 18.3511 20.5039 18.3511H8.50391ZM8.50391 16.3511H20.5039V4.35107H8.50391V16.3511ZM4.50391 22.3511C3.95391 22.3511 3.48307 22.1552 3.09141 21.7636C2.69974 21.3719 2.50391 20.9011 2.50391 20.3511V6.35107H4.50391V20.3511H18.5039V22.3511H4.50391Z" fill="url(#paint0_linear_1_24)"/>
<defs>
<linearGradient id="paint0_linear_1_24" x1="12.5039" y1="2.35107" x2="12.5039" y2="22.3511" gradientUnits="userSpaceOnUse">
<stop stop-color="#0336E9"/>
<stop offset="1" stop-color="#1837A5"/>
</linearGradient>
</defs>
</svg>
