<svg width="20" height="20" viewBox="0 0 25 25" fill="none" xmlns="http://www.w3.org/2000/svg">
<path d="M11.5039 17.3511H13.5039V11.3511H11.5039V17.3511ZM12.5039 9.35107C12.7872 9.35107 13.0247 9.25524 13.2164 9.06357C13.4081 8.87191 13.5039 8.63441 13.5039 8.35107C13.5039 8.06774 13.4081 7.83024 13.2164 7.63857C13.0247 7.44691 12.7872 7.35107 12.5039 7.35107C12.2206 7.35107 11.9831 7.44691 11.7914 7.63857C11.5997 7.83024 11.5039 8.06774 11.5039 8.35107C11.5039 8.63441 11.5997 8.87191 11.7914 9.06357C11.9831 9.25524 12.2206 9.35107 12.5039 9.35107ZM12.5039 22.3511C11.1206 22.3511 9.82057 22.0886 8.60391 21.5636C7.38724 21.0386 6.32891 20.3261 5.42891 19.4261C4.52891 18.5261 3.81641 17.4677 3.29141 16.2511C2.76641 15.0344 2.50391 13.7344 2.50391 12.3511C2.50391 10.9677 2.76641 9.66774 3.29141 8.45107C3.81641 7.23441 4.52891 6.17607 5.42891 5.27607C6.32891 4.37607 7.38724 3.66357 8.60391 3.13857C9.82057 2.61357 11.1206 2.35107 12.5039 2.35107C13.8872 2.35107 15.1872 2.61357 16.4039 3.13857C17.6206 3.66357 18.6789 4.37607 19.5789 5.27607C20.4789 6.17607 21.1914 7.23441 21.7164 8.45107C22.2414 9.66774 22.5039 10.9677 22.5039 12.3511C22.5039 13.7344 22.2414 15.0344 21.7164 16.2511C21.1914 17.4677 20.4789 18.5261 19.5789 19.4261C18.6789 20.3261 17.6206 21.0386 16.4039 21.5636C15.1872 22.0886 13.8872 22.3511 12.5039 22.3511ZM12.5039 20.3511C14.7372 20.3511 16.6289 19.5761 18.1789 18.0261C19.7289 16.4761 20.5039 14.5844 20.5039 12.3511C20.5039 10.1177 19.7289 8.22607 18.1789 6.67607C16.6289 5.12607 14.7372 4.35107 12.5039 4.35107C10.2706 4.35107 8.37891 5.12607 6.82891 6.67607C5.27891 8.22607 4.50391 10.1177 4.50391 12.3511C4.50391 14.5844 5.27891 16.4761 6.82891 18.0261C8.37891 19.5761 10.2706 20.3511 12.5039 20.3511Z" fill="url(#paint0_linear_1_28)"/>
<defs>
<linearGradient id="paint0_linear_1_28" x1="12.5039" y1="2.35107" x2="12.5039" y2="22.3511" gradientUnits="userSpaceOnUse">
<stop stop-color="#0336E9"/>
<stop offset="1" stop-color="#1837A5"/>
</linearGradient>
</defs>
</svg>
