<svg width="20" height="20" viewBox="0 0 35 35" fill="none" xmlns="http://www.w3.org/2000/svg">
<path d="M9.22786 31.2603C8.4487 31.2603 7.78168 30.9828 7.22682 30.428C6.67196 29.8731 6.39453 29.2061 6.39453 28.4269V14.2603C6.39453 13.4811 6.67196 12.8141 7.22682 12.2592C7.78168 11.7044 8.4487 11.4269 9.22786 11.4269H10.6445V8.59359C10.6445 6.63386 11.3352 4.96338 12.7164 3.58213C14.0977 2.20088 15.7681 1.51025 17.7279 1.51025C19.6876 1.51025 21.3581 2.20088 22.7393 3.58213C24.1206 4.96338 24.8112 6.63386 24.8112 8.59359V11.4269H26.2279C27.007 11.4269 27.674 11.7044 28.2289 12.2592C28.7838 12.8141 29.0612 13.4811 29.0612 14.2603V28.4269C29.0612 29.2061 28.7838 29.8731 28.2289 30.428C27.674 30.9828 27.007 31.2603 26.2279 31.2603H9.22786ZM17.7279 24.1769C18.507 24.1769 19.174 23.8995 19.7289 23.3446C20.2838 22.7898 20.5612 22.1228 20.5612 21.3436C20.5612 20.5644 20.2838 19.8974 19.7289 19.3425C19.174 18.7877 18.507 18.5103 17.7279 18.5103C16.9487 18.5103 16.2817 18.7877 15.7268 19.3425C15.172 19.8974 14.8945 20.5644 14.8945 21.3436C14.8945 22.1228 15.172 22.7898 15.7268 23.3446C16.2817 23.8995 16.9487 24.1769 17.7279 24.1769ZM13.4779 11.4269H21.9779V8.59359C21.9779 7.41303 21.5647 6.40956 20.7383 5.58317C19.9119 4.75678 18.9084 4.34359 17.7279 4.34359C16.5473 4.34359 15.5438 4.75678 14.7174 5.58317C13.8911 6.40956 13.4779 7.41303 13.4779 8.59359V11.4269Z" fill="url(#paint0_linear_1_406)"/>
<defs>
<linearGradient id="paint0_linear_1_406" x1="17.7279" y1="1.51025" x2="17.7279" y2="31.2603" gradientUnits="userSpaceOnUse">
<stop stop-color="#0336E9"/>
<stop offset="1" stop-color="#1837A5"/>
</linearGradient>
</defs>
</svg>
