<svg width="20" height="20" viewBox="0 0 25 25" fill="none" xmlns="http://www.w3.org/2000/svg">
<path d="M10.5039 9.35107C11.0562 9.35107 11.5039 9.79878 11.5039 10.3511C11.5039 10.9034 11.0562 11.3511 10.5039 11.3511C9.95162 11.3511 9.50391 10.9034 9.50391 10.3511C9.50391 9.79878 9.95162 9.35107 10.5039 9.35107Z" fill="url(#paint0_linear_1_16)"/>
<path d="M13.5039 14.3511C13.5039 14.9034 13.9517 15.3511 14.5039 15.3511C15.0562 15.3511 15.5039 14.9034 15.5039 14.3511C15.5039 13.7988 15.0562 13.3511 14.5039 13.3511C13.9517 13.3511 13.5039 13.7988 13.5039 14.3511Z" fill="url(#paint1_linear_1_16)"/>
<path d="M11.211 15.0582L15.211 11.0582C15.6016 10.6677 15.6016 10.0345 15.211 9.64396C14.8205 9.25344 14.1874 9.25344 13.7968 9.64396L9.7968 13.644C9.40628 14.0345 9.40628 14.6677 9.7968 15.0582C10.1873 15.4487 10.8205 15.4487 11.211 15.0582Z" fill="url(#paint2_linear_1_16)"/>
<path fill-rule="evenodd" clip-rule="evenodd" d="M16.8146 4.42259L15.6737 4.69617L15.0604 3.69599C13.8898 1.78689 11.116 1.78689 9.94547 3.69599L9.33219 4.69617L8.19129 4.42259C6.01362 3.90039 4.05224 5.86177 4.57444 8.03944L4.84802 9.18034L3.84784 9.79362C1.93874 10.9642 1.93874 13.738 3.84784 14.9086L4.84802 15.5219L4.57444 16.6628C4.05224 18.8404 6.01362 20.8018 8.19129 20.2796L9.33219 20.006L9.94547 21.0062C11.116 22.9153 13.8898 22.9153 15.0604 21.0062L15.6737 20.006L16.8146 20.2796C18.9923 20.8018 20.9537 18.8404 20.4315 16.6628L20.1579 15.5219L21.1581 14.9086C23.0672 13.738 23.0672 10.9642 21.1581 9.79362L20.1579 9.18034L20.4315 8.03944C20.9537 5.86177 18.9923 3.90039 16.8146 4.42259ZM11.6504 4.74144C12.0406 4.10507 12.9652 4.10507 13.3554 4.74144L14.3483 6.36065C14.5746 6.72981 15.0129 6.91132 15.434 6.81036L17.281 6.36745C18.0069 6.19339 18.6607 6.84718 18.4866 7.57307L18.0437 9.42008C17.9427 9.84117 18.1242 10.2794 18.4934 10.5057L20.1126 11.4986C20.749 11.8888 20.749 12.8134 20.1126 13.2036L18.4934 14.1964C18.1242 14.4228 17.9427 14.861 18.0437 15.2821L18.4866 17.1291C18.6607 17.855 18.0069 18.5088 17.281 18.3347L15.434 17.8918C15.0129 17.7909 14.5746 17.9724 14.3483 18.3415L13.3554 19.9608C12.9652 20.5971 12.0406 20.5971 11.6504 19.9608L10.6576 18.3415C10.4313 17.9724 9.99302 17.7909 9.57193 17.8918L7.72492 18.3347C6.99903 18.5088 6.34524 17.855 6.5193 17.1291L6.96221 15.2821C7.06319 14.861 6.88166 14.4228 6.5125 14.1964L4.89329 13.2036C4.25692 12.8134 4.25692 11.8888 4.89329 11.4986L6.5125 10.5057C6.88166 10.2794 7.06319 9.84117 6.96221 9.42008L6.5193 7.57307C6.34524 6.84718 6.99903 6.19339 7.72492 6.36745L9.57193 6.81036C9.99302 6.91132 10.4313 6.72981 10.6576 6.36065L11.6504 4.74144Z" fill="url(#paint3_linear_1_16)"/>
<defs>
<linearGradient id="paint0_linear_1_16" x1="10.5039" y1="9.35107" x2="10.5039" y2="11.3511" gradientUnits="userSpaceOnUse">
<stop stop-color="#0336E9"/>
<stop offset="1" stop-color="#1837A5"/>
</linearGradient>
<linearGradient id="paint1_linear_1_16" x1="14.5039" y1="13.3511" x2="14.5039" y2="15.3511" gradientUnits="userSpaceOnUse">
<stop stop-color="#0336E9"/>
<stop offset="1" stop-color="#1837A5"/>
</linearGradient>
<linearGradient id="paint2_linear_1_16" x1="12.5039" y1="9.35107" x2="12.5039" y2="15.3511" gradientUnits="userSpaceOnUse">
<stop stop-color="#0336E9"/>
<stop offset="1" stop-color="#1837A5"/>
</linearGradient>
<linearGradient id="paint3_linear_1_16" x1="12.503" y1="2.26416" x2="12.503" y2="22.4381" gradientUnits="userSpaceOnUse">
<stop stop-color="#0336E9"/>
<stop offset="1" stop-color="#1837A5"/>
</linearGradient>
</defs>
</svg>
