<svg width="20" height="20" viewBox="0 0 35 35" fill="none" xmlns="http://www.w3.org/2000/svg">
<path d="M9.19206 28.4269C7.63372 28.4269 6.2997 27.8721 5.18997 26.7623C4.08025 25.6526 3.52539 24.3186 3.52539 22.7603V11.4269C3.52539 9.86859 4.08025 8.53456 5.18997 7.42484C6.2997 6.31511 7.63372 5.76025 9.19206 5.76025H26.1921C27.7504 5.76025 29.0844 6.31511 30.1941 7.42484C31.3039 8.53456 31.8587 9.86859 31.8587 11.4269V22.7603C31.8587 24.3186 31.3039 25.6526 30.1941 26.7623C29.0844 27.8721 27.7504 28.4269 26.1921 28.4269H9.19206ZM9.19206 11.4269H26.1921C26.7115 11.4269 27.2073 11.4859 27.6796 11.604C28.1518 11.7221 28.6004 11.9109 29.0254 12.1707V11.4269C29.0254 10.6478 28.748 9.98074 28.1931 9.42588C27.6382 8.87102 26.9712 8.59359 26.1921 8.59359H9.19206C8.41289 8.59359 7.74588 8.87102 7.19102 9.42588C6.63615 9.98074 6.35872 10.6478 6.35872 11.4269V12.1707C6.78372 11.9109 7.23234 11.7221 7.70456 11.604C8.17678 11.4859 8.67261 11.4269 9.19206 11.4269ZM6.57122 16.0311L22.3316 19.8561C22.5441 19.9033 22.7566 19.9033 22.9691 19.8561C23.1816 19.8089 23.3823 19.7144 23.5712 19.5728L28.4941 15.4644C28.2344 15.1103 27.9039 14.821 27.5025 14.5967C27.1011 14.3724 26.6643 14.2603 26.1921 14.2603H9.19206C8.57817 14.2603 8.04102 14.4196 7.5806 14.7384C7.12018 15.0571 6.78372 15.488 6.57122 16.0311Z" fill="url(#paint0_linear_1_411)"/>
<defs>
<linearGradient id="paint0_linear_1_411" x1="17.6921" y1="5.76025" x2="17.6921" y2="28.4269" gradientUnits="userSpaceOnUse">
<stop stop-color="#0336E9"/>
<stop offset="1" stop-color="#1837A5"/>
</linearGradient>
</defs>
</svg>
