<svg width="17" height="17" viewBox="0 0 25 25" fill="none" xmlns="http://www.w3.org/2000/svg">
<path d="M12.3047 12.2329C11.2047 12.2329 10.263 11.8412 9.47969 11.0579C8.69635 10.2746 8.30469 9.33291 8.30469 8.23291C8.30469 7.13291 8.69635 6.19124 9.47969 5.40791C10.263 4.62458 11.2047 4.23291 12.3047 4.23291C13.4047 4.23291 14.3464 4.62458 15.1297 5.40791C15.913 6.19124 16.3047 7.13291 16.3047 8.23291C16.3047 9.33291 15.913 10.2746 15.1297 11.0579C14.3464 11.8412 13.4047 12.2329 12.3047 12.2329ZM4.30469 20.2329V17.4329C4.30469 16.8662 4.45052 16.3454 4.74219 15.8704C5.03385 15.3954 5.42135 15.0329 5.90469 14.7829C6.93802 14.2662 7.98802 13.8787 9.05469 13.6204C10.1214 13.3621 11.2047 13.2329 12.3047 13.2329C13.4047 13.2329 14.488 13.3621 15.5547 13.6204C16.6214 13.8787 17.6714 14.2662 18.7047 14.7829C19.188 15.0329 19.5755 15.3954 19.8672 15.8704C20.1589 16.3454 20.3047 16.8662 20.3047 17.4329V20.2329H4.30469ZM6.30469 18.2329H18.3047V17.4329C18.3047 17.2496 18.2589 17.0829 18.1672 16.9329C18.0755 16.7829 17.9547 16.6662 17.8047 16.5829C16.9047 16.1329 15.9964 15.7954 15.0797 15.5704C14.163 15.3454 13.238 15.2329 12.3047 15.2329C11.3714 15.2329 10.4464 15.3454 9.52969 15.5704C8.61302 15.7954 7.70469 16.1329 6.80469 16.5829C6.65469 16.6662 6.53385 16.7829 6.44219 16.9329C6.35052 17.0829 6.30469 17.2496 6.30469 17.4329V18.2329ZM12.3047 10.2329C12.8547 10.2329 13.3255 10.0371 13.7172 9.64541C14.1089 9.25374 14.3047 8.78291 14.3047 8.23291C14.3047 7.68291 14.1089 7.21208 13.7172 6.82041C13.3255 6.42874 12.8547 6.23291 12.3047 6.23291C11.7547 6.23291 11.2839 6.42874 10.8922 6.82041C10.5005 7.21208 10.3047 7.68291 10.3047 8.23291C10.3047 8.78291 10.5005 9.25374 10.8922 9.64541C11.2839 10.0371 11.7547 10.2329 12.3047 10.2329Z" fill="black"/>
</svg>
