<svg width="20" height="20" viewBox="0 0 35 35" fill="none" xmlns="http://www.w3.org/2000/svg">
<g clip-path="url(#clip0_1_415)">
<path d="M17.6477 9.45983C17.1563 9.69776 16.6694 10.0275 16.2177 10.4796C13.9539 12.7439 11.896 14.8019 11.896 14.8019L11.8968 14.8032C11.8845 14.8156 11.8722 14.8257 11.8598 14.8384C11.2739 15.4248 11.2506 16.3597 11.7918 16.9731C11.8132 16.9977 11.8361 17.022 11.8598 17.0452C12.4682 17.6544 13.456 17.6559 14.0666 17.0452L16.4438 14.6681C16.8539 14.8183 17.2571 14.906 17.644 14.9498C18.1711 15.0083 18.6661 14.9864 19.1064 14.9243C20.1797 14.7722 20.0673 14.8165 20.6898 14.6119C21.3109 14.4082 22.0088 13.9907 22.0088 13.9907L22.4312 14.4127C22.4778 14.458 23.5548 15.5367 24.1041 16.0852C24.2014 16.1829 24.284 16.2633 24.3394 16.3209C24.4028 16.3871 24.4736 16.435 24.5175 16.499L27.2586 19.2401C28.0487 18.3536 28.9511 17.0333 28.8397 15.5175L21.9904 8.6692C21.9904 8.6692 19.6197 8.49979 17.6477 9.45983Z" fill="url(#paint0_linear_1_415)"/>
<path d="M18.0291 26.2816C17.4226 25.6742 16.4379 25.6742 15.831 26.2816L15.3798 26.7328C15.9854 26.1263 15.9849 25.1439 15.3784 24.537C14.7715 23.9309 13.7882 23.9309 13.1813 24.5374C13.7882 23.9309 13.7882 22.9477 13.1813 22.3403C12.5748 21.7328 11.591 21.7338 10.9841 22.3403C11.591 21.7338 11.591 20.75 10.9841 20.1425C10.3775 19.5361 9.39384 19.5361 8.78682 20.1435L7.42815 21.5017C6.82119 22.1091 6.82119 23.0919 7.42815 23.6993C8.03463 24.3059 9.01798 24.3059 9.62487 23.6993C9.01791 24.3059 9.01791 25.2896 9.62487 25.8965C10.2323 26.503 11.2156 26.503 11.8225 25.8965C11.2156 26.503 11.2156 27.4863 11.8225 28.0938C12.4295 28.7002 13.4127 28.7002 14.0198 28.0938L14.4715 27.6416C13.8659 28.249 13.8663 29.2314 14.4728 29.8384C15.0797 30.4448 16.063 30.4448 16.67 29.8384L18.0292 28.4792C18.6356 27.8714 18.6356 26.8881 18.0291 26.2816Z" fill="url(#paint1_linear_1_415)"/>
<path d="M34.4223 11.9324L26.4241 3.93324C26.0687 3.57883 25.4942 3.57883 25.1398 3.93324L22.5745 6.49852C22.2201 6.85293 22.2201 7.42747 22.5745 7.78235L30.5737 15.781C30.9276 16.1363 31.5031 16.1363 31.857 15.781L34.4223 13.2152C34.7776 12.8618 34.7776 12.2873 34.4223 11.9324ZM32.1424 13.7063C31.7606 14.0872 31.1432 14.0872 30.7627 13.7063C30.3819 13.3249 30.3819 12.7074 30.7627 12.3265C31.1432 11.9456 31.7606 11.9456 32.1424 12.3265C32.5233 12.7074 32.5229 13.3249 32.1424 13.7063Z" fill="url(#paint2_linear_1_415)"/>
<path d="M12.8032 6.72509L10.2383 4.15982C9.88394 3.80541 9.30893 3.80541 8.95452 4.15982L0.955352 12.1589C0.600942 12.5124 0.600942 13.0879 0.955352 13.4418L3.52069 16.008C3.87464 16.362 4.45051 16.362 4.80399 16.008L12.8032 8.00886C13.158 7.65445 13.158 7.0799 12.8032 6.72509ZM4.61533 13.9328C4.23443 14.3132 3.61658 14.3132 3.23561 13.9328C2.85477 13.5515 2.85477 12.9339 3.23561 12.553C3.61652 12.1722 4.23443 12.1722 4.61533 12.553C4.99624 12.9339 4.99624 13.5514 4.61533 13.9328Z" fill="url(#paint3_linear_1_415)"/>
<path d="M27.0885 20.8661L26.5926 20.3692L21.7775 15.5542L21.4533 15.698L21.1003 15.8254L21.0748 15.8332C21.0126 15.8528 20.4317 16.0305 19.2863 16.1926C18.6807 16.2771 18.0806 16.2876 17.4997 16.2214C17.27 16.1958 17.0416 16.1583 16.816 16.109L14.9728 17.9514C13.8652 19.0589 12.0618 19.0589 10.9543 17.9514C10.9154 17.9122 10.878 17.8724 10.8433 17.8331L10.8314 17.8199C10.1322 17.027 9.95457 15.9419 10.2834 15.0002L10.9922 13.8972L10.9908 13.8959L15.3126 9.5746C15.4884 9.39922 15.6729 9.23573 15.8647 9.08134C14.5179 8.81691 13.388 8.895 13.388 8.895L6.5401 15.7441C6.44786 17.0051 7.31379 18.387 7.92985 19.1941C9.0383 18.134 10.8012 18.1478 11.8904 19.2375C12.2959 19.6426 12.5513 20.1418 12.659 20.6651C13.1832 20.7738 13.682 21.0287 14.0876 21.4342C14.4931 21.8402 14.7484 22.3394 14.8562 22.8632C15.38 22.971 15.8797 23.2258 16.2848 23.6314C16.5556 23.9022 16.7598 24.2147 16.8972 24.5489C17.6343 24.5398 18.3742 24.8156 18.9351 25.376C20.0408 26.4808 20.0403 28.2802 18.9351 29.3845L18.4829 29.8375L18.7094 30.0641C19.3169 30.6715 20.3001 30.6715 20.9072 30.0641C21.5141 29.4576 21.5141 28.4739 20.9072 27.8669L21.3592 28.3204C21.9667 28.9269 22.9495 28.9269 23.5564 28.3204C24.1634 27.713 24.1638 26.7297 23.5564 26.1223C24.1638 26.7297 25.1467 26.7297 25.7536 26.1223C26.3602 25.5163 26.3615 24.5325 25.7536 23.9251C26.3615 24.5325 27.3443 24.5325 27.9509 23.9251C28.5583 23.3186 28.5583 22.3348 27.9509 21.7283L27.0885 20.8661Z" fill="url(#paint4_linear_1_415)"/>
</g>
<defs>
<linearGradient id="paint0_linear_1_415" x1="20.1258" y1="8.65767" x2="20.1258" y2="19.2401" gradientUnits="userSpaceOnUse">
<stop stop-color="#0336E9"/>
<stop offset="1" stop-color="#1837A5"/>
</linearGradient>
<linearGradient id="paint1_linear_1_415" x1="12.7285" y1="19.6878" x2="12.7285" y2="30.2932" gradientUnits="userSpaceOnUse">
<stop stop-color="#0336E9"/>
<stop offset="1" stop-color="#1837A5"/>
</linearGradient>
<linearGradient id="paint2_linear_1_415" x1="28.4987" y1="3.66743" x2="28.4987" y2="16.0475" gradientUnits="userSpaceOnUse">
<stop stop-color="#0336E9"/>
<stop offset="1" stop-color="#1837A5"/>
</linearGradient>
<linearGradient id="paint3_linear_1_415" x1="6.87943" y1="3.89401" x2="6.87943" y2="16.2735" gradientUnits="userSpaceOnUse">
<stop stop-color="#0336E9"/>
<stop offset="1" stop-color="#1837A5"/>
</linearGradient>
<linearGradient id="paint4_linear_1_415" x1="17.4699" y1="8.88423" x2="17.4699" y2="30.5197" gradientUnits="userSpaceOnUse">
<stop stop-color="#0336E9"/>
<stop offset="1" stop-color="#1837A5"/>
</linearGradient>
<clipPath id="clip0_1_415">
<rect width="34" height="34" fill="white" transform="translate(0.689453 0.0935059)"/>
</clipPath>
</defs>
</svg>
